<svg width="2000" height="2000" viewBox="0 0 2000 2000" fill="none" xmlns="http://www.w3.org/2000/svg">
<path d="M757.554 1188.43L929.836 1186.62L1324.05 1180.88L1477.38 1167.84L1504.26 1173.14C1504.26 1173.14 1519.05 1161.05 1517.9 1130.59C1516.76 1100.13 1493.08 1049.36 1420.88 1044.84C1348.68 1040.33 1308.04 1087.7 1291.13 1111.41C1274.21 1135.11 945.844 1141.87 945.844 1141.87C945.844 1141.87 939.082 1075.31 879.282 1059.51C819.481 1043.72 781.135 1064.03 758.581 1088.76C736.028 1113.48 742.789 1177.9 742.789 1177.9L757.554 1188.43Z" fill="#263238" stroke="#263238" stroke-width="1.11106" stroke-linecap="round" stroke-linejoin="round"/>
<path d="M1032.57 973.934C1032.57 973.934 1047.77 970.78 1049.03 978.378C1050.3 985.975 1049.68 989.774 1045.88 991.662C1040.07 994.087 1033.62 994.532 1027.53 992.928C1026.1 992.577 1024.79 991.867 1023.72 990.865C1022.65 989.864 1021.86 988.604 1021.41 987.207C1020.96 985.81 1020.88 984.321 1021.18 982.885C1021.47 981.448 1022.13 980.11 1023.09 978.999C1025.78 976.548 1029.04 974.807 1032.57 973.934V973.934Z" fill="white" stroke="#263238" stroke-width="1.11106" stroke-linecap="round" stroke-linejoin="round"/>
<path d="M1567.26 1079.61C1566 1074.54 1541.32 1061.26 1541.32 1061.26C1541.32 1061.26 1518.53 1027.81 1505.89 1015.7C1498.99 1009.02 1491.58 1002.88 1483.74 997.347C1483.74 997.347 1510.95 994.815 1510.95 990.395C1510.95 985.975 1504.62 985.33 1500.18 984.064C1495.73 982.798 1463.48 983.443 1463.48 983.443H1280.61L1100.28 993.549L1044.61 997.347C1044.61 997.347 1042.08 990.395 1037.01 990.395C1032.77 990.248 1028.54 989.825 1024.35 989.129C1024.35 989.129 1021.82 983.443 1030.68 975.2C1039.55 966.957 1085.11 939.148 1085.11 939.148C1084.77 934.882 1082.98 930.86 1080.04 927.751C1076.94 924.306 1073.02 921.694 1068.65 920.154L1048.41 917C1045.23 917 995.849 943.568 925.656 997.993C925.656 997.993 830.734 1005.59 783.907 1021.41C737.079 1037.22 716.198 1054.31 706.713 1078.34C706.713 1078.34 707.979 1086.58 705.447 1089.12C702.914 1091.65 685.831 1097.33 682.033 1103.67C678.234 1110 685.21 1157.45 685.21 1157.45C685.21 1157.45 677.613 1162.51 680.766 1167.6C683.92 1172.69 705.447 1182.15 723.174 1185.3C734.223 1187.24 745.407 1188.3 756.622 1188.48H757.482C755.571 1179.12 754.65 1169.58 754.735 1160.03C754.543 1148.35 756.675 1136.76 761.009 1125.92C765.343 1115.08 771.791 1105.21 779.978 1096.89C788.165 1088.56 797.926 1081.95 808.693 1077.44C819.46 1072.93 831.018 1070.61 842.692 1070.61C854.366 1070.61 865.924 1072.93 876.691 1077.44C887.458 1081.95 897.219 1088.56 905.406 1096.89C913.592 1105.21 920.041 1115.08 924.374 1125.92C928.708 1136.76 930.841 1148.35 930.649 1160.03C930.649 1169.94 930.338 1178.76 929.765 1186.66H936.932L966.677 1184.78L1323.88 1181C1323.26 1174.62 1322.93 1167.67 1322.93 1160.1C1322.73 1148.01 1324.94 1136 1329.43 1124.78C1333.92 1113.55 1340.6 1103.33 1349.08 1094.71C1357.56 1086.09 1367.67 1079.25 1378.82 1074.58C1389.98 1069.91 1401.95 1067.5 1414.04 1067.5C1426.13 1067.5 1438.1 1069.91 1449.25 1074.58C1460.4 1079.25 1470.51 1086.09 1478.99 1094.71C1487.47 1103.33 1494.15 1113.55 1498.64 1124.78C1503.13 1136 1505.34 1148.01 1505.15 1160.1C1505.14 1164.5 1504.82 1168.9 1504.19 1173.26L1536.78 1166.43L1563.37 1137.95C1565.37 1133.13 1566.44 1127.97 1566.52 1122.75C1566.62 1114.42 1568.53 1084.67 1567.26 1079.61Z" fill="white"/>
<path d="M1566.62 1122.64C1566.62 1118.57 1567.07 1109.3 1567.41 1100.32C1433.95 1015.19 1355.75 1060.09 1255.79 1088.76C1147.44 1119.82 1014.48 1067.25 892.637 1055.31C824.307 1048.62 753.731 1069.64 704.921 1089.55C701.122 1092.25 685.64 1097.67 682.033 1103.67C678.425 1109.66 685.21 1157.45 685.21 1157.45C685.21 1157.45 677.613 1162.51 680.766 1167.6C683.92 1172.69 705.447 1182.15 723.174 1185.3C734.223 1187.24 745.407 1188.3 756.622 1188.48H757.482C755.571 1179.12 754.65 1169.58 754.735 1160.03C754.543 1148.35 756.675 1136.76 761.009 1125.92C765.343 1115.08 771.791 1105.21 779.978 1096.89C788.165 1088.56 797.926 1081.95 808.693 1077.44C819.46 1072.93 831.018 1070.61 842.692 1070.61C854.366 1070.61 865.924 1072.93 876.691 1077.44C887.458 1081.95 897.219 1088.56 905.406 1096.89C913.592 1105.21 920.041 1115.08 924.374 1125.92C928.708 1136.76 930.841 1148.35 930.649 1160.03C930.649 1169.94 930.338 1178.76 929.765 1186.67H936.932L966.677 1184.78L1323.88 1181C1323.26 1174.62 1322.93 1167.67 1322.93 1160.1C1322.73 1148.01 1324.94 1136 1329.43 1124.78C1333.92 1113.55 1340.6 1103.33 1349.08 1094.71C1357.56 1086.09 1367.67 1079.25 1378.82 1074.58C1389.98 1069.91 1401.95 1067.5 1414.04 1067.5C1426.13 1067.5 1438.1 1069.91 1449.25 1074.58C1460.4 1079.25 1470.51 1086.09 1478.99 1094.71C1487.47 1103.33 1494.15 1113.55 1498.64 1124.78C1503.13 1136 1505.34 1148.01 1505.15 1160.1C1505.14 1164.5 1504.82 1168.9 1504.19 1173.26L1536.78 1166.43L1563.37 1137.95C1565.42 1133.1 1566.53 1127.9 1566.62 1122.64V1122.64Z" fill="#92E3A9"/>
<path opacity="0.5" d="M1566.62 1122.64C1566.62 1118.57 1567.07 1109.3 1567.41 1100.32C1433.95 1015.19 1355.75 1060.09 1255.79 1088.76C1147.44 1119.82 1014.48 1067.25 892.637 1055.31C824.307 1048.62 753.731 1069.64 704.921 1089.55C701.122 1092.25 685.64 1097.67 682.033 1103.67C678.425 1109.66 685.21 1157.45 685.21 1157.45C685.21 1157.45 677.613 1162.51 680.766 1167.6C683.92 1172.69 705.447 1182.15 723.174 1185.3C734.223 1187.24 745.407 1188.3 756.622 1188.48H757.482C755.571 1179.12 754.65 1169.58 754.735 1160.03C754.543 1148.35 756.675 1136.76 761.009 1125.92C765.343 1115.08 771.791 1105.21 779.978 1096.89C788.165 1088.56 797.926 1081.95 808.693 1077.44C819.46 1072.93 831.018 1070.61 842.692 1070.61C854.366 1070.61 865.924 1072.93 876.691 1077.44C887.458 1081.95 897.219 1088.56 905.406 1096.89C913.592 1105.21 920.041 1115.08 924.374 1125.92C928.708 1136.76 930.841 1148.35 930.649 1160.03C930.649 1169.94 930.338 1178.76 929.765 1186.67H936.932L966.677 1184.78L1323.88 1181C1323.26 1174.62 1322.93 1167.67 1322.93 1160.1C1322.73 1148.01 1324.94 1136 1329.43 1124.78C1333.92 1113.55 1340.6 1103.33 1349.08 1094.71C1357.56 1086.09 1367.67 1079.25 1378.82 1074.58C1389.98 1069.91 1401.95 1067.5 1414.04 1067.5C1426.13 1067.5 1438.1 1069.91 1449.25 1074.58C1460.4 1079.25 1470.51 1086.09 1478.99 1094.71C1487.47 1103.33 1494.15 1113.55 1498.64 1124.78C1503.13 1136 1505.34 1148.01 1505.15 1160.1C1505.14 1164.5 1504.82 1168.9 1504.19 1173.26L1536.78 1166.43L1563.37 1137.95C1565.42 1133.1 1566.53 1127.9 1566.62 1122.64V1122.64Z" fill="white"/>
<path d="M1567.26 1079.61C1566 1074.54 1541.32 1061.26 1541.32 1061.26C1541.32 1061.26 1518.53 1027.81 1505.89 1015.7C1498.99 1009.02 1491.58 1002.88 1483.74 997.347C1483.74 997.347 1510.95 994.815 1510.95 990.395C1510.95 985.975 1504.62 985.33 1500.18 984.064C1495.73 982.798 1463.48 983.443 1463.48 983.443H1280.61L1100.28 993.549L1044.61 997.347C1044.61 997.347 1042.08 990.395 1037.01 990.395C1032.77 990.248 1028.54 989.825 1024.35 989.129C1024.35 989.129 1021.82 983.443 1030.68 975.2C1039.55 966.957 1085.11 939.148 1085.11 939.148C1084.77 934.882 1082.98 930.86 1080.04 927.751C1076.94 924.306 1073.02 921.694 1068.65 920.154L1048.41 917C1045.23 917 995.849 943.568 925.656 997.993C925.656 997.993 830.734 1005.59 783.907 1021.41C737.079 1037.22 716.198 1054.31 706.713 1078.34C706.713 1078.34 707.979 1086.58 705.447 1089.12C702.914 1091.65 685.831 1097.33 682.033 1103.67C678.234 1110 685.21 1157.45 685.21 1157.45C685.21 1157.45 677.613 1162.51 680.766 1167.6C683.92 1172.69 705.447 1182.15 723.174 1185.3C734.223 1187.24 745.407 1188.3 756.622 1188.48H757.482C755.571 1179.12 754.65 1169.58 754.735 1160.03C754.543 1148.35 756.675 1136.76 761.009 1125.92C765.343 1115.08 771.791 1105.21 779.978 1096.89C788.165 1088.56 797.926 1081.95 808.693 1077.44C819.46 1072.93 831.018 1070.61 842.692 1070.61C854.366 1070.61 865.924 1072.93 876.691 1077.44C887.458 1081.95 897.219 1088.56 905.406 1096.89C913.592 1105.21 920.041 1115.08 924.374 1125.92C928.708 1136.76 930.841 1148.35 930.649 1160.03C930.649 1169.94 930.338 1178.76 929.765 1186.66H936.932L966.677 1184.78L1323.88 1181C1323.26 1174.62 1322.93 1167.67 1322.93 1160.1C1322.73 1148.01 1324.94 1136 1329.43 1124.78C1333.92 1113.55 1340.6 1103.33 1349.08 1094.71C1357.56 1086.09 1367.67 1079.25 1378.82 1074.58C1389.98 1069.91 1401.95 1067.5 1414.04 1067.5C1426.13 1067.5 1438.1 1069.91 1449.25 1074.58C1460.4 1079.25 1470.51 1086.09 1478.99 1094.71C1487.47 1103.33 1494.15 1113.55 1498.64 1124.78C1503.13 1136 1505.34 1148.01 1505.15 1160.1C1505.14 1164.5 1504.82 1168.9 1504.19 1173.26L1536.78 1166.43L1563.37 1137.95C1565.37 1133.13 1566.44 1127.97 1566.52 1122.75C1566.62 1114.42 1568.53 1084.67 1567.26 1079.61Z" stroke="#263238" stroke-width="1.11106" stroke-linecap="round" stroke-linejoin="round"/>
<path d="M1061.69 936.615C1061.69 936.615 1000.32 972.046 969.951 1013.81L1467.92 987.241L1436.12 983.443H1280.61L1100.28 993.549L1044.61 997.348C1044.61 997.348 1042.08 990.395 1037.01 990.395C1032.77 990.248 1028.54 989.825 1024.35 989.129C1024.35 989.129 1021.82 983.443 1030.68 975.2C1039.55 966.957 1085.11 939.148 1085.11 939.148C1084.77 934.882 1082.98 930.86 1080.04 927.751C1076.94 924.306 1073.02 921.694 1068.65 920.154L1048.41 917C1048.41 917 1061.69 925.219 1061.69 936.615Z" fill="white" stroke="#263238" stroke-width="1.11106" stroke-linecap="round" stroke-linejoin="round"/>
<path d="M1183.02 951.786C1180.27 951.504 1177.53 952.26 1175.31 953.906C1173.1 955.551 1171.59 957.967 1171.07 960.674C1170.06 965.454 1169.47 970.316 1169.33 975.2C1169.33 984.757 1183.26 991.661 1183.26 991.661L1176.28 1001.79L1205.4 1000.53C1205.42 997.939 1205 995.368 1204.14 992.928L1202.87 990.395C1202.87 990.395 1206.67 985.975 1200.34 972.668C1194.01 959.36 1188.39 952.432 1183.26 951.786H1183.02Z" fill="#263238" stroke="#263238" stroke-width="1.11106" stroke-linecap="round" stroke-linejoin="round"/>
<path d="M1302.76 984.064L1312.32 994.194L1442.05 990.396L1459.13 989.129C1459.13 989.129 1466.08 989.129 1463.55 983.443C1462.71 981.738 1461.46 980.268 1459.92 979.163C1458.37 978.058 1456.57 977.354 1454.69 977.112C1454.69 977.112 1452.15 969.514 1449 966.982C1446.92 965.064 1444.23 963.947 1441.4 963.828C1439.52 963.828 1436.34 953.698 1431.85 953.698C1427.36 953.698 1413.5 958.763 1411.59 960.029C1409.68 961.296 1397.04 949.899 1388.2 951.787C1379.36 953.674 1329.35 974.579 1323.02 977.112C1316.69 979.644 1302.76 984.064 1302.76 984.064Z" fill="#263238" stroke="#263238" stroke-width="1.11106" stroke-linecap="round" stroke-linejoin="round"/>
<path d="M1362.25 979.644C1362.25 979.644 1360.98 949.278 1357.19 946.196C1353.39 943.114 1346.43 939.865 1343.9 941.776L1341.37 943.663C1341.37 943.663 1338.19 939.865 1332.51 943.042C1326.82 946.22 1324.29 960.746 1324.29 967.077C1324.32 968.974 1324.72 970.846 1325.48 972.585C1326.24 974.324 1327.34 975.895 1328.71 977.207L1317.96 983.538L1323.64 992.378L1362.25 979.644Z" fill="#263238" stroke="#263238" stroke-width="1.11106" stroke-linecap="round" stroke-linejoin="round"/>
<path d="M1044.61 997.348C1044.61 997.348 1042.08 990.395 1037.01 990.395C1032.77 990.248 1028.54 989.825 1024.35 989.129C1024.35 989.129 1021.82 983.443 1030.68 975.2C1039.55 966.957 1085.11 939.148 1085.11 939.148C1084.77 934.882 1082.98 930.86 1080.04 927.751C1076.94 924.306 1073.02 921.694 1068.65 920.154L1048.41 917C1048.41 917 1061.69 925.219 1061.69 936.615C1061.69 936.615 1000.32 972.046 969.951 1013.81L1051.45 1009.46L1044.61 997.348Z" fill="#263238" stroke="#263238" stroke-width="1.11106" stroke-linecap="round" stroke-linejoin="round"/>
<path d="M999.051 982.798C999.051 982.798 1008.61 980.266 1014.22 985.331C1019.84 990.396 1021.82 1002.41 1018.67 1004.44C1015.51 1006.47 1001.58 1006.33 1001.58 1006.33L1008.54 1012.66L992.72 1013.28L992.075 1006.33C992.075 1006.33 983.235 1000.65 984.501 993.669C985.767 986.693 999.051 982.798 999.051 982.798Z" fill="white" stroke="#263238" stroke-width="1.11106" stroke-linecap="round" stroke-linejoin="round"/>
<path d="M1519.79 1032.78C1519.79 1032.78 1485.01 1006.86 1422.36 1014.43C1359.72 1022 1310.36 1045.49 1290.12 1146.05" stroke="#263238" stroke-width="1.11106" stroke-linecap="round" stroke-linejoin="round"/>
<path d="M1297.07 1161.87C1297.07 1161.87 1302.76 1158.07 1300.87 1154.27C1299.48 1151.62 1297.38 1149.39 1294.82 1147.84C1292.26 1146.28 1289.32 1145.45 1286.32 1145.43C1278.73 1145.43 962.975 1156.18 962.975 1156.18L964.886 1170.08L1297.07 1161.87Z" stroke="#263238" stroke-width="1.11106" stroke-linecap="round" stroke-linejoin="round"/>
<path d="M962.974 1156.18C962.974 1156.18 962.974 1118.84 950.335 1094.8C937.696 1070.77 919.276 1048.62 875.65 1032.68C832.024 1016.75 754.806 1042.81 754.806 1042.81C736.303 1050.97 720.661 1064.48 709.89 1081.59L707.357 1086.01" stroke="#263238" stroke-width="1.11106" stroke-linecap="round" stroke-linejoin="round"/>
<path d="M742.597 1079.46C729.648 1091.41 715.696 1097.43 711.538 1092.82C707.381 1088.21 714.286 1074.73 727.235 1062.74C740.184 1050.75 754.113 1044.77 758.294 1049.38C762.475 1053.99 755.523 1067.47 742.597 1079.46Z" stroke="#263238" stroke-width="1.11106" stroke-linecap="round" stroke-linejoin="round"/>
<path d="M682.009 1130.88C683.275 1144.28 685.21 1157.44 685.21 1157.44C685.21 1157.44 703.559 1163.13 709.89 1162.51C716.222 1161.89 718.73 1159.98 721.263 1149.23C723.795 1138.47 718.109 1134.65 718.109 1134.65L682.033 1130.85L682.009 1130.88Z" fill="#263238" stroke="#263238" stroke-width="1.11106" stroke-linecap="round" stroke-linejoin="round"/>
<path d="M1213.86 1049.24H1207.53C1204.93 1049.23 1202.44 1048.2 1200.61 1046.36C1198.77 1044.53 1197.74 1042.04 1197.73 1039.44V1039.44C1197.73 1036.84 1198.76 1034.35 1200.6 1032.51C1202.44 1030.67 1204.93 1029.63 1207.53 1029.62H1213.86C1215.15 1029.63 1216.43 1029.88 1217.62 1030.37C1218.81 1030.87 1219.89 1031.59 1220.8 1032.5C1221.71 1033.41 1222.44 1034.5 1222.93 1035.69C1223.42 1036.88 1223.68 1038.15 1223.68 1039.44C1223.67 1042.04 1222.64 1044.54 1220.79 1046.37C1218.95 1048.21 1216.46 1049.24 1213.86 1049.24V1049.24Z" fill="white" stroke="#263238" stroke-width="1.11106" stroke-linecap="round" stroke-linejoin="round"/>
<path d="M1197.09 1043.62C1195.89 1043.62 1194.74 1043.15 1193.89 1042.3C1193.05 1041.46 1192.57 1040.31 1192.57 1039.11C1192.57 1037.91 1193.05 1036.76 1193.89 1035.92C1194.74 1035.07 1195.89 1034.59 1197.09 1034.59L1231.25 1033.97C1232.44 1033.97 1233.59 1034.42 1234.45 1035.25C1235.3 1036.08 1235.8 1037.2 1235.84 1038.39C1235.85 1038.99 1235.75 1039.58 1235.53 1040.13C1235.32 1040.68 1235 1041.19 1234.59 1041.61C1234.17 1042.04 1233.68 1042.39 1233.14 1042.62C1232.6 1042.86 1232.01 1042.99 1231.42 1043L1197.26 1043.62H1197.09Z" fill="white" stroke="#263238" stroke-width="1.11106" stroke-linecap="round" stroke-linejoin="round"/>
<path d="M1427.12 1236.27C1466.91 1229.84 1493.95 1192.37 1487.52 1152.58C1481.09 1112.79 1443.62 1085.75 1403.83 1092.18C1364.04 1098.61 1337 1136.08 1343.43 1175.87C1349.86 1215.66 1387.33 1242.7 1427.12 1236.27Z" fill="#263238" stroke="#263238" stroke-width="1.11106" stroke-linecap="round" stroke-linejoin="round"/>
<path d="M1422.21 1209.29C1449.45 1204.84 1467.93 1179.14 1463.47 1151.9C1459.02 1124.66 1433.33 1106.18 1406.09 1110.63C1378.84 1115.08 1360.37 1140.78 1364.82 1168.02C1369.27 1195.26 1394.96 1213.74 1422.21 1209.29Z" fill="white" stroke="#263238" stroke-width="1.11106" stroke-linecap="round" stroke-linejoin="round"/>
<path d="M1435.15 1181.01C1446.77 1169.4 1446.77 1150.56 1435.15 1138.95C1423.53 1127.33 1404.7 1127.33 1393.08 1138.95C1381.47 1150.56 1381.47 1169.4 1393.08 1181.01C1404.7 1192.63 1423.53 1192.63 1435.15 1181.01Z" stroke="#263238" stroke-width="1.11106" stroke-linecap="round" stroke-linejoin="round"/>
<path d="M1427.43 1159.98C1427.43 1157.34 1426.66 1154.77 1425.2 1152.58C1423.74 1150.39 1421.66 1148.68 1419.23 1147.67C1416.8 1146.66 1414.12 1146.39 1411.54 1146.9C1408.96 1147.41 1406.58 1148.68 1404.72 1150.54C1402.86 1152.4 1401.59 1154.77 1401.07 1157.35C1400.55 1159.93 1400.82 1162.61 1401.82 1165.04C1402.83 1167.47 1404.54 1169.55 1406.72 1171.02C1408.91 1172.48 1411.49 1173.26 1414.12 1173.26C1415.87 1173.26 1417.6 1172.92 1419.21 1172.26C1420.83 1171.59 1422.29 1170.61 1423.53 1169.38C1424.76 1168.15 1425.75 1166.68 1426.41 1165.07C1427.08 1163.45 1427.43 1161.72 1427.43 1159.98V1159.98Z" stroke="#263238" stroke-width="1.11106" stroke-linecap="round" stroke-linejoin="round"/>
<path d="M853.961 1235.28C893.751 1228.85 920.794 1191.38 914.363 1151.59C907.932 1111.8 870.463 1084.76 830.673 1091.19C790.883 1097.62 763.84 1135.09 770.271 1174.88C776.701 1214.67 814.171 1241.71 853.961 1235.28Z" fill="#263238" stroke="#263238" stroke-width="1.11106" stroke-linecap="round" stroke-linejoin="round"/>
<path d="M854.27 1208.63C881.122 1202.24 897.705 1175.28 891.308 1148.43C884.91 1121.58 857.956 1105 831.104 1111.39C804.252 1117.79 787.669 1144.74 794.066 1171.6C800.464 1198.45 827.418 1215.03 854.27 1208.63Z" fill="white" stroke="#263238" stroke-width="1.11106" stroke-linecap="round" stroke-linejoin="round"/>
<path d="M849.702 1188.88C865.685 1185.09 875.565 1169.05 871.769 1153.07C867.973 1137.08 851.939 1127.2 835.956 1131C819.973 1134.8 810.093 1150.83 813.889 1166.81C817.685 1182.8 833.719 1192.68 849.702 1188.88Z" stroke="#263238" stroke-width="1.11106" stroke-linecap="round" stroke-linejoin="round"/>
<path d="M856.035 1159.98C856.035 1157.35 855.256 1154.78 853.797 1152.6C852.337 1150.41 850.262 1148.71 847.835 1147.71C845.408 1146.7 842.737 1146.44 840.16 1146.95C837.583 1147.46 835.216 1148.73 833.358 1150.59C831.501 1152.44 830.236 1154.81 829.723 1157.39C829.21 1159.96 829.474 1162.63 830.479 1165.06C831.484 1167.49 833.187 1169.56 835.371 1171.02C837.556 1172.48 840.124 1173.26 842.751 1173.26C846.275 1173.26 849.653 1171.86 852.145 1169.37C854.636 1166.88 856.035 1163.5 856.035 1159.98V1159.98Z" stroke="#263238" stroke-width="1.11106" stroke-linecap="round" stroke-linejoin="round"/>
<path d="M1238.42 1000.36C1244.55 1017.28 1246.9 1035.35 1245.3 1053.28C1242.91 1084.15 1224.71 1147.36 1224.71 1147.36C1226.23 1150.1 1226.72 1153.29 1226.09 1156.36C1225.46 1159.42 1223.76 1162.17 1221.29 1164.09" stroke="#263238" stroke-width="1.11106" stroke-linecap="round" stroke-linejoin="round"/>
<path d="M969.951 1013.81C966.464 1017.85 963.405 1022.23 960.824 1026.9C957.742 1033.09 956.715 1108.47 956.715 1108.47" stroke="#263238" stroke-width="1.11106" stroke-linecap="round" stroke-linejoin="round"/>
<path d="M942.809 1005.73C947.588 1003.65 954.755 993.787 979.985 972.691C1005.21 951.594 1045.54 928.802 1045.54 928.802L1037.87 921.969C1019.38 931.979 978.432 957.137 925.583 997.992L917.389 1006.76C917.389 1006.76 938.031 1007.79 942.809 1005.73Z" fill="#263238" stroke="#263238" stroke-width="1.11106" stroke-linecap="round" stroke-linejoin="round"/>
<path d="M925.417 997.97C923.745 998.089 911.799 999.093 895.003 1000.98C895.003 1005.45 917.461 1006.71 917.461 1006.71L925.417 997.97Z" stroke="#263238" stroke-width="1.11106" stroke-linecap="round" stroke-linejoin="round"/>
<path d="M1538.64 1062.86C1538.64 1062.86 1534.32 1047.26 1516.11 1033.4C1497.91 1019.54 1481.04 1023.84 1479.32 1032.11C1477.6 1040.38 1490.14 1054.62 1504.43 1061.98C1518.72 1069.33 1530.54 1065.89 1538.64 1062.86Z" fill="#263238" stroke="#263238" stroke-width="1.11106" stroke-linecap="round" stroke-linejoin="round"/>
<path d="M1496.5 1086.58C1496.5 1086.58 1514.56 1104.64 1518 1130.59C1518 1130.59 1516.88 1136.23 1524.78 1136.23C1537.48 1136.22 1550.07 1133.9 1561.94 1129.37" stroke="#263238" stroke-width="1.11106" stroke-linecap="round" stroke-linejoin="round"/>
<path d="M1567.26 1079.61C1567.26 1079.61 1566.45 1082 1549.54 1089.98C1539.25 1094.74 1528.13 1097.43 1516.81 1097.88" fill="#92E3A9"/>
<path d="M682.032 1103.66C682.032 1103.66 689.749 1094.49 715.696 1106.89C725.576 1111.74 736.004 1115.39 746.755 1117.76" stroke="#263238" stroke-width="1.11106" stroke-linecap="round" stroke-linejoin="round"/>
<path d="M687.503 1165.57C703.865 1168.68 720.495 1170.16 737.15 1169.99C737.15 1169.99 732.634 1122.59 769.857 1086.37" stroke="#263238" stroke-width="1.11106" stroke-linecap="round" stroke-linejoin="round"/>
<mask id="path-37-inside-1_1263_971" fill="white">
<path d="M1857.96 1618.44C1857.96 1618.82 1469.65 1619.1 990.812 1619.1C511.973 1619.1 123.664 1618.82 123.664 1618.44C123.664 1618.06 511.897 1617.78 990.939 1617.78C1469.98 1617.78 1857.96 1618.08 1857.96 1618.44Z"/>
</mask>
<path d="M1857.96 1618.44C1857.96 1618.82 1469.65 1619.1 990.812 1619.1C511.973 1619.1 123.664 1618.82 123.664 1618.44C123.664 1618.06 511.897 1617.78 990.939 1617.78C1469.98 1617.78 1857.96 1618.08 1857.96 1618.44Z" fill="#263238"/>
<path d="M1848.33 1618.44C1849.77 1613.39 1854.6 1609.42 1855.61 1609.11C1855.98 1609.02 1856.55 1608.92 1856.74 1608.89C1857.04 1608.86 1857.26 1608.84 1857.28 1608.84C1857.39 1608.83 1857.45 1608.83 1857.37 1608.84C1857.26 1608.84 1857.04 1608.84 1856.68 1608.85C1855.97 1608.86 1854.88 1608.87 1853.41 1608.88C1850.47 1608.91 1846.08 1608.93 1840.3 1608.95C1828.76 1609 1811.73 1609.04 1789.79 1609.08C1745.91 1609.16 1682.41 1609.23 1603.94 1609.29C1447.01 1609.4 1230.23 1609.47 990.812 1609.47V1628.73C1230.23 1628.73 1447.02 1628.66 1603.96 1628.54C1682.42 1628.48 1745.93 1628.41 1789.82 1628.33C1811.77 1628.29 1828.81 1628.25 1840.38 1628.2C1846.15 1628.18 1850.58 1628.16 1853.56 1628.14C1855.04 1628.12 1856.19 1628.11 1856.98 1628.1C1857.37 1628.09 1857.71 1628.09 1857.98 1628.08C1858.09 1628.08 1858.29 1628.07 1858.49 1628.06C1858.56 1628.05 1858.82 1628.04 1859.14 1628C1859.34 1627.97 1859.92 1627.86 1860.3 1627.78C1861.31 1627.46 1866.15 1623.49 1867.59 1618.44H1848.33ZM990.812 1609.47C751.394 1609.47 534.61 1609.4 377.681 1609.29C299.216 1609.23 235.717 1609.16 191.837 1609.08C169.895 1609.04 152.864 1609 141.321 1608.95C135.548 1608.93 131.158 1608.91 128.217 1608.88C126.742 1608.87 125.653 1608.86 124.943 1608.85C124.58 1608.84 124.359 1608.84 124.249 1608.84C124.177 1608.83 124.229 1608.83 124.338 1608.84C124.36 1608.84 124.586 1608.86 124.882 1608.89C125.072 1608.92 125.642 1609.02 126.015 1609.11C127.021 1609.42 131.858 1613.39 133.29 1618.44H114.038C115.47 1623.49 120.31 1627.46 121.322 1627.78C121.701 1627.86 122.28 1627.97 122.482 1628C122.801 1628.04 123.063 1628.05 123.132 1628.06C123.335 1628.07 123.529 1628.08 123.646 1628.08C123.912 1628.09 124.256 1628.09 124.642 1628.1C125.431 1628.11 126.581 1628.12 128.067 1628.14C131.048 1628.16 135.468 1628.18 141.248 1628.2C152.811 1628.25 169.857 1628.29 191.802 1628.33C235.693 1628.41 299.199 1628.48 377.666 1628.54C534.601 1628.66 751.391 1628.73 990.812 1628.73V1609.47ZM133.29 1618.44C131.858 1623.49 127.022 1627.46 126.016 1627.77C125.642 1627.86 125.072 1627.96 124.882 1627.99C124.586 1628.02 124.36 1628.04 124.338 1628.04C124.229 1628.04 124.177 1628.05 124.249 1628.04C124.359 1628.04 124.58 1628.03 124.943 1628.03C125.653 1628.02 126.741 1628.01 128.216 1628C131.157 1627.97 135.546 1627.95 141.318 1627.93C152.86 1627.88 169.889 1627.84 191.828 1627.8C235.705 1627.72 299.2 1627.65 377.668 1627.59C534.603 1627.47 751.419 1627.4 990.939 1627.4V1608.15C751.416 1608.15 534.595 1608.22 377.653 1608.34C299.183 1608.4 235.68 1608.47 191.793 1608.55C169.85 1608.59 152.806 1608.63 141.245 1608.68C135.466 1608.7 131.046 1608.72 128.066 1608.74C126.58 1608.75 125.43 1608.77 124.642 1608.78C124.256 1608.79 123.912 1608.79 123.646 1608.8C123.529 1608.8 123.335 1608.81 123.132 1608.82C123.062 1608.83 122.801 1608.84 122.481 1608.88C122.28 1608.91 121.701 1609.01 121.321 1609.1C120.31 1609.42 115.47 1613.39 114.038 1618.44H133.29ZM990.939 1627.4C1230.46 1627.4 1447.21 1627.48 1604.08 1627.6C1682.52 1627.66 1745.98 1627.73 1789.84 1627.81C1811.76 1627.85 1828.78 1627.89 1840.32 1627.94C1846.09 1627.96 1850.47 1627.98 1853.41 1628C1854.89 1628.01 1855.98 1628.02 1856.69 1628.03C1857.05 1628.04 1857.28 1628.04 1857.39 1628.04C1857.47 1628.05 1857.42 1628.05 1857.32 1628.04C1857.3 1628.04 1857.09 1628.03 1856.82 1628C1856.64 1627.97 1856.1 1627.88 1855.75 1627.81C1854.79 1627.53 1849.83 1623.6 1848.33 1618.44H1867.59C1866.08 1613.28 1861.12 1609.35 1860.16 1609.07C1859.8 1608.99 1859.25 1608.9 1859.06 1608.87C1858.76 1608.84 1858.52 1608.83 1858.45 1608.82C1858.26 1608.81 1858.07 1608.8 1857.96 1608.8C1857.7 1608.79 1857.36 1608.79 1856.97 1608.78C1856.19 1608.77 1855.04 1608.76 1853.56 1608.75C1850.58 1608.73 1846.16 1608.7 1840.39 1608.68C1828.83 1608.64 1811.8 1608.6 1789.87 1608.56C1746.01 1608.48 1682.54 1608.41 1604.1 1608.35C1447.22 1608.23 1230.46 1608.15 990.939 1608.15V1627.4Z" fill="black" mask="url(#path-37-inside-1_1263_971)"/>
<path d="M315.83 1241.12H1586.69V1366.4H315.83V1241.12Z" fill="#92E3A9" stroke="black" stroke-width="1.92524"/>
<g opacity="0.4">
<path d="M315.831 1241.12H1586.69V1366.4H315.831V1241.12Z" fill="black" stroke="black" stroke-width="1.92524"/>
</g>
<path d="M937.159 1384.38H1310.93V1500.25H937.159V1384.38Z" fill="#455A64" stroke="black" stroke-width="1.92524"/>
<path d="M853.364 1410.37H852.859L852.572 1410.78L801.44 1484.89H674.618V1331.09H1789.1V1410.37H853.364Z" fill="#263238" stroke="black" stroke-width="1.92524"/>
<path d="M675.959 1037.81V1322.49H460.153C440.55 1322.49 421.407 1328.43 405.247 1339.52C389.087 1350.62 376.668 1366.35 369.629 1384.64L369.629 1384.65L348.026 1440.89H131.434L118.263 1269.67C117.722 1237.17 122.507 1171.72 130.416 1140.31L130.416 1140.31C135.065 1121.81 148.929 1094.37 164.315 1067.36C179.682 1040.39 196.502 1013.97 206.992 997.543L206.992 997.543C208.837 994.653 210.731 991.676 212.668 988.63C226.104 967.501 241.664 943.035 258.044 921.201C276.813 896.184 296.541 874.794 315.255 865.791C327.476 859.917 351.655 854.781 381.994 850.366C412.285 845.957 448.575 842.284 484.917 839.288C557.595 833.296 630.428 830.015 655.778 828.969C658.031 828.884 660.228 829.688 661.896 831.206C663.564 832.725 664.569 834.837 664.696 837.089L675.959 1037.81Z" fill="#92E3A9" stroke="black" stroke-width="1.92524"/>
<path d="M206.993 997.543L206.995 997.54C208.239 995.579 209.505 993.579 210.792 991.546C231.688 958.542 258.164 916.723 284.844 889.432C283.835 890.977 282.662 892.646 281.339 894.45C278.787 897.928 275.712 901.859 272.233 906.304C271.37 907.407 270.483 908.542 269.572 909.709C260.419 921.439 249.014 936.384 237.463 955.248C199.531 1016.99 179.018 1056.06 167.387 1080.9C161.571 1093.33 157.976 1102.19 155.536 1108.54C154.726 1110.65 154.048 1112.47 153.461 1114.05C152.265 1117.26 151.448 1119.45 150.664 1121.01C149.213 1123.89 146.084 1126.29 142.351 1128.21C139.268 1129.81 135.875 1131.03 132.925 1131.92C132.967 1131.79 133.01 1131.67 133.055 1131.54L133.055 1131.54L133.059 1131.53C139.747 1112.11 153.355 1086.23 167.752 1061.37C182.14 1036.52 197.277 1012.75 206.993 997.543Z" fill="#455A64" stroke="black" stroke-width="1.92524"/>
<path d="M439.59 880.752C481.603 876.645 525.764 873.78 553.646 872.189C557.206 871.99 560.77 872.519 564.119 873.745C567.468 874.971 570.531 876.867 573.122 879.318C575.713 881.769 577.776 884.723 579.185 887.999C580.595 891.275 581.321 894.804 581.319 898.37V898.371V1028.7C581.318 1034.6 579.514 1040.36 576.148 1045.21C572.781 1050.06 568.014 1053.76 562.484 1055.82L303.7 1152.3C300.311 1153.55 296.726 1154.19 293.114 1154.19H194.72C194.2 1154.19 193.689 1154.06 193.227 1153.83C192.765 1153.59 192.366 1153.24 192.063 1152.82C191.761 1152.4 191.562 1151.91 191.485 1151.4C191.408 1150.89 191.452 1150.38 191.611 1149.89L229.655 1052.49C229.78 1052.21 230.01 1051.69 230.341 1050.94C233.73 1043.22 247.644 1011.55 266.473 978.701C276.833 960.628 288.665 942.229 301.032 927.287C313.422 912.315 326.248 900.94 338.567 896.731C357.76 890.21 397.531 884.864 439.59 880.752Z" fill="#263238" stroke="black" stroke-width="1.92524"/>
<path d="M251.282 1037.41L251.282 1037.41C260.529 1017.2 275.951 986.425 292.7 959.605C301.076 946.193 309.768 933.794 318.171 924.203C326.605 914.577 334.632 907.916 341.658 905.771C354.997 901.771 380.938 897.314 417.183 893.08C453.4 888.848 499.846 884.845 554.163 881.736H555.165C559.578 881.751 563.805 883.512 566.923 886.635C570.041 889.758 571.795 893.989 571.803 898.402V1031.67C571.793 1034.76 570.844 1037.78 569.082 1040.31C567.341 1042.82 564.888 1044.75 562.042 1045.84L370.955 1069.42C363.152 1070.38 355.651 1073.03 348.975 1077.18C342.298 1081.33 336.605 1086.89 332.291 1093.46L332.291 1093.46L299.334 1143.72C297.584 1144.33 295.742 1144.65 293.886 1144.65L203.165 1144.62L204.151 1142.41C205.172 1140.12 206.644 1136.82 208.449 1132.78C212.058 1124.69 216.999 1113.63 222.323 1101.74C232.971 1077.94 245.15 1050.8 251.282 1037.41Z" fill="#455A64" stroke="black" stroke-width="1.92524"/>
<path d="M342.996 902.149L325.431 1078.73L325.431 1078.74C325.332 1079.79 325.506 1080.86 325.938 1081.83C326.369 1082.8 327.042 1083.65 327.893 1084.28C328.744 1084.92 329.745 1085.33 330.798 1085.47C331.852 1085.61 332.924 1085.47 333.911 1085.08L333.915 1085.08L360.644 1074.28L300.559 1141.2L335.968 904.566L342.996 902.149Z" fill="#263238" stroke="black" stroke-width="1.92524"/>
<path d="M113.991 1286.35C113.991 1286.35 113.991 1286.35 113.991 1286.35C113.885 1284.9 114.084 1283.63 114.449 1282.76C114.837 1281.83 115.26 1281.65 115.467 1281.65H115.512L115.556 1281.65L150.408 1278.44L150.408 1278.44L150.416 1278.44C150.793 1278.4 151.245 1278.54 151.771 1278.99C152.302 1279.45 152.846 1280.18 153.345 1281.16C154.341 1283.13 155.068 1285.94 155.234 1289L155.235 1289L156.811 1315.74L156.811 1315.74C156.934 1317.79 156.684 1319.65 156.215 1320.99C155.98 1321.66 155.703 1322.17 155.422 1322.51C155.141 1322.85 154.905 1322.96 154.743 1322.99L154.742 1322.99L119.202 1329.13L119.196 1329.13C118.97 1329.17 118.506 1329.05 117.967 1328.22C117.456 1327.43 117.049 1326.21 116.943 1324.76L116.943 1324.76L113.991 1286.35Z" fill="#EBEBEB" stroke="black" stroke-width="1.92524"/>
<path d="M113.965 1412.32H363.173V1511.09H113.965V1412.32Z" fill="#263238" stroke="black" stroke-width="1.92524"/>
<path d="M662.843 1474.67C665.735 1549.97 607.038 1613.36 531.739 1616.25C456.44 1619.15 393.053 1560.45 390.16 1485.15C387.268 1409.85 445.965 1346.46 521.264 1343.57C596.563 1340.68 659.95 1399.37 662.843 1474.67Z" fill="#263238" stroke="black" stroke-width="1.92524"/>
<path d="M428.807 1574.86C403.732 1549.09 389.852 1514.46 390.171 1478.52L663.022 1482.47C662.299 1518.4 647.429 1552.6 621.629 1577.64C595.681 1602.82 560.798 1616.67 524.644 1616.15C488.489 1615.63 454.019 1600.78 428.807 1574.86Z" fill="#263238" stroke="black" stroke-width="1.92524"/>
<path d="M446.392 1531.8C436.128 1515.94 430.799 1497.39 431.078 1478.5C431.451 1453.18 441.866 1429.04 460.033 1411.39C478.199 1393.75 502.63 1384.04 527.952 1384.41C546.843 1384.68 565.228 1390.54 580.783 1401.27C596.339 1411.99 608.365 1427.08 615.342 1444.64C622.318 1462.19 623.931 1481.43 619.977 1499.9C616.023 1518.37 606.679 1535.26 593.127 1548.42C579.575 1561.58 562.424 1570.43 543.843 1573.85C525.262 1577.26 506.086 1575.09 488.739 1567.61C471.393 1560.12 456.656 1547.66 446.392 1531.8Z" fill="#FAFAFA" stroke="black" stroke-width="1.92524"/>
<path d="M460.033 1411.39C478.199 1393.75 502.63 1384.04 527.952 1384.41L527.953 1384.41C553.288 1384.78 577.437 1395.2 595.088 1413.38C612.515 1431.33 622.199 1455.38 622.084 1480.37L431.097 1477.54C431.717 1452.57 442.097 1428.82 460.033 1411.39Z" fill="#E0E0E0" stroke="black" stroke-width="1.92524"/>
<path d="M478.071 1511.29C471.859 1501.7 468.632 1490.47 468.798 1479.04C469.021 1463.72 475.32 1449.11 486.312 1438.43C497.303 1427.75 512.086 1421.88 527.409 1422.1C538.839 1422.26 549.964 1425.81 559.378 1432.29C568.791 1438.78 576.069 1447.91 580.292 1458.53C584.514 1469.16 585.492 1480.79 583.101 1491.97C580.711 1503.15 575.058 1513.37 566.86 1521.33C558.661 1529.3 548.284 1534.66 537.042 1536.72C525.799 1538.79 514.196 1537.48 503.699 1532.95C493.202 1528.43 484.284 1520.89 478.071 1511.29Z" fill="#263238" stroke="black" stroke-width="1.92524"/>
<path d="M248.859 959.467H260.066C272.166 959.467 281.976 969.276 281.976 981.376V1072.32C281.976 1084.42 272.166 1094.23 260.066 1094.23H248.859C236.759 1094.23 226.95 1084.42 226.95 1072.32V981.376C226.95 969.276 236.759 959.467 248.859 959.467Z" fill="#263238" stroke="black" stroke-width="1.92524"/>
<path d="M225.557 1010.11H231.473V1011.05L225.557 1011.05L225.556 1011.05C219.169 1011.06 213.045 1013.6 208.529 1018.12C204.013 1022.63 201.472 1028.76 201.464 1035.14V1035.15V1178.72H200.523V1035.15C200.531 1028.51 203.171 1022.15 207.864 1017.45C212.557 1012.76 218.92 1010.12 225.557 1010.11Z" fill="#263238" stroke="black" stroke-width="1.92524"/>
<path d="M215.883 1044.6L215.883 1044.6L223.794 1178.8L222.851 1178.85L214.94 1044.67C214.94 1044.67 214.939 1044.67 214.939 1044.67C214.834 1042.49 215.17 1040.31 215.926 1038.26C216.682 1036.21 217.845 1034.34 219.343 1032.75C220.841 1031.16 222.644 1029.89 224.644 1029.01C226.347 1028.27 228.163 1027.82 230.012 1027.69V1028.62C228.282 1028.74 226.581 1029.14 224.984 1029.83C223.093 1030.65 221.388 1031.84 219.975 1033.34C218.562 1034.84 217.47 1036.61 216.767 1038.55C216.063 1040.49 215.762 1042.55 215.883 1044.6Z" fill="#263238" stroke="black" stroke-width="1.92524"/>
<path d="M193.301 1167.64H230.012V1210.45H193.301V1167.64Z" fill="#263238" stroke="black" stroke-width="1.92524"/>
<path d="M201.957 1082.71H215.738V1083.65H201.957V1082.71Z" fill="#263238" stroke="black" stroke-width="1.92524"/>
<path d="M352.942 1398.46V1396.4V1396.38L352.943 1396.35L353.173 1391.45L353.173 1391.44L353.178 1391.36L352.942 1398.46ZM352.942 1398.46L352.908 1398.41L352.902 1398.4V1398.42V1398.83M352.942 1398.46L352.902 1398.83M352.902 1398.83C352.85 1398.89 352.798 1398.94 352.75 1398.99H352.333M352.333 1398.99H352.185H352.333ZM353.316 1389L353.18 1391.32L353.663 1386.52L353.324 1388.93L353.319 1388.96L353.316 1389ZM353.668 1386.49L353.664 1386.52L356.632 1371.94C355.698 1375.11 354.958 1378.33 354.417 1381.59L354.415 1381.61L353.67 1386.48L353.668 1386.49ZM356.646 1371.89C356.644 1371.9 356.642 1371.91 356.639 1371.91L359.772 1362.5C358.535 1365.56 357.491 1368.7 356.646 1371.89ZM359.802 1362.42C359.794 1362.44 359.786 1362.46 359.778 1362.48L465.152 1297.31C456.68 1297.06 448.202 1297.48 439.795 1298.57L439.782 1298.57C421.972 1301.13 405.17 1308.4 391.109 1319.63C377.051 1330.85 366.243 1345.63 359.802 1362.42ZM465.73 1297.33C465.543 1297.32 465.356 1297.31 465.17 1297.31L592.657 855.646C592.896 855.769 593.133 855.895 593.369 856.022C600.968 860.252 607.129 866.657 611.059 874.415L611.061 874.419C613.092 878.38 614.464 882.646 615.122 887.049L615.123 887.057C615.476 889.286 615.673 891.537 615.713 893.793V900.693V900.91V901.127V901.344V901.561V901.778V901.995V902.212V902.429V902.647V902.864V903.082V903.299V903.517V903.734V903.952V904.17V904.388V904.605V904.823V905.041V905.26V905.478V905.696V905.914V906.133V906.351V906.569V906.788V907.006V907.225V907.444V907.663V907.881V908.1V908.319V908.538V908.757V908.976V909.196V909.415V909.634V909.854V910.073V910.293V910.512V910.732V910.951V911.171V911.391V911.611V911.831V912.051V912.271V912.491V912.711V912.931V913.152V913.372V913.593V913.813V914.034V914.254V914.475V914.696V914.916V915.137V915.358V915.579V915.8V916.021V916.243V916.464V916.685V916.906V917.128V917.349V917.571V917.792V918.014V918.236V918.458V918.679V918.901V919.123V919.345V919.567V919.789V920.012V920.234V920.456V920.679V920.901V921.124V921.346V921.569V921.792V922.014V922.237V922.46V922.683V922.906V923.129V923.352V923.575V923.799V924.022V924.245V924.469V924.692V924.916V925.139V925.363V925.587V925.81V926.034V926.258V926.482V926.706V926.93V927.154V927.379V927.603V927.827V928.052V928.276V928.501V928.725V928.95V929.174V929.399V929.624V929.849V930.074V930.299V930.524V930.749V930.974V931.199V931.425V931.65V931.875V932.101V932.326V932.552V932.778V933.003V933.229V933.455V933.681V933.907V934.133V934.359V934.585V934.811V935.038V935.264V935.49V935.717V935.943V936.17V936.396V936.623V936.85V937.077V937.303V937.53V937.757V937.984V938.211V938.439V938.666V938.893V939.12V939.348V939.575V939.803V940.03V940.258V940.486V940.713V940.941V941.169V941.397V941.625V941.853V942.081V942.309V942.538V942.766V942.994V943.223V943.451V943.68V943.908V944.137V944.365V944.594V944.823V945.052V945.281V945.51V945.739V945.968V946.197V946.426V946.656V946.885V947.114V947.344V947.573V947.803V948.033V948.262V948.492V948.722V948.952V949.182V949.412V949.642V949.872V950.102V950.332V950.563V950.793V951.023V951.254V951.484V951.715V951.946V952.176V952.407V952.638V952.869V953.1V953.331V953.562V953.793V954.024V954.255V954.487V954.718V954.95V955.181V955.413V955.644V955.876V956.107V956.339V956.571V956.803V957.035V957.267V957.499V957.731V957.963V958.195V958.428V958.66V958.893V959.125V959.357V959.59V959.823V960.055V960.288V960.521V960.754V960.987V961.22V961.453V961.686V961.919V962.152V962.386V962.619V962.852V963.086V963.319V963.553V963.786V964.02V964.254V964.488V964.722V964.956V965.189V965.424V965.658V965.892V966.126V966.36V966.595V966.829V967.063V967.298V967.532V967.767V968.002V968.236V968.471V968.706V968.941V969.176V969.411V969.646V969.881V970.116V970.352V970.587V970.822V971.058V971.293V971.529V971.764V972V972.236V972.471V972.707V972.943V973.179V973.415V973.651V973.887V974.123V974.36V974.596V974.832V975.069V975.305V975.542V975.778V976.015V976.251V976.488V976.725V976.962V977.199V977.436V977.673V977.91V978.147V978.384V978.621V978.859V979.096V979.334V979.571V979.809V980.046V980.284V980.522V980.759V980.997V981.235V981.473V981.711V981.949V982.187V982.425V982.663V982.902V983.14V983.378V983.617V983.855V984.094V984.333V984.571V984.81V985.049V985.288V985.527V985.766V986.005V986.244V986.483V986.722V986.961V987.2V987.44V987.679V987.919V988.158V988.398V988.637V988.877V989.117V989.357V989.597V989.836V990.076V990.316V990.557V990.797V991.037V991.277V991.517V991.758V991.998V992.239V992.479V992.72V992.96V993.201V993.442V993.683V993.924V994.165V994.406V994.647V994.888V995.129V995.37V995.611V995.853V996.094V996.335V996.577V996.819V997.06V997.302V997.543V997.785V998.027V998.269V998.511V998.753V998.995V999.237V999.479V999.721V999.964V1000.21V1000.45V1000.69V1000.93V1001.18V1001.42V1001.66V1001.9V1002.15V1002.39V1002.63V1002.88V1003.12V1003.36V1003.6V1003.85V1004.09V1004.33V1004.58V1004.82V1005.06V1005.31V1005.55V1005.79V1006.04V1006.28V1006.53V1006.77V1007.01V1007.26V1007.5V1007.75V1007.99V1008.23V1008.48V1008.72V1008.97V1009.21V1009.46V1009.7V1009.94V1010.19V1010.43V1010.68V1010.92V1011.17V1011.41V1011.66V1011.9V1012.15V1012.39V1012.64V1012.88V1013.13V1013.37V1013.62V1013.86V1014.11V1014.36V1014.6V1014.85V1015.09V1015.34V1015.58V1015.83V1016.08V1016.32V1016.57V1016.81V1017.06V1017.31V1017.55V1017.8V1018.05V1018.29V1018.54V1018.78V1019.03V1019.28V1019.52V1020.02V1020.51V1021.01V1021.5V1021.99V1022.49V1022.98V1023.48V1023.97V1024.47V1024.96V1025.46V1025.96V1026.45V1026.95V1027.45V1027.94V1028.44V1028.94V1029.44V1029.93V1030.43V1030.93V1031.43V1031.93V1032.43V1032.92V1033.42V1033.92V1034.42V1034.92V1035.42V1035.92V1036.42V1036.93V1037.43V1037.93V1038.43V1038.93V1039.43V1039.93V1040.44V1040.94V1041.44V1041.94V1042.45V1042.95V1043.45V1043.96V1044.46V1044.97V1045.47V1045.98V1046.48V1046.99V1047.49V1048V1048.5V1049.01V1049.51V1050.02V1050.53V1051.03V1051.54V1052.05V1052.55V1053.06V1053.57V1054.08V1054.59V1055.09V1055.6V1056.11V1056.62V1057.13V1057.64V1058.15V1058.66V1059.17V1059.68V1060.19V1060.7V1061.21V1061.72V1062.23V1062.74V1063.26V1063.77V1064.28V1064.79V1065.3V1065.82V1066.33V1066.84V1067.36V1067.87V1068.38V1068.9V1069.41V1069.93V1070.44V1070.95V1071.47V1071.98V1072.5V1073.02V1073.53V1074.05V1074.56V1075.08V1075.6V1076.11V1076.63V1077.15V1077.66V1078.18V1078.7V1079.22V1079.74V1080.25V1080.77V1081.29V1081.81V1082.33V1082.85V1083.37V1083.89V1084.41V1084.93V1085.45V1085.97V1086.49V1087.01V1087.53V1088.05V1088.57V1089.1V1089.62V1090.14V1090.66V1091.18V1091.71V1092.23V1092.75V1093.28V1093.8V1094.32V1094.85V1095.37V1095.9V1096.42V1096.95V1097.47V1098V1098.52V1099.05V1099.57V1100.1V1100.62V1101.15V1101.68V1102.2V1102.73V1103.26V1103.78V1104.31V1104.84V1105.37V1105.89V1106.42V1106.95V1107.48V1108.01V1108.54V1109.07V1109.6V1110.13V1110.66V1111.19V1111.72V1112.25V1112.78V1113.31V1113.84V1114.37V1114.9V1115.43V1115.96V1116.49V1117.03V1117.56V1118.09V1118.62V1119.16V1119.69V1120.22V1120.76V1121.29V1121.82V1122.36V1122.89V1123.43V1123.96V1124.5V1125.03V1125.57V1126.1V1126.64V1127.17V1127.71V1128.24V1128.78V1129.32V1129.85V1130.39V1130.93V1131.46V1132V1132.54V1133.08V1133.61V1134.15V1134.69V1135.23V1135.77V1136.31V1136.85V1137.38V1137.92V1138.46V1139V1139.54V1140.08V1140.62V1141.16V1141.71V1142.25V1142.79V1143.33V1143.87V1144.41V1144.95V1145.5V1146.04V1146.58V1147.12V1147.67V1148.21V1148.75V1149.29V1149.84V1150.38V1150.93V1151.47V1152.01V1152.56V1153.1V1153.65V1154.19V1154.74V1155.28V1155.83V1156.37V1156.92V1157.47V1158.01V1158.56V1159.1V1159.65V1160.2V1160.75V1161.29V1161.84V1162.39V1162.94V1163.48V1164.03V1164.58V1165.13V1165.68V1166.23V1166.78V1167.32V1167.87V1168.42V1168.97V1169.52V1170.07V1170.62V1171.17V1171.72V1172.28V1172.83V1173.38V1173.93V1174.48V1175.03V1175.58V1176.14V1176.69V1177.24V1177.79V1178.35V1178.9V1179.45V1180.01V1180.56V1181.11V1181.67V1182.22V1182.78V1183.33V1183.88V1184.44V1184.99V1185.55V1186.1V1186.66V1187.22V1187.77V1188.33V1188.88V1189.44V1190V1190.55V1191.11V1191.67V1192.22V1192.78V1193.34V1193.9V1194.45V1195.01V1195.57V1196.13V1196.69V1197.25V1197.8V1198.36V1198.92V1199.48V1200.04V1200.6V1201.16V1201.72V1202.28V1202.84V1203.4V1203.96V1204.52V1205.09V1205.65V1206.21V1206.77V1207.33V1207.89V1208.46V1209.02V1209.58V1210.14V1210.71V1211.27V1211.83V1212.4V1212.96V1213.52V1214.09V1214.65V1215.21V1215.78V1216.34V1216.91V1217.47V1218.04V1218.6V1219.17V1219.73V1220.3V1220.86V1221.43V1222V1222.56V1223.13V1223.7V1224.26V1224.83V1225.4V1225.96V1226.53V1227.1V1227.67V1228.24V1228.8V1229.37V1229.94V1230.51V1231.08V1231.65V1232.22V1232.78V1233.35V1233.92V1234.49V1235.06V1235.63V1236.2V1236.77V1237.34V1237.92V1238.49V1239.06V1239.63V1240.2V1240.77V1241.34V1241.92V1242.49V1243.06V1243.63V1244.2V1244.78V1245.35V1245.92V1246.5V1247.07V1247.64V1248.22V1248.79V1249.36V1249.94V1250.51V1251.09V1251.66V1252.24V1252.81V1253.39V1253.96V1254.54V1255.11V1255.69V1256.26V1256.84V1257.42V1257.99V1258.57V1259.14V1259.72V1260.3V1260.88V1261.45V1262.03V1262.61V1263.19V1263.76V1264.34V1264.92V1265.5V1266.08V1266.66V1267.23V1267.81V1268.39V1268.97V1269.55V1270.13V1270.71V1271.29V1271.87V1272.45V1273.03V1273.61V1274.19V1274.77V1275.35V1275.93V1276.52V1277.1V1277.68V1278.26V1278.84V1279.42V1280.01V1280.59V1281.17V1281.75V1282.34V1282.92V1283.5V1284.09V1284.67V1285.25V1285.84V1286.42V1287.01V1287.59V1288.17V1288.76V1289.34V1289.93V1290.51V1291.1V1291.68V1292.27V1292.85V1293.44V1294.03V1294.61V1295.2V1295.78H615.443V1296.74L615.713 1297.02V1297.33H614.835H614.698H465.73ZM581.673 851.589C585.488 852.483 589.177 853.845 592.656 855.645L580.852 851.428C581.126 851.479 581.4 851.533 581.673 851.589Z" fill="#263238" stroke="black" stroke-width="1.92524"/>
<path d="M508.935 1159.69C507.566 1159.69 506.215 1159.88 504.913 1160.22C506.213 1159.86 507.566 1159.67 508.937 1159.67H552.273H571.18C571.879 1159.68 572.573 1159.75 573.257 1159.86C572.579 1159.76 571.893 1159.7 571.203 1159.69V1159.69H571.189H552.273L508.936 1159.69L508.935 1159.69Z" fill="#263238" stroke="black" stroke-width="1.92524"/>
<mask id="path-62-inside-2_1263_971" fill="white">
<path d="M565.685 1155.87C557.518 1156.59 549.317 1156.83 541.122 1156.59C532.918 1156.83 524.706 1156.59 516.53 1155.87C524.705 1155.13 532.917 1154.88 541.122 1155.12C549.317 1154.88 557.52 1155.13 565.685 1155.87Z"/>
</mask>
<path d="M565.685 1155.87C557.518 1156.59 549.317 1156.83 541.122 1156.59C532.918 1156.83 524.706 1156.59 516.53 1155.87C524.705 1155.13 532.917 1154.88 541.122 1155.12C549.317 1154.88 557.52 1155.13 565.685 1155.87Z" fill="white"/>
<path d="M565.685 1155.87L565.854 1157.79L565.858 1153.95L565.685 1155.87ZM541.122 1156.59L541.179 1154.66L541.122 1154.66L541.065 1154.66L541.122 1156.59ZM516.53 1155.87L516.357 1153.95L516.362 1157.79L516.53 1155.87ZM541.122 1155.12L541.065 1157.05L541.122 1157.05L541.179 1157.05L541.122 1155.12ZM565.516 1153.95C557.425 1154.66 549.298 1154.9 541.179 1154.66L541.065 1158.51C549.335 1158.75 557.612 1158.51 565.854 1157.79L565.516 1153.95ZM541.065 1154.66C532.936 1154.9 524.8 1154.66 516.699 1153.95L516.362 1157.79C524.613 1158.51 532.899 1158.75 541.179 1158.51L541.065 1154.66ZM516.703 1157.79C524.802 1157.06 532.937 1156.81 541.065 1157.05L541.179 1153.2C532.897 1152.96 524.609 1153.21 516.357 1153.95L516.703 1157.79ZM541.179 1157.05C549.297 1156.81 557.423 1157.06 565.512 1157.79L565.858 1153.95C557.616 1153.21 549.337 1152.96 541.065 1153.2L541.179 1157.05Z" fill="black" mask="url(#path-62-inside-2_1263_971)"/>
<path d="M353.674 1510.33C356.655 1469.73 360.32 1437.28 364.726 1412.6C369.175 1387.7 374.36 1370.84 380.283 1361.55L380.283 1361.55C391.796 1343.45 403.233 1332.82 414.904 1326.18C426.586 1319.52 438.572 1316.82 451.286 1314.66L451.287 1314.66C474.903 1310.64 498.736 1311.57 521.909 1312.52L521.91 1312.52L527.642 1312.75L527.643 1312.75C572.043 1314.48 661.564 1313.17 675.021 1312.97C675.307 1312.97 675.559 1312.97 675.775 1312.96L676.116 1333.97C675.908 1333.97 675.668 1333.97 675.398 1333.98C661.916 1334.18 571.869 1335.51 526.916 1333.75L521.184 1333.53L521.184 1333.53L520.308 1333.49C498.618 1332.64 476.133 1331.76 454.919 1335.4C443.516 1337.34 433.879 1339.44 424.792 1344.72C415.694 1350 407.231 1358.42 398.036 1372.86C395.168 1377.31 391.164 1387.04 386.953 1408.23C382.763 1429.3 378.354 1461.8 374.683 1511.85L353.674 1510.33Z" fill="#263238" stroke="black" stroke-width="1.92524"/>
<path d="M429.886 997.557C430.832 996.982 431.817 996.383 432.839 995.764C443.243 989.487 457.431 980.688 472.966 970.742C488.5 960.797 502.43 951.568 512.433 944.803C513.662 943.963 514.826 943.162 515.927 942.404M429.886 997.557L528.426 933.511C528.426 933.511 528.082 933.855 527.366 934.399L527.342 934.416L527.338 934.419L524.213 936.664C524.194 936.676 524.176 936.689 524.158 936.702L523.84 936.205L524.151 936.706C523.227 937.344 522.195 938.061 521.053 938.853C519.537 939.906 517.828 941.093 515.927 942.404M429.886 997.557L432.798 995.696L432.798 995.696L432.812 995.687L432.813 995.687L472.623 970.293L472.627 970.29L472.662 970.268L512.292 944.726L512.295 944.724L512.353 944.687L512.432 944.803L512.354 944.687M429.886 997.557L512.354 944.687M515.927 942.404L512.354 944.687M515.927 942.404L512.354 944.687M512.354 944.687L511.894 944.006C511.893 944.006 511.892 944.007 511.892 944.007M512.354 944.687L527.175 934.135L527.365 934.399L527.168 934.139C527.167 934.14 527.166 934.141 527.165 934.141L523.879 936.181L524.213 936.663L523.87 936.186L523.84 936.205L515.394 941.602C514.292 942.362 513.125 943.164 511.892 944.007M511.892 944.007C511.878 944.016 511.865 944.026 511.851 944.035M511.892 944.007L511.851 944.035M511.851 944.035L511.774 943.915L511.85 944.035C501.857 950.793 487.952 960.005 472.447 969.932C472.435 969.939 472.423 969.947 472.411 969.955C472.41 969.955 472.409 969.955 472.409 969.956C456.895 979.888 442.729 988.673 432.342 994.94L432.34 994.941C432.339 994.941 432.338 994.942 432.337 994.943M511.851 944.035L420.248 1002.57L420.252 1002.57L429.378 996.739C430.324 996.164 431.311 995.564 432.337 994.943M432.337 994.943L432.295 994.877L432.337 994.943M432.337 994.943C432.337 994.943 432.337 994.943 432.337 994.943M432.337 994.943L432.337 994.943" fill="#FAFAFA" stroke="black" stroke-width="1.92524"/>
<path d="M379.897 1010.98C380.256 1010.76 380.62 1010.54 380.99 1010.32C381.909 1009.76 382.865 1009.18 383.856 1008.58C394.26 1002.3 408.476 993.329 423.982 983.526C439.488 973.724 453.418 964.524 463.421 957.731C465.717 956.183 467.785 954.76 469.627 953.486M379.897 1010.98C376.523 1013.03 373.701 1014.73 371.566 1015.88L371.525 1015.82L371.512 1015.8L371.245 1015.4M379.897 1010.98L383.794 1008.48L383.794 1008.47L383.799 1008.47M379.897 1010.98L383.799 1008.47M469.627 953.486C470.254 953.053 470.855 952.637 471.429 952.239C472.856 951.25 474.122 950.373 475.229 949.62M469.627 953.486L463.312 957.537L462.91 956.914M469.627 953.486L383.799 1008.47M475.229 949.62L475.241 949.611L474.857 948.989M475.229 949.62L474.818 949.014L474.857 948.989M475.229 949.62L474.802 949.024L469.094 952.685C467.263 953.951 465.208 955.364 462.91 956.914M474.857 948.989L475.251 949.604L478.372 947.362L478.335 947.294L478.101 946.986L474.857 948.989ZM462.91 956.914L462.79 956.728L462.91 956.914M462.91 956.914C462.91 956.914 462.91 956.914 462.91 956.914M462.91 956.914C462.901 956.92 462.892 956.927 462.883 956.933L462.88 956.935C452.885 963.722 438.965 972.916 423.468 982.713C423.45 982.724 423.432 982.735 423.414 982.747C423.413 982.747 423.412 982.748 423.412 982.748C407.925 992.539 393.74 1001.49 383.358 1007.75L383.357 1007.75C383.354 1007.76 383.35 1007.76 383.347 1007.76M462.91 956.914L463.31 957.538L463.296 957.547L463.296 957.547L423.694 983.071L423.644 983.103L423.639 983.106L383.803 1008.47L383.606 1008.16L383.59 1008.14L383.347 1007.76M383.347 1007.76L383.282 1007.66L383.346 1007.76M383.347 1007.76C383.347 1007.76 383.346 1007.76 383.346 1007.76M383.346 1007.76C382.353 1008.36 381.396 1008.94 380.478 1009.5C380.109 1009.73 379.746 1009.95 379.389 1010.16L371.284 1015.37L371.273 1015.38L371.245 1015.4M383.346 1007.76L383.647 1008.23L383.662 1008.26L383.799 1008.47M371.245 1015.4L368.024 1017.54L368.006 1017.55C368.006 1017.55 368.005 1017.55 368.005 1017.55C367.622 1017.78 367.266 1018.06 366.945 1018.38C367.38 1018.25 367.792 1018.06 368.169 1017.81C368.171 1017.81 368.174 1017.81 368.177 1017.81C368.177 1017.81 368.178 1017.81 368.178 1017.81L371.558 1015.89L371.245 1015.4Z" fill="#FAFAFA" stroke="black" stroke-width="1.92524"/>
<mask id="path-67-inside-3_1263_971" fill="white">
<path d="M238.14 1029.9C237.701 1029.12 237.4 1028.26 237.252 1027.38C236.793 1025.74 236.162 1023.34 235.446 1020.36C233.562 1012.57 232.6 1004.58 232.58 996.566C232.539 988.469 234.405 980.477 238.025 973.235C239.158 971.068 240.523 969.031 242.095 967.159C242.626 966.444 243.264 965.815 243.987 965.296C242.158 968.013 240.474 970.826 238.943 973.722C235.676 980.923 234.005 988.745 234.042 996.652C234.128 1004.57 234.983 1012.46 236.592 1020.21C237.309 1023.41 237.826 1026.64 238.14 1029.9V1029.9Z"/>
</mask>
<path d="M238.14 1029.9C237.701 1029.12 237.4 1028.26 237.252 1027.38C236.793 1025.74 236.162 1023.34 235.446 1020.36C233.562 1012.57 232.6 1004.58 232.58 996.566C232.539 988.469 234.405 980.477 238.025 973.235C239.158 971.068 240.523 969.031 242.095 967.159C242.626 966.444 243.264 965.815 243.987 965.296C242.158 968.013 240.474 970.826 238.943 973.722C235.676 980.923 234.005 988.745 234.042 996.652C234.128 1004.57 234.983 1012.46 236.592 1020.21C237.309 1023.41 237.826 1026.64 238.14 1029.9V1029.9Z" fill="#FAFAFA"/>
<path d="M237.252 1027.38L239.15 1027.06L239.133 1026.96L239.105 1026.86L237.252 1027.38ZM235.446 1020.36L237.318 1019.91L237.317 1019.9L235.446 1020.36ZM232.58 996.566L234.505 996.561L234.505 996.556L232.58 996.566ZM238.025 973.235L236.319 972.343L236.311 972.359L236.303 972.374L238.025 973.235ZM242.095 967.159L243.57 968.397L243.607 968.353L243.642 968.306L242.095 967.159ZM243.987 965.296L245.584 966.371L242.864 963.732L243.987 965.296ZM238.943 973.722L237.241 972.823L237.213 972.874L237.189 972.927L238.943 973.722ZM234.042 996.652L232.116 996.661L232.116 996.673L234.042 996.652ZM236.592 1020.21L234.707 1020.6L234.711 1020.62L234.714 1020.63L236.592 1020.21ZM239.819 1028.96C239.489 1028.37 239.262 1027.73 239.15 1027.06L235.353 1027.7C235.538 1028.8 235.913 1029.86 236.461 1030.84L239.819 1028.96ZM239.105 1026.86C238.654 1025.25 238.03 1022.87 237.318 1019.91L233.574 1020.81C234.295 1023.8 234.932 1026.24 235.398 1027.9L239.105 1026.86ZM237.317 1019.9C235.468 1012.26 234.524 1004.42 234.505 996.561L230.655 996.571C230.675 1004.74 231.655 1012.87 233.575 1020.81L237.317 1019.9ZM234.505 996.556C234.466 988.762 236.262 981.068 239.747 974.096L236.303 972.374C232.548 979.886 230.612 988.177 230.655 996.575L234.505 996.556ZM239.732 974.127C240.8 972.084 242.087 970.163 243.57 968.397L240.621 965.921C238.959 967.899 237.517 970.053 236.319 972.343L239.732 974.127ZM243.642 968.306C244.053 967.751 244.549 967.263 245.11 966.86L242.864 963.732C241.979 964.368 241.198 965.137 240.549 966.012L243.642 968.306ZM242.39 964.221C240.522 966.995 238.803 969.866 237.241 972.823L240.645 974.622C242.144 971.786 243.793 969.032 245.584 966.371L242.39 964.221ZM237.189 972.927C233.809 980.381 232.078 988.477 232.116 996.661L235.967 996.643C235.931 989.013 237.544 981.466 240.696 974.518L237.189 972.927ZM232.116 996.673C232.205 1004.71 233.072 1012.73 234.707 1020.6L238.477 1019.82C236.893 1012.19 236.052 1004.42 235.967 996.631L232.116 996.673ZM234.714 1020.63C235.413 1023.75 235.917 1026.91 236.224 1030.08L240.056 1029.71C239.735 1026.38 239.205 1023.06 238.471 1019.79L234.714 1020.63Z" fill="black" mask="url(#path-67-inside-3_1263_971)"/>
<mask id="path-69-inside-4_1263_971" fill="white">
<path d="M121.429 1233.11C121.326 1232.09 121.326 1231.07 121.429 1230.05C121.429 1227.98 121.429 1225 121.601 1221.45C121.831 1214.08 122.375 1203.91 123.264 1192.79C124.152 1181.67 125.213 1171.46 126.13 1164.12C126.588 1160.46 126.99 1157.5 127.305 1155.53C127.413 1154.46 127.634 1153.42 127.964 1152.4C128.108 1153.47 128.108 1154.55 127.964 1155.61L127.219 1164.21C126.588 1171.89 125.729 1181.84 124.783 1192.87C123.837 1203.91 123.264 1213.82 122.719 1221.53C122.461 1224.97 122.232 1227.87 122.06 1230.13C121.973 1231.15 121.761 1232.15 121.429 1233.11V1233.11Z"/>
</mask>
<path d="M121.429 1233.11C121.326 1232.09 121.326 1231.07 121.429 1230.05C121.429 1227.98 121.429 1225 121.601 1221.45C121.831 1214.08 122.375 1203.91 123.264 1192.79C124.152 1181.67 125.213 1171.46 126.13 1164.12C126.588 1160.46 126.99 1157.5 127.305 1155.53C127.413 1154.46 127.634 1153.42 127.964 1152.4C128.108 1153.47 128.108 1154.55 127.964 1155.61L127.219 1164.21C126.588 1171.89 125.729 1181.84 124.783 1192.87C123.837 1203.91 123.264 1213.82 122.719 1221.53C122.461 1224.97 122.232 1227.87 122.06 1230.13C121.973 1231.15 121.761 1232.15 121.429 1233.11V1233.11Z" fill="#FAFAFA"/>
<path d="M121.429 1230.05L123.345 1230.24L123.355 1230.14V1230.05H121.429ZM121.601 1221.45L123.524 1221.54L123.525 1221.52L123.526 1221.51L121.601 1221.45ZM127.305 1155.53L129.206 1155.83L129.215 1155.77L129.22 1155.72L127.305 1155.53ZM127.964 1152.4L129.872 1152.14L126.133 1151.81L127.964 1152.4ZM127.964 1155.61L126.056 1155.35L126.05 1155.4L126.046 1155.45L127.964 1155.61ZM127.219 1164.21L125.301 1164.04L125.3 1164.05L127.219 1164.21ZM122.719 1221.53L124.639 1221.68L124.64 1221.67L122.719 1221.53ZM122.06 1230.13L123.978 1230.3L123.979 1230.29L123.98 1230.28L122.06 1230.13ZM123.345 1232.92C123.254 1232.03 123.254 1231.13 123.345 1230.24L119.514 1229.85C119.397 1231 119.397 1232.16 119.514 1233.31L123.345 1232.92ZM123.355 1230.05C123.355 1227.98 123.355 1225.04 123.524 1221.54L119.678 1221.35C119.504 1224.96 119.504 1227.98 119.504 1230.05H123.355ZM123.526 1221.51C123.754 1214.18 124.296 1204.03 125.183 1192.94L121.345 1192.63C120.454 1203.78 119.907 1213.99 119.677 1221.39L123.526 1221.51ZM125.183 1192.94C126.069 1181.84 127.127 1171.67 128.04 1164.36L124.219 1163.89C123.298 1171.25 122.235 1181.49 121.345 1192.63L125.183 1192.94ZM128.04 1164.36C128.498 1160.7 128.896 1157.77 129.206 1155.83L125.404 1155.22C125.083 1157.23 124.679 1160.21 124.219 1163.89L128.04 1164.36ZM129.22 1155.72C129.314 1154.79 129.507 1153.88 129.795 1153L126.133 1151.81C125.761 1152.95 125.511 1154.13 125.39 1155.33L129.22 1155.72ZM126.056 1152.66C126.177 1153.55 126.177 1154.46 126.056 1155.35L129.872 1155.87C130.039 1154.63 130.039 1153.38 129.872 1152.14L126.056 1152.66ZM126.046 1155.45L125.301 1164.04L129.137 1164.38L129.882 1155.78L126.046 1155.45ZM125.3 1164.05C124.67 1171.73 123.811 1181.67 122.865 1192.71L126.701 1193.04C127.647 1182 128.507 1172.05 129.138 1164.37L125.3 1164.05ZM122.865 1192.71C121.917 1203.76 121.341 1213.72 120.799 1221.4L124.64 1221.67C125.186 1213.93 125.757 1204.05 126.701 1193.04L122.865 1192.71ZM120.799 1221.39C120.541 1224.83 120.313 1227.71 120.14 1229.99L123.98 1230.28C124.151 1228.03 124.381 1225.11 124.639 1221.68L120.799 1221.39ZM120.142 1229.97C120.068 1230.83 119.889 1231.67 119.609 1232.49L123.25 1233.74C123.633 1232.63 123.877 1231.47 123.978 1230.3L120.142 1229.97Z" fill="black" mask="url(#path-69-inside-4_1263_971)"/>
<mask id="path-71-inside-5_1263_971" fill="white">
<path d="M435.533 1288.74C435.533 1289.06 430.001 1289.83 421.431 1292.61C416.415 1294.24 411.521 1296.22 406.785 1298.55C395.182 1304.31 384.684 1312.07 375.773 1321.48C372.135 1325.29 368.773 1329.36 365.713 1333.66C360.525 1341.02 358.089 1346.1 357.831 1345.95C358.257 1344.7 358.794 1343.49 359.436 1342.34C360.077 1340.94 360.805 1339.58 361.614 1338.27C362.532 1336.72 363.535 1334.92 364.853 1333.06C367.821 1328.62 371.137 1324.43 374.77 1320.53C379.274 1315.76 384.173 1311.38 389.416 1307.43C394.708 1303.59 400.328 1300.22 406.212 1297.37C411.018 1295.06 416.002 1293.15 421.116 1291.64C423.266 1290.92 425.301 1290.52 427.049 1290.09C428.552 1289.73 430.074 1289.44 431.606 1289.23C432.897 1288.94 434.212 1288.78 435.533 1288.74V1288.74Z"/>
</mask>
<path d="M435.533 1288.74C435.533 1289.06 430.001 1289.83 421.431 1292.61C416.415 1294.24 411.521 1296.22 406.785 1298.55C395.182 1304.31 384.684 1312.07 375.773 1321.48C372.135 1325.29 368.773 1329.36 365.713 1333.66C360.525 1341.02 358.089 1346.1 357.831 1345.95C358.257 1344.7 358.794 1343.49 359.436 1342.34C360.077 1340.94 360.805 1339.58 361.614 1338.27C362.532 1336.72 363.535 1334.92 364.853 1333.06C367.821 1328.62 371.137 1324.43 374.77 1320.53C379.274 1315.76 384.173 1311.38 389.416 1307.43C394.708 1303.59 400.328 1300.22 406.212 1297.37C411.018 1295.06 416.002 1293.15 421.116 1291.64C423.266 1290.92 425.301 1290.52 427.049 1290.09C428.552 1289.73 430.074 1289.44 431.606 1289.23C432.897 1288.94 434.212 1288.78 435.533 1288.74V1288.74Z" fill="#FAFAFA"/>
<path d="M421.431 1292.61L420.837 1290.78L420.837 1290.78L421.431 1292.61ZM406.785 1298.55L405.938 1296.82L405.929 1296.82L406.785 1298.55ZM375.773 1321.48L377.167 1322.8L377.171 1322.8L375.773 1321.48ZM365.713 1333.66L364.145 1332.54L364.139 1332.55L365.713 1333.66ZM357.831 1345.95L356.009 1345.33L355.489 1346.85L356.896 1347.64L357.831 1345.95ZM359.436 1342.34L361.118 1343.28L361.155 1343.21L361.187 1343.14L359.436 1342.34ZM361.614 1338.27L363.252 1339.28L363.262 1339.27L363.271 1339.25L361.614 1338.27ZM364.853 1333.06L366.425 1334.17L366.439 1334.15L366.453 1334.13L364.853 1333.06ZM374.77 1320.53L373.37 1319.21L373.361 1319.22L374.77 1320.53ZM389.416 1307.43L388.285 1305.87L388.272 1305.88L388.259 1305.89L389.416 1307.43ZM406.212 1297.37L405.379 1295.64L405.372 1295.64L406.212 1297.37ZM421.116 1291.64L421.661 1293.49L421.693 1293.48L421.725 1293.47L421.116 1291.64ZM427.049 1290.09L426.595 1288.22L426.589 1288.22L427.049 1290.09ZM431.606 1289.23L431.866 1291.14L431.946 1291.13L432.026 1291.11L431.606 1289.23ZM433.608 1288.74C433.608 1288.02 433.999 1287.57 434.151 1287.42C434.323 1287.25 434.483 1287.15 434.534 1287.13C434.647 1287.06 434.717 1287.04 434.662 1287.06C434.579 1287.09 434.4 1287.14 434.075 1287.22C433.426 1287.38 432.526 1287.58 431.253 1287.88C428.769 1288.47 425.189 1289.37 420.837 1290.78L422.026 1294.44C426.244 1293.08 429.715 1292.2 432.139 1291.63C433.32 1291.35 434.339 1291.12 434.994 1290.96C435.322 1290.88 435.642 1290.8 435.895 1290.71C436.009 1290.67 436.205 1290.6 436.404 1290.49C436.497 1290.44 436.69 1290.33 436.882 1290.13C437.057 1289.96 437.458 1289.48 437.458 1288.74H433.608ZM420.837 1290.78C415.734 1292.44 410.755 1294.46 405.938 1296.82L407.633 1300.28C412.287 1297.99 417.096 1296.05 422.026 1294.44L420.837 1290.78ZM405.929 1296.82C394.123 1302.69 383.442 1310.58 374.376 1320.15L377.171 1322.8C385.926 1313.56 396.241 1305.93 407.642 1300.27L405.929 1296.82ZM374.38 1320.15C370.678 1324.03 367.258 1328.17 364.145 1332.54L367.281 1334.77C370.287 1330.55 373.591 1326.55 377.167 1322.8L374.38 1320.15ZM364.139 1332.55C361.507 1336.29 359.573 1339.44 358.268 1341.64C357.601 1342.76 357.139 1343.56 356.795 1344.13C356.623 1344.42 356.523 1344.57 356.474 1344.64C356.44 1344.68 356.485 1344.61 356.591 1344.51C356.635 1344.47 356.799 1344.32 357.063 1344.2C357.326 1344.08 358.018 1343.85 358.766 1344.27L356.896 1347.64C357.66 1348.06 358.372 1347.83 358.66 1347.7C358.949 1347.57 359.142 1347.4 359.219 1347.33C359.392 1347.17 359.521 1346.99 359.588 1346.9C359.742 1346.69 359.916 1346.41 360.088 1346.13C360.436 1345.55 360.956 1344.65 361.579 1343.6C362.853 1341.46 364.732 1338.39 367.287 1334.77L364.139 1332.55ZM359.653 1346.57C360.042 1345.43 360.533 1344.33 361.118 1343.28L357.754 1341.41C357.056 1342.66 356.472 1343.97 356.009 1345.33L359.653 1346.57ZM361.187 1343.14C361.795 1341.82 362.485 1340.53 363.252 1339.28L359.977 1337.26C359.125 1338.64 358.36 1340.07 357.686 1341.54L361.187 1343.14ZM363.271 1339.25C364.22 1337.65 365.165 1335.95 366.425 1334.17L363.282 1331.94C361.904 1333.89 360.843 1335.8 359.958 1337.29L363.271 1339.25ZM366.453 1334.13C369.363 1329.78 372.616 1325.67 376.18 1321.84L373.361 1319.22C369.658 1323.2 366.278 1327.47 363.253 1331.98L366.453 1334.13ZM376.17 1321.85C380.599 1317.16 385.417 1312.85 390.574 1308.97L388.259 1305.89C382.929 1309.9 377.948 1314.36 373.37 1319.21L376.17 1321.85ZM390.547 1308.99C395.747 1305.21 401.27 1301.91 407.052 1299.1L405.372 1295.64C399.386 1298.54 393.669 1301.97 388.285 1305.87L390.547 1308.99ZM407.045 1299.11C411.758 1296.84 416.646 1294.96 421.661 1293.49L420.572 1289.79C415.359 1291.33 410.278 1293.28 405.379 1295.64L407.045 1299.11ZM421.725 1293.47C423.776 1292.78 425.654 1292.42 427.509 1291.96L426.589 1288.22C424.948 1288.63 422.755 1289.06 420.507 1289.81L421.725 1293.47ZM427.503 1291.96C428.942 1291.61 430.398 1291.34 431.866 1291.14L431.347 1287.32C429.749 1287.54 428.163 1287.84 426.595 1288.22L427.503 1291.96ZM432.026 1291.11C433.195 1290.85 434.388 1290.7 435.586 1290.67L435.48 1286.82C434.035 1286.86 432.598 1287.04 431.187 1287.35L432.026 1291.11Z" fill="black" mask="url(#path-71-inside-5_1263_971)"/>
<path d="M1677.91 1474.31C1680.92 1549.6 1622.32 1613.08 1547.03 1616.09C1471.73 1619.1 1408.25 1560.5 1405.24 1485.21C1402.23 1409.92 1460.83 1346.44 1536.12 1343.43C1611.42 1340.41 1674.9 1399.01 1677.91 1474.31Z" fill="#263238" stroke="black" stroke-width="1.92524"/>
<path d="M1443.66 1574.96C1418.58 1549.15 1404.72 1514.48 1405.08 1478.52L1677.91 1482.47C1677.23 1518.43 1662.38 1552.67 1636.57 1577.74C1610.62 1602.95 1575.72 1616.82 1539.54 1616.3C1503.36 1615.78 1468.87 1600.91 1443.66 1574.96Z" fill="#263238" stroke="black" stroke-width="1.92524"/>
<path d="M1445.99 1478.5C1446.36 1453.18 1456.78 1429.04 1474.95 1411.39C1493.11 1393.75 1517.54 1384.04 1542.87 1384.41L1445.99 1478.5ZM1461.31 1531.77C1451.05 1515.92 1445.72 1497.38 1445.99 1478.5L1542.87 1384.41C1561.75 1384.68 1580.12 1390.55 1595.67 1401.27C1611.22 1411.99 1623.23 1427.08 1630.21 1444.63C1637.18 1462.18 1638.79 1481.41 1634.83 1499.87C1630.88 1518.34 1621.54 1535.22 1607.99 1548.37C1594.45 1561.53 1577.3 1570.37 1558.73 1573.79C1540.16 1577.2 1520.99 1575.03 1503.65 1567.56C1486.31 1560.08 1471.58 1547.62 1461.31 1531.77Z" fill="#FAFAFA" stroke="black" stroke-width="1.92524"/>
<path d="M1542.87 1384.41L1542.88 1383.44L1542.87 1384.41C1555.41 1384.59 1567.8 1387.24 1579.31 1392.21C1590.83 1397.18 1601.26 1404.37 1610 1413.37C1618.74 1422.37 1625.62 1433.01 1630.24 1444.67C1634.75 1456.04 1637.03 1468.16 1636.97 1480.37L1446.01 1477.54C1446.31 1465.33 1448.95 1453.28 1453.79 1442.06C1458.76 1430.55 1465.94 1420.12 1474.94 1411.39C1483.93 1402.65 1494.56 1395.77 1506.22 1391.14C1517.87 1386.51 1530.33 1384.22 1542.87 1384.41Z" fill="#E0E0E0" stroke="black" stroke-width="1.92524"/>
<path d="M1493.1 1511.29C1486.89 1501.7 1483.66 1490.47 1483.82 1479.04C1484.05 1463.72 1490.35 1449.11 1501.34 1438.43C1512.33 1427.75 1527.11 1421.88 1542.44 1422.1C1553.87 1422.26 1564.99 1425.81 1574.4 1432.29C1583.82 1438.78 1591.1 1447.91 1595.32 1458.53C1599.54 1469.16 1600.52 1480.79 1598.13 1491.97C1595.74 1503.15 1590.08 1513.37 1581.89 1521.33C1573.69 1529.3 1563.31 1534.66 1552.07 1536.72C1540.83 1538.79 1529.22 1537.48 1518.73 1532.95C1508.23 1528.43 1499.31 1520.89 1493.1 1511.29Z" fill="#263238" stroke="black" stroke-width="1.92524"/>
<path d="M1694.13 1515.21C1694.15 1514.97 1694.16 1514.69 1694.18 1514.37C1694.25 1513.15 1694.33 1511.37 1694.37 1509.09C1694.46 1504.55 1694.39 1498.07 1693.78 1490.29C1692.58 1474.73 1689.23 1453.98 1680.66 1433.2C1672.09 1412.43 1658.28 1391.61 1636.14 1376C1614 1360.38 1583.59 1350.01 1541.9 1350.01C1500.22 1350.01 1469.78 1360.59 1447.59 1376.52C1425.41 1392.46 1411.55 1413.69 1402.93 1434.89C1394.31 1456.08 1390.91 1477.25 1389.66 1493.12C1389.04 1501.05 1388.95 1507.67 1389.03 1512.3C1389.06 1514.62 1389.14 1516.44 1389.2 1517.69C1389.22 1518 1389.23 1518.27 1389.25 1518.51C1388.94 1518.49 1388.58 1518.47 1388.15 1518.45C1386.74 1518.37 1384.67 1518.25 1382.07 1518.09C1377.03 1517.78 1369.98 1517.3 1361.76 1516.63C1361.73 1516.28 1361.69 1515.82 1361.65 1515.26C1361.55 1513.85 1361.42 1511.77 1361.33 1509.12C1361.16 1503.81 1361.13 1496.23 1361.72 1487.13C1362.91 1468.93 1366.6 1444.67 1376.55 1420.44C1386.5 1396.21 1402.72 1372.01 1428.97 1353.87C1455.22 1335.73 1491.58 1323.58 1541.9 1323.58C1588.33 1323.58 1622.82 1334.03 1648.43 1350.03C1674.03 1366.04 1690.82 1387.65 1701.77 1410.09C1723.21 1454.03 1722.28 1501.09 1721.4 1515.21H1694.13Z" fill="#455A64" stroke="black" stroke-width="1.92524"/>
<mask id="path-79-inside-6_1263_971" fill="white">
<path d="M1469.05 1342.8C1468.55 1343.06 1468.02 1343.25 1467.47 1343.37C1466.41 1343.75 1464.83 1344.12 1462.88 1344.81C1457.28 1346.59 1451.8 1348.72 1446.46 1351.2C1428.81 1359.3 1413.16 1371.21 1400.67 1386.08C1388.17 1400.94 1379.12 1418.4 1374.18 1437.18C1372.66 1442.84 1371.5 1448.58 1370.71 1454.38C1370.39 1456.44 1370.28 1458.05 1370.11 1459.14C1370.06 1459.7 1369.96 1460.26 1369.82 1460.8C1369.75 1460.25 1369.75 1459.69 1369.82 1459.14C1369.82 1458.02 1369.82 1456.27 1370.16 1454.32C1370.73 1448.43 1371.75 1442.58 1373.2 1436.84C1377.9 1417.77 1386.91 1400.03 1399.54 1384.99C1412.17 1369.95 1428.09 1358 1446.06 1350.08C1451.46 1347.67 1457.04 1345.66 1462.74 1344.06C1464.75 1343.49 1466.35 1343.17 1467.41 1342.92C1467.95 1342.82 1468.5 1342.78 1469.05 1342.8V1342.8Z"/>
</mask>
<path d="M1469.05 1342.8C1468.55 1343.06 1468.02 1343.25 1467.47 1343.37C1466.41 1343.75 1464.83 1344.12 1462.88 1344.81C1457.28 1346.59 1451.8 1348.72 1446.46 1351.2C1428.81 1359.3 1413.16 1371.21 1400.67 1386.08C1388.17 1400.94 1379.12 1418.4 1374.18 1437.18C1372.66 1442.84 1371.5 1448.58 1370.71 1454.38C1370.39 1456.44 1370.28 1458.05 1370.11 1459.14C1370.06 1459.7 1369.96 1460.26 1369.82 1460.8C1369.75 1460.25 1369.75 1459.69 1369.82 1459.14C1369.82 1458.02 1369.82 1456.27 1370.16 1454.32C1370.73 1448.43 1371.75 1442.58 1373.2 1436.84C1377.9 1417.77 1386.91 1400.03 1399.54 1384.99C1412.17 1369.95 1428.09 1358 1446.06 1350.08C1451.46 1347.67 1457.04 1345.66 1462.74 1344.06C1464.75 1343.49 1466.35 1343.17 1467.41 1342.92C1467.95 1342.82 1468.5 1342.78 1469.05 1342.8V1342.8Z" fill="#FAFAFA"/>
<path d="M1467.47 1343.37L1467.05 1341.5L1466.94 1341.52L1466.83 1341.56L1467.47 1343.37ZM1462.88 1344.81L1463.47 1346.64L1463.5 1346.63L1463.52 1346.62L1462.88 1344.81ZM1446.46 1351.2L1447.26 1352.95L1447.27 1352.94L1446.46 1351.2ZM1374.18 1437.18L1376.04 1437.68L1376.04 1437.67L1374.18 1437.18ZM1370.71 1454.38L1372.61 1454.67L1372.61 1454.66L1372.62 1454.64L1370.71 1454.38ZM1370.11 1459.14L1368.2 1458.84L1368.19 1458.9L1368.19 1458.97L1370.11 1459.14ZM1369.82 1460.8L1367.91 1461.04L1371.68 1461.29L1369.82 1460.8ZM1369.82 1459.14L1371.73 1459.38L1371.74 1459.26V1459.14H1369.82ZM1370.16 1454.32L1372.06 1454.66L1372.07 1454.58L1372.08 1454.51L1370.16 1454.32ZM1373.2 1436.84L1375.07 1437.31L1375.07 1437.3L1373.2 1436.84ZM1446.06 1350.08L1446.84 1351.84L1446.84 1351.84L1446.06 1350.08ZM1462.74 1344.06L1463.26 1345.92L1463.27 1345.91L1462.74 1344.06ZM1467.41 1342.92L1467.06 1341.02L1467.01 1341.03L1466.96 1341.04L1467.41 1342.92ZM1468.17 1341.09C1467.81 1341.27 1467.43 1341.41 1467.05 1341.5L1467.89 1345.25C1468.6 1345.09 1469.28 1344.84 1469.93 1344.51L1468.17 1341.09ZM1466.83 1341.56C1466.36 1341.72 1465.78 1341.89 1464.97 1342.12C1464.19 1342.35 1463.27 1342.63 1462.24 1342.99L1463.52 1346.62C1464.45 1346.3 1465.29 1346.04 1466.05 1345.82C1466.78 1345.6 1467.52 1345.4 1468.11 1345.19L1466.83 1341.56ZM1462.3 1342.97C1456.62 1344.78 1451.06 1346.94 1445.65 1349.45L1447.27 1352.94C1452.53 1350.5 1457.94 1348.4 1463.47 1346.64L1462.3 1342.97ZM1445.66 1349.45C1427.74 1357.66 1411.87 1369.75 1399.19 1384.84L1402.14 1387.31C1414.46 1372.66 1429.87 1360.93 1447.26 1352.95L1445.66 1349.45ZM1399.19 1384.84C1386.51 1399.92 1377.33 1417.63 1372.31 1436.69L1376.04 1437.67C1380.91 1419.16 1389.82 1401.97 1402.14 1387.31L1399.19 1384.84ZM1372.32 1436.69C1370.78 1442.42 1369.61 1448.24 1368.8 1454.12L1372.62 1454.64C1373.4 1448.92 1374.54 1443.26 1376.04 1437.68L1372.32 1436.69ZM1368.8 1454.09C1368.64 1455.16 1368.53 1456.11 1368.44 1456.91C1368.35 1457.73 1368.28 1458.35 1368.2 1458.84L1372.01 1459.44C1372.1 1458.84 1372.18 1458.11 1372.27 1457.34C1372.36 1456.55 1372.46 1455.66 1372.61 1454.67L1368.8 1454.09ZM1368.19 1458.97C1368.15 1459.43 1368.07 1459.88 1367.96 1460.32L1371.68 1461.29C1371.85 1460.64 1371.97 1459.97 1372.02 1459.31L1368.19 1458.97ZM1371.73 1460.56C1371.68 1460.17 1371.68 1459.77 1371.73 1459.38L1367.91 1458.9C1367.82 1459.61 1367.82 1460.33 1367.91 1461.04L1371.73 1460.56ZM1371.74 1459.14C1371.74 1458.02 1371.75 1456.43 1372.06 1454.66L1368.27 1453.99C1367.89 1456.12 1367.89 1458.02 1367.89 1459.14H1371.74ZM1372.08 1454.51C1372.64 1448.71 1373.64 1442.96 1375.07 1437.31L1371.34 1436.37C1369.86 1442.2 1368.82 1448.14 1368.25 1454.14L1372.08 1454.51ZM1375.07 1437.3C1379.7 1418.51 1388.57 1401.04 1401.02 1386.23L1398.07 1383.75C1385.25 1399.02 1376.1 1417.02 1371.33 1436.38L1375.07 1437.3ZM1401.02 1386.23C1413.46 1371.41 1429.13 1359.65 1446.84 1351.84L1445.28 1348.32C1427.04 1356.36 1410.89 1368.48 1398.07 1383.75L1401.02 1386.23ZM1446.84 1351.84C1452.16 1349.46 1457.65 1347.48 1463.26 1345.92L1462.22 1342.21C1456.43 1343.83 1450.77 1345.87 1445.27 1348.32L1446.84 1351.84ZM1463.27 1345.91C1465.23 1345.35 1466.7 1345.07 1467.87 1344.79L1466.96 1341.04C1466 1341.28 1464.26 1341.62 1462.21 1342.21L1463.27 1345.91ZM1467.76 1344.81C1468.16 1344.74 1468.56 1344.71 1468.97 1344.72L1469.13 1340.88C1468.44 1340.85 1467.74 1340.9 1467.06 1341.02L1467.76 1344.81Z" fill="black" mask="url(#path-79-inside-6_1263_971)"/>
<path d="M1772.94 1576.08C1772.94 1576.08 1766.81 1585.41 1761.81 1589.35C1756.82 1593.28 1745.09 1598.95 1741.81 1601.59C1738.54 1604.23 1740.04 1606.58 1741.12 1607.72C1742.2 1608.85 1757.33 1609.68 1765.55 1609.7C1773.77 1609.72 1788.58 1606.16 1788.58 1606.16C1788.58 1606.16 1795.13 1607.2 1796.78 1606.37C1798.43 1605.54 1799.51 1603.68 1799.76 1600.77C1800.01 1597.87 1799.09 1581.46 1799.09 1581.46L1772.94 1576.08Z" fill="white" stroke="#263238" stroke-width="1.73264" stroke-linecap="round" stroke-linejoin="round"/>
<path d="M1790.51 1601.82C1784.12 1602.84 1782.86 1604.3 1770.51 1606.14C1760.33 1607.66 1745.27 1605.79 1739.78 1604.81C1739.79 1605.35 1739.92 1605.88 1740.14 1606.38C1740.37 1606.87 1740.69 1607.31 1741.09 1607.68C1742.22 1608.81 1757.3 1609.65 1765.52 1609.66C1773.74 1609.68 1788.54 1606.12 1788.54 1606.12C1788.54 1606.12 1795.1 1607.17 1796.75 1606.33C1797.68 1605.75 1798.45 1604.94 1798.97 1603.97C1799.49 1603 1799.75 1601.91 1799.72 1600.81C1796.64 1600.97 1793.56 1601.3 1790.51 1601.82V1601.82Z" fill="#263238" stroke="#263238" stroke-width="1.73264" stroke-linecap="round" stroke-linejoin="round"/>
<path d="M1778.25 1582.93C1778.25 1582.93 1771.17 1579.78 1766.4 1585.09" stroke="#263238" stroke-width="1.73264" stroke-linecap="round" stroke-linejoin="round"/>
<path d="M1770.16 1580.26C1770.16 1580.26 1775.6 1584.53 1774.87 1589.12" stroke="#263238" stroke-width="1.73264" stroke-linecap="round" stroke-linejoin="round"/>
<path d="M1772.94 1587.86C1772.94 1587.86 1767.36 1585.27 1763.57 1589.63" stroke="#263238" stroke-width="1.73264" stroke-linecap="round" stroke-linejoin="round"/>
<path d="M1766.58 1585.68C1766.58 1585.68 1770.87 1589.22 1770.26 1592.94" stroke="#263238" stroke-width="1.73264" stroke-linecap="round" stroke-linejoin="round"/>
<path d="M1768.83 1592.85C1768.83 1592.85 1763.67 1590.43 1755.56 1593.3" stroke="#263238" stroke-width="1.73264" stroke-linecap="round" stroke-linejoin="round"/>
<path d="M1762.31 1590.64C1762.7 1591.03 1762.99 1591.51 1763.17 1592.03C1763.34 1592.55 1763.4 1593.11 1763.33 1593.65C1763.26 1594.2 1763.06 1594.72 1762.76 1595.18C1762.46 1595.64 1762.06 1596.03 1761.58 1596.31" stroke="#263238" stroke-width="1.73264" stroke-linecap="round" stroke-linejoin="round"/>
<path d="M1813.31 1584.94C1813.31 1584.94 1810.28 1595.78 1809.18 1597.34C1808.08 1598.9 1800.87 1607.97 1800.82 1611.14C1800.77 1614.31 1803.07 1616.75 1808.81 1618.06C1814.55 1619.37 1823.51 1619.83 1830.62 1616.59C1837.72 1613.35 1840.94 1612.29 1842.75 1607.33C1844.56 1602.37 1843.35 1585.73 1843.35 1585.73C1843.35 1585.73 1821.12 1569.35 1813.31 1584.94Z" fill="white" stroke="#263238" stroke-width="1.73264" stroke-linecap="round" stroke-linejoin="round"/>
<path d="M1842.75 1607.27C1843.46 1604.61 1843.82 1601.86 1843.8 1599.11C1842.31 1601.47 1840.64 1603.72 1838.8 1605.82C1835.26 1609.7 1829.25 1614.01 1817.72 1614.86C1811.77 1615.38 1805.84 1613.57 1801.21 1609.79C1801.05 1610.23 1800.95 1610.69 1800.91 1611.15C1800.91 1614.4 1803.16 1616.77 1808.9 1618.08C1814.64 1619.39 1823.6 1619.85 1830.71 1616.61C1837.81 1613.37 1840.94 1612.23 1842.75 1607.27Z" fill="#263238" stroke="#263238" stroke-width="1.73264" stroke-linecap="round" stroke-linejoin="round"/>
<path d="M1828.95 1581.25C1828.95 1581.25 1819.23 1580.77 1816.18 1586.57" stroke="#263238" stroke-width="1.73264" stroke-linecap="round" stroke-linejoin="round"/>
<path d="M1818.31 1581.39C1818.31 1581.39 1826.65 1583.17 1827.94 1587.13" stroke="#263238" stroke-width="1.73264" stroke-linecap="round" stroke-linejoin="round"/>
<path d="M1827.02 1588.34C1827.02 1588.34 1817.3 1587.88 1814.25 1593.65" stroke="#263238" stroke-width="1.73264" stroke-linecap="round" stroke-linejoin="round"/>
<path d="M1816.37 1588.48C1816.37 1588.48 1824.72 1590.25 1825.99 1594.22" stroke="#263238" stroke-width="1.73264" stroke-linecap="round" stroke-linejoin="round"/>
<path d="M1825.07 1595.42C1825.07 1595.42 1815.35 1594.96 1812.3 1600.74" stroke="#263238" stroke-width="1.73264" stroke-linecap="round" stroke-linejoin="round"/>
<path d="M1814.44 1595.56C1814.44 1595.56 1822.77 1597.34 1824.06 1601.3" stroke="#263238" stroke-width="1.73264" stroke-linecap="round" stroke-linejoin="round"/>
<path d="M1755.22 1372.11C1755.22 1372.11 1758.96 1428.46 1760.54 1444.28C1762.11 1460.1 1766.03 1496.58 1766.35 1497.55C1766.67 1498.52 1767.64 1511.42 1767.64 1511.42C1767.64 1511.42 1766.67 1516.59 1767.96 1527.89C1769.25 1539.2 1773.13 1562.76 1773.13 1562.76C1773.13 1562.76 1769.89 1563.39 1770.23 1565.98C1770.56 1568.57 1771.84 1575.67 1771.84 1575.67C1771.84 1575.67 1784.1 1579.85 1787.66 1580.19C1791.22 1580.52 1798.29 1580.19 1798.29 1580.19C1798.29 1580.19 1801.19 1575.33 1800.87 1572.77C1800.2 1569.59 1799.34 1566.46 1798.29 1563.39L1799.9 1544.35L1802.49 1466.57C1802.49 1466.57 1812.5 1542.42 1814.11 1547.89C1815.72 1553.37 1817.33 1562.07 1817.33 1562.07C1817.33 1562.07 1814.11 1564.65 1814.11 1566.26C1814.11 1567.88 1814.74 1579.18 1814.74 1579.18C1814.74 1579.18 1821.21 1574.01 1827.34 1574.98C1833.47 1575.95 1843.48 1583.06 1843.48 1583.06C1843.88 1579.78 1844.54 1576.54 1845.43 1573.37C1846.7 1569.17 1844.13 1558.52 1843.48 1555.65C1842.73 1552.37 1842.62 1548.97 1843.16 1545.64C1843.8 1542.74 1844.13 1533.71 1844.45 1530.8C1844.77 1527.89 1844.13 1455.58 1844.13 1455.58L1850.72 1372.77L1756.84 1369.86L1755.22 1372.11Z" fill="#263238" stroke="#263238" stroke-width="1.73264" stroke-linecap="round" stroke-linejoin="round"/>
<path d="M1769.7 1250.29C1769.7 1250.29 1757.67 1272.77 1754.53 1279.22C1751.4 1285.66 1747.75 1292.94 1747.75 1292.94C1736.3 1276.38 1724.95 1259.89 1712.55 1244.03L1709.79 1240.81C1709.79 1240.81 1694.3 1234.96 1692.85 1236.38C1691.4 1237.8 1687.91 1259.62 1691.31 1262.95C1694.71 1266.28 1709.02 1268.27 1709.02 1268.27L1711.73 1271.08L1711.36 1271.42C1711.36 1271.42 1733.03 1319.5 1736.52 1322.79C1740.01 1326.09 1744.12 1331.88 1751.66 1332.25C1755.99 1332.45 1770.62 1301.52 1770.62 1301.52L1769.7 1250.29Z" fill="white" stroke="#263238" stroke-width="1.73264" stroke-linecap="round" stroke-linejoin="round"/>
<path d="M1768.24 1249.97L1749.68 1282.44L1764.35 1317.44L1773.42 1298.9C1773.42 1298.9 1778.61 1247.95 1774.71 1247.52C1773.52 1247.43 1772.32 1247.59 1771.2 1248.02C1770.08 1248.44 1769.07 1249.11 1768.24 1249.97V1249.97Z" fill="white" stroke="#263238" stroke-width="1.73264" stroke-linecap="round" stroke-linejoin="round"/>
<path d="M1744.93 1286.74C1744.93 1286.74 1759.6 1326.04 1761.34 1326.04C1763.07 1326.04 1768.24 1318.26 1767.8 1314.38C1767.36 1310.5 1755.72 1279.84 1751.86 1279.41C1748 1278.99 1746.65 1282.87 1744.93 1286.74Z" fill="white" stroke="#263238" stroke-width="1.73264" stroke-linecap="round" stroke-linejoin="round"/>
<path d="M1718.31 1251.16C1718.31 1251.16 1713.13 1242.19 1712.57 1238.54C1711.66 1232.88 1718.16 1229.35 1715.17 1228C1712.18 1226.66 1706.61 1230.55 1706.1 1234.61C1705.79 1237.17 1705.89 1239.76 1706.4 1242.28C1706.4 1242.28 1703.5 1247.6 1704.24 1251.56C1704.99 1255.53 1706.99 1259.87 1708.51 1260.42" fill="white"/>
<path d="M1718.31 1251.16C1718.31 1251.16 1713.13 1242.19 1712.57 1238.54C1711.66 1232.88 1718.16 1229.35 1715.17 1228C1712.18 1226.66 1706.61 1230.55 1706.1 1234.61C1705.79 1237.17 1705.89 1239.76 1706.4 1242.28C1706.4 1242.28 1703.5 1247.6 1704.24 1251.56C1704.99 1255.53 1706.99 1259.87 1708.51 1260.42" stroke="#263238" stroke-width="1.73264" stroke-linecap="round" stroke-linejoin="round"/>
<path d="M1690.57 1231.9C1690.07 1231.78 1689.55 1231.75 1689.05 1231.83C1688.55 1231.92 1688.06 1232.1 1687.63 1232.37C1687.2 1232.65 1686.83 1233 1686.54 1233.43C1686.26 1233.85 1686.06 1234.32 1685.96 1234.82C1685.76 1235.26 1685.65 1235.73 1685.64 1236.21C1685.63 1236.69 1685.71 1237.17 1685.89 1237.62C1686.07 1238.06 1686.34 1238.47 1686.68 1238.81C1687.02 1239.15 1687.43 1239.41 1687.87 1239.59C1689.64 1240.46 1699.55 1246.13 1700.54 1243.4C1701.53 1240.67 1702.49 1238.23 1700.41 1237C1698.34 1235.78 1690.57 1231.9 1690.57 1231.9Z" fill="white" stroke="#263238" stroke-width="1.73264" stroke-linecap="round" stroke-linejoin="round"/>
<path d="M1689.33 1240.07C1688.83 1239.94 1688.32 1239.91 1687.81 1239.99C1687.31 1240.07 1686.83 1240.25 1686.39 1240.52C1685.96 1240.8 1685.59 1241.15 1685.3 1241.57C1685.02 1242 1684.82 1242.47 1684.72 1242.97C1684.52 1243.41 1684.41 1243.88 1684.39 1244.37C1684.38 1244.85 1684.47 1245.33 1684.65 1245.78C1684.82 1246.22 1685.09 1246.63 1685.43 1246.97C1685.78 1247.31 1686.18 1247.58 1686.63 1247.75C1688.4 1248.62 1698.29 1254.29 1699.3 1251.55C1700.31 1248.8 1701.23 1246.39 1699.17 1245.17C1697.12 1243.95 1689.33 1240.07 1689.33 1240.07Z" fill="white" stroke="#263238" stroke-width="1.73264" stroke-linecap="round" stroke-linejoin="round"/>
<path d="M1688.49 1248.45C1688.07 1248.34 1687.63 1248.32 1687.21 1248.39C1686.78 1248.46 1686.37 1248.61 1686 1248.84C1685.63 1249.07 1685.32 1249.38 1685.07 1249.74C1684.83 1250.1 1684.66 1250.5 1684.58 1250.93C1684.4 1251.3 1684.31 1251.7 1684.3 1252.11C1684.29 1252.52 1684.36 1252.93 1684.51 1253.31C1684.67 1253.69 1684.89 1254.03 1685.19 1254.32C1685.48 1254.61 1685.83 1254.83 1686.21 1254.98C1687.73 1255.73 1696.13 1260.54 1696.98 1258.22C1697.83 1255.9 1698.63 1253.83 1696.87 1252.79C1695.12 1251.74 1688.49 1248.45 1688.49 1248.45Z" fill="white" stroke="#263238" stroke-width="1.73264" stroke-linecap="round" stroke-linejoin="round"/>
<path d="M1688.83 1255.9C1688.45 1255.8 1688.05 1255.77 1687.67 1255.83C1687.28 1255.89 1686.9 1256.02 1686.57 1256.23C1686.24 1256.44 1685.95 1256.72 1685.73 1257.04C1685.51 1257.37 1685.36 1257.73 1685.29 1258.12C1685.14 1258.45 1685.07 1258.8 1685.06 1259.15C1685.06 1259.51 1685.13 1259.86 1685.26 1260.19C1685.39 1260.52 1685.59 1260.82 1685.84 1261.07C1686.09 1261.33 1686.39 1261.53 1686.72 1261.66C1688.09 1262.32 1695.58 1266.62 1696.32 1264.55C1697.07 1262.48 1697.79 1260.63 1696.32 1259.7C1694.85 1258.76 1688.83 1255.9 1688.83 1255.9Z" fill="white" stroke="#263238" stroke-width="1.73264" stroke-linecap="round" stroke-linejoin="round"/>
<path d="M1789.59 1233.19C1789.59 1233.19 1769.64 1242.33 1768.33 1245.59C1767.02 1248.85 1760.31 1314.86 1756.43 1341.25C1752.55 1367.65 1754.21 1374.66 1754.21 1374.66C1754.21 1374.66 1758.36 1383.25 1799.1 1381.86C1839.85 1380.46 1854.23 1374.38 1854.8 1370.78C1855.37 1367.19 1855.9 1371.74 1855.9 1369.24C1855.9 1366.74 1858.94 1249 1855.9 1241.79C1852.85 1234.58 1835.67 1222.67 1830.69 1222.12C1825.71 1221.57 1789.59 1233.19 1789.59 1233.19Z" fill="#92E3A9" stroke="#263238" stroke-width="1.73264" stroke-linecap="round" stroke-linejoin="round"/>
<path d="M1756.39 1345.24V1345.56C1755.72 1350.15 1755.24 1354.27 1754.9 1358.05C1775.36 1362.18 1796.24 1363.76 1817.08 1362.76C1838.34 1361.47 1850.14 1360.69 1856.14 1360.3C1856.23 1356.67 1856.32 1352.45 1856.41 1347.79C1842.2 1349.33 1786.76 1354.13 1756.39 1345.24Z" fill="white" stroke="#263238" stroke-width="1.73264" stroke-linecap="round" stroke-linejoin="round"/>
<path d="M1823.18 1288.23C1824.1 1283.1 1828.7 1258.01 1834.67 1241.94L1844.4 1248.38L1854.07 1248.62C1854.07 1248.62 1832.37 1229.51 1826.24 1227.86C1825.01 1227.68 1823.75 1227.68 1822.52 1227.86C1810.33 1230.86 1789.59 1237.55 1789.59 1237.55C1789.59 1237.55 1769.64 1246.69 1768.33 1249.95C1767.9 1251.78 1767.57 1253.63 1767.36 1255.5L1772.35 1252.66L1766.33 1284.18C1765.36 1283.95 1764.4 1283.7 1763.48 1283.43L1762.01 1296.17C1782.12 1300.15 1802.63 1301.66 1823.11 1300.67C1839.53 1299.66 1850.32 1298.9 1857.14 1298.53C1857.14 1294.36 1857.14 1290.23 1857.14 1286.21C1849.36 1286.94 1836.98 1287.88 1823.18 1288.23ZM1772.02 1285.4L1779.39 1248.71C1788.6 1243.63 1799.21 1238.08 1803.83 1236.59C1809.52 1234.84 1815.36 1233.65 1821.28 1233.05L1826.4 1236.45C1825.82 1237.96 1814.89 1266.28 1811.98 1288.25L1813.47 1288.37C1799.59 1288.6 1785.72 1287.61 1772.02 1285.4V1285.4Z" fill="white" stroke="#263238" stroke-width="1.73264" stroke-linecap="round" stroke-linejoin="round"/>
<path d="M1770.95 1367.33C1771.09 1369.84 1771.31 1372.29 1771.57 1374.66" stroke="#263238" stroke-width="1.73264" stroke-miterlimit="10"/>
<path d="M1777.23 1312.61C1774.36 1329.35 1770.37 1342.26 1770.74 1361.8" stroke="#263238" stroke-width="1.73264" stroke-miterlimit="10"/>
<path d="M1782.11 1287.65C1782.11 1287.65 1780.04 1296.29 1777.72 1309.1" stroke="#263238" stroke-width="1.73264" stroke-miterlimit="10"/>
<path d="M1760.01 1373.09C1760.01 1373.09 1742.91 1370.5 1741.94 1372.43C1740.96 1374.36 1741.94 1400.78 1743.55 1402.46C1745.16 1404.14 1756.14 1406.34 1759.37 1404.39C1762.59 1402.44 1764.52 1401.16 1765.18 1399.55C1765.83 1397.94 1765.82 1377.6 1764.52 1375.02C1764.06 1374.27 1763.38 1373.68 1762.57 1373.33C1761.76 1372.98 1760.87 1372.9 1760.01 1373.09V1373.09Z" fill="#263238" stroke="#263238" stroke-width="1.73264" stroke-linecap="round" stroke-linejoin="round"/>
<path d="M1780.34 1376.31C1780.34 1376.31 1777.77 1402.46 1781.96 1404.07C1786.66 1405.51 1791.57 1406.17 1796.48 1406.02C1798.11 1405.68 1803.92 1404.73 1804.88 1402.14C1805.83 1399.55 1805.85 1379.22 1805.2 1377.34C1804.54 1375.46 1781.96 1373.72 1780.34 1376.31Z" fill="#263238" stroke="#263238" stroke-width="1.73264" stroke-linecap="round" stroke-linejoin="round"/>
<path d="M1821.02 1379.22C1821.02 1379.22 1822.31 1408.59 1822.97 1409.88C1823.62 1411.17 1835.88 1419.25 1838.13 1418.91C1840.38 1418.58 1858.47 1416.67 1859.39 1413.1C1860.31 1409.54 1862.61 1380.83 1860.68 1377.68C1858.75 1374.52 1854.53 1373.16 1850.67 1372.84C1846.81 1372.52 1824.31 1375.67 1824.31 1375.67C1823.42 1375.74 1822.58 1376.14 1821.97 1376.79C1821.35 1377.45 1821.01 1378.32 1821.02 1379.22Z" fill="#263238" stroke="#263238" stroke-width="1.73264" stroke-linecap="round" stroke-linejoin="round"/>
<path d="M1797.9 1225.86L1789.59 1233.19L1789.31 1241.66L1782.66 1283.22C1782.66 1283.22 1822.01 1231.95 1822.54 1231.12C1825.11 1229.37 1827.79 1227.79 1830.58 1226.41L1828.08 1216.15L1823.92 1217.27L1797.9 1225.86Z" fill="white" stroke="#263238" stroke-width="1.73264" stroke-linecap="round" stroke-linejoin="round"/>
<path d="M1789.59 1233.19L1795.15 1244.2L1796.02 1235.78L1800.79 1247.45L1816.78 1234.42" stroke="#263238" stroke-width="1.73264" stroke-linecap="round" stroke-linejoin="round"/>
<path d="M1792.43 1166.04C1792.43 1166.04 1788.88 1172.89 1788.65 1173.88C1788.58 1175.22 1788.58 1176.57 1788.65 1177.91C1788.65 1177.91 1779.62 1186.87 1779.92 1187.52C1780.22 1188.18 1783.69 1189.3 1783.69 1189.3C1783.69 1189.3 1780.38 1212.17 1782.31 1212.7C1784.24 1213.23 1798.15 1212.01 1798.15 1212.01L1795.97 1235.78L1825.66 1218.65L1829.02 1202.87C1829.02 1202.87 1838.61 1194.2 1839.48 1189.08C1840.34 1183.96 1839.74 1182.87 1839.74 1182.87L1792.43 1166.04Z" fill="white" stroke="#263238" stroke-width="1.73264" stroke-linecap="round" stroke-linejoin="round"/>
<path d="M1839.79 1182.81L1809.45 1172.19L1809.31 1174.49L1806.28 1185.12C1806.28 1185.12 1815.49 1180.85 1817.21 1180.33C1818.92 1179.82 1821.1 1185.84 1818.77 1188.89C1816.43 1191.94 1809.77 1195.43 1809.77 1195.43C1809.77 1195.43 1815.08 1203.22 1821.71 1204.76C1823.96 1205.29 1826.28 1205.49 1828.6 1205.37L1829.08 1202.99C1829.08 1202.99 1838.66 1194.33 1839.53 1189.21C1840.39 1184.09 1839.79 1182.81 1839.79 1182.81Z" fill="#263238" stroke="#263238" stroke-width="1.73264" stroke-linecap="round" stroke-linejoin="round"/>
<path d="M1790.65 1173.62C1791.69 1173.22 1792.83 1173.21 1793.88 1173.57C1794.93 1173.94 1795.81 1174.67 1796.37 1175.62" stroke="#263238" stroke-width="1.73264" stroke-linecap="round" stroke-linejoin="round"/>
<path d="M1792.67 1179.43C1792.44 1180.74 1791.82 1181.71 1791.29 1181.63C1790.76 1181.54 1790.48 1180.4 1790.71 1179.09C1790.94 1177.78 1791.56 1176.81 1792.09 1176.91C1792.62 1177.02 1792.89 1178.14 1792.67 1179.43Z" fill="#263238"/>
<path d="M1781.97 1212.26L1804.77 1211.42L1797.74 1218.08L1797.99 1212.08L1781.97 1212.26Z" fill="#263238" stroke="#263238" stroke-width="1.73264" stroke-linecap="round" stroke-linejoin="round"/>
<path d="M1821.21 1182.71L1828.6 1205.24L1834.62 1201.18L1827.6 1183.2L1821.21 1182.71Z" fill="white" stroke="#263238" stroke-width="1.73264" stroke-linecap="round" stroke-linejoin="round"/>
<path d="M1789.29 1160.67C1789.29 1160.67 1775.12 1160.1 1776.75 1160.97C1778.38 1161.84 1846.06 1196.1 1846.06 1196.1C1845.8 1193.75 1845.71 1191.38 1845.8 1189.01C1846.1 1187.24 1850.86 1176.61 1851.68 1165.01C1852.49 1153.41 1829.43 1142.85 1817.61 1139.64C1805.8 1136.44 1798.84 1141.13 1796.6 1147.22C1794.64 1151.95 1792.19 1156.46 1789.29 1160.67V1160.67Z" fill="#92E3A9" stroke="#263238" stroke-width="1.73264" stroke-linecap="round" stroke-linejoin="round"/>
<path d="M1808.1 1170.06L1796.27 1163.33C1796.27 1163.33 1806.44 1147.91 1806.54 1145.86C1806.6 1144.58 1806.73 1143.3 1806.93 1142.03C1806.93 1142.03 1807.75 1138.79 1818.64 1142.03" stroke="#263238" stroke-width="1.73264" stroke-linecap="round" stroke-linejoin="round"/>
<path d="M1782.66 1190.7C1784.97 1190.05 1787.41 1189.98 1789.75 1190.5C1792.53 1191.51 1793.15 1193.55 1794.28 1193.34C1795.42 1193.12 1802.24 1191.56 1795.06 1196.37C1792.37 1198.14 1789.96 1197.55 1787.85 1197.3C1786.25 1197.06 1784.67 1196.68 1783.12 1196.17C1782.36 1195.49 1781.89 1194.54 1781.8 1193.53C1781.71 1192.51 1782.02 1191.49 1782.66 1190.7Z" fill="#263238" stroke="#263238" stroke-width="1.73264" stroke-linecap="round" stroke-linejoin="round"/>
<path d="M1834.94 1370.06C1833.22 1371.92 1831.19 1373.49 1828.95 1374.68C1829.05 1375.18 1829 1375.69 1828.8 1376.16C1828.61 1376.63 1828.28 1377.02 1827.85 1377.3" stroke="#263238" stroke-width="1.73264" stroke-linecap="round" stroke-linejoin="round"/>
<path d="M1896.23 1301.24C1890.24 1286.28 1880.71 1273.05 1872.72 1259.07C1870.34 1254.44 1867.49 1250.04 1864.24 1245.97C1860.93 1241.86 1856.23 1239.13 1851.02 1238.28H1850.76C1848.87 1238.1 1846.97 1238.32 1845.17 1238.93C1843.37 1239.54 1841.73 1240.52 1840.34 1241.82C1837.65 1244.47 1836.02 1248.02 1835.77 1251.79C1834.49 1260.79 1836.14 1269.96 1840.48 1277.94C1845.02 1286.16 1852.07 1292.5 1858.66 1299.2C1860.59 1301.16 1862.47 1303.15 1864.24 1305.24C1852.71 1319.87 1841.18 1334.51 1829.63 1349.15C1828.91 1349.99 1828.31 1350.93 1827.85 1351.93V1351.93H1827.39L1817.61 1357.57C1817.61 1357.57 1810.39 1362.47 1810.26 1364.92C1810 1370.11 1811.93 1372.27 1813.5 1374.77C1815.45 1376.85 1817.62 1378.71 1819.97 1380.31C1821.53 1381.15 1825.29 1382.62 1827.82 1380.51C1830.35 1378.4 1837.9 1376.31 1838.32 1372.94C1838.75 1369.58 1834.96 1370 1834.96 1370C1837.44 1367.94 1839.02 1364.99 1839.37 1361.78C1840.48 1361.55 1841.56 1361.2 1842.59 1360.72C1845.88 1359.03 1848.92 1356.89 1851.63 1354.38C1864.43 1343.75 1878.2 1334.15 1891.2 1323.73C1893.8 1321.94 1895.96 1319.59 1897.53 1316.86C1899.81 1312.13 1898.25 1306.25 1896.23 1301.24Z" fill="white" stroke="#263238" stroke-width="1.73264" stroke-linecap="round" stroke-linejoin="round"/>
<path d="M1896.23 1301.24C1889.81 1297.61 1882.65 1295.46 1875.29 1294.95C1869.46 1294.82 1863.71 1296.29 1858.66 1299.2C1852.07 1292.47 1845.02 1286.12 1840.48 1277.94C1836.14 1269.96 1834.48 1260.79 1835.77 1251.79C1836.02 1248.02 1837.65 1244.47 1840.34 1241.82C1841.73 1240.52 1843.37 1239.54 1845.17 1238.93C1846.96 1238.32 1848.87 1238.1 1850.76 1238.28H1851.02C1856.23 1239.13 1860.93 1241.86 1864.24 1245.97C1867.49 1250.04 1870.34 1254.44 1872.72 1259.07C1880.71 1273.05 1890.24 1286.28 1896.23 1301.24Z" fill="white" stroke="#263238" stroke-width="1.73264" stroke-linecap="round" stroke-linejoin="round"/>
<path d="M1859.31 1310.5C1859.31 1310.5 1869.68 1302.72 1878.32 1303.59C1886.97 1304.46 1896.44 1311.79 1897.81 1311.35C1899.17 1310.91 1903 1307.05 1901.71 1302.72C1900.73 1298.74 1899.42 1294.84 1897.81 1291.07C1895.65 1286.32 1886.6 1283.73 1877.95 1285.89C1869.31 1288.06 1855.51 1297.98 1855.95 1300.99C1856.76 1304.26 1857.88 1307.45 1859.31 1310.5V1310.5Z" fill="white" stroke="#263238" stroke-width="1.73264" stroke-linecap="round" stroke-linejoin="round"/>
</svg>
