<svg width="5309" height="3434" viewBox="0 0 5309 3434" fill="none" xmlns="http://www.w3.org/2000/svg">
<path d="M4324.47 1070.31H1863.81V3297.93H4324.47V1070.31Z" fill="#263238" stroke="#263238" stroke-width="8.85159" stroke-miterlimit="10" stroke-linecap="round"/>
<path d="M2142.89 1074.97H2030.21V3292.37H2142.89V1074.97Z" fill="#C9C9C9" stroke="#263238" stroke-width="8.85159" stroke-miterlimit="10" stroke-linecap="round"/>
<path d="M2250.2 1074.97H2137.52V3292.37H2250.2V1074.97Z" fill="#BABABA" stroke="#263238" stroke-width="8.85159" stroke-miterlimit="10" stroke-linecap="round"/>
<path d="M2357.45 1074.97H2244.77V3292.37H2357.45V1074.97Z" fill="#C9C9C9" stroke="#263238" stroke-width="8.85159" stroke-miterlimit="10" stroke-linecap="round"/>
<path d="M2464.76 1074.97H2352.08V3292.37H2464.76V1074.97Z" fill="#BABABA" stroke="#263238" stroke-width="8.85159" stroke-miterlimit="10" stroke-linecap="round"/>
<path d="M2572 1074.97H2459.33V3292.37H2572V1074.97Z" fill="#C9C9C9" stroke="#263238" stroke-width="8.85159" stroke-miterlimit="10" stroke-linecap="round"/>
<path d="M2679.32 1074.97H2566.64V3292.37H2679.32V1074.97Z" fill="#BABABA" stroke="#263238" stroke-width="8.85159" stroke-miterlimit="10" stroke-linecap="round"/>
<path d="M2786.63 1074.97H2673.95V3292.37H2786.63V1074.97Z" fill="#C9C9C9" stroke="#263238" stroke-width="8.85159" stroke-miterlimit="10" stroke-linecap="round"/>
<path d="M2893.87 1074.97H2781.2V3292.37H2893.87V1074.97Z" fill="#BABABA" stroke="#263238" stroke-width="8.85159" stroke-miterlimit="10" stroke-linecap="round"/>
<path d="M3001.18 1074.97H2888.51V3292.37H3001.18V1074.97Z" fill="#C9C9C9" stroke="#263238" stroke-width="8.85159" stroke-miterlimit="10" stroke-linecap="round"/>
<path d="M3108.49 1074.97H2995.82V3292.37H3108.49V1074.97Z" fill="#BABABA" stroke="#263238" stroke-width="8.85159" stroke-miterlimit="10" stroke-linecap="round"/>
<path d="M3215.74 1074.97H3103.06V3292.37H3215.74V1074.97Z" fill="#C9C9C9" stroke="#263238" stroke-width="8.85159" stroke-miterlimit="10" stroke-linecap="round"/>
<path d="M3323.05 1074.97H3210.38V3292.37H3323.05V1074.97Z" fill="#BABABA" stroke="#263238" stroke-width="8.85159" stroke-miterlimit="10" stroke-linecap="round"/>
<path d="M3430.3 1074.97H3317.62V3292.37H3430.3V1074.97Z" fill="#C9C9C9" stroke="#263238" stroke-width="8.85159" stroke-miterlimit="10" stroke-linecap="round"/>
<path d="M3537.61 1074.97H3424.93V3292.37H3537.61V1074.97Z" fill="#BABABA" stroke="#263238" stroke-width="8.85159" stroke-miterlimit="10" stroke-linecap="round"/>
<path d="M3644.92 1074.97H3532.24V3292.37H3644.92V1074.97Z" fill="#C9C9C9" stroke="#263238" stroke-width="8.85159" stroke-miterlimit="10" stroke-linecap="round"/>
<path d="M3752.17 1074.97H3639.49V3292.37H3752.17V1074.97Z" fill="#BABABA" stroke="#263238" stroke-width="8.85159" stroke-miterlimit="10" stroke-linecap="round"/>
<path d="M3859.48 1074.97H3746.8V3292.37H3859.48V1074.97Z" fill="#C9C9C9" stroke="#263238" stroke-width="8.85159" stroke-miterlimit="10" stroke-linecap="round"/>
<path d="M3966.73 1074.97H3854.05V3292.37H3966.73V1074.97Z" fill="#BABABA" stroke="#263238" stroke-width="8.85159" stroke-miterlimit="10" stroke-linecap="round"/>
<path d="M4074.04 1074.97H3961.36V3292.37H4074.04V1074.97Z" fill="#C9C9C9" stroke="#263238" stroke-width="8.85159" stroke-miterlimit="10" stroke-linecap="round"/>
<path d="M2138.49 1265.54C2138.49 1265.54 2156.79 1602.54 2140.56 1836.3L2138.49 1265.54Z" fill="#263238"/>
<path d="M2351.95 1337.3C2351.95 1337.3 2390.74 1684.84 2349.95 1874.38L2351.95 1337.3Z" fill="#263238"/>
<path d="M2248.9 2031.33V2623.74C2248.9 2623.74 2292.22 2351.33 2248.9 2031.33Z" fill="#263238"/>
<path d="M2566.44 1179.05V1723.36C2566.44 1723.36 2609.69 1379.45 2566.44 1179.05Z" fill="#263238"/>
<path d="M2459.65 1768.16V2384.55C2459.65 2384.55 2494.24 1923.7 2459.65 1768.16Z" fill="#263238"/>
<path d="M2673.24 1216.41V2079.23C2673.24 2079.23 2730.97 1703.84 2673.24 1216.41Z" fill="#263238"/>
<path d="M2678.99 3217.12V2309.5C2678.99 2309.5 2716.55 2878.77 2678.99 3217.12Z" fill="#263238"/>
<path d="M3103.32 2720.71V1813.02C3103.32 1813.02 3140.88 2382.35 3103.32 2720.71Z" fill="#263238"/>
<path d="M2993.62 2454.5V1546.88C2993.62 1546.88 3031.18 2116.21 2993.62 2454.5Z" fill="#263238"/>
<path d="M3213.03 2134.57V1226.89C3213.03 1226.89 3250.59 1796.28 3213.03 2134.57Z" fill="#263238"/>
<path d="M3319.82 3064.62V2156.94C3319.82 2156.94 3357.38 2726.27 3319.82 3064.62Z" fill="#263238"/>
<path d="M3429.52 2645.92V1738.1C3429.52 1738.1 3467.08 2307.56 3429.52 2645.92Z" fill="#263238"/>
<path d="M3637.36 2944.97V2037.35C3637.36 2037.35 3674.92 2606.61 3637.36 2944.97Z" fill="#263238"/>
<path d="M3533.47 2041.93V1134.18C3533.47 1134.18 3570.97 1703.45 3533.47 2041.93Z" fill="#263238"/>
<path d="M3747.06 2328.89V1421.34C3747.06 1421.34 3784.56 1990.6 3747.06 2328.89Z" fill="#263238"/>
<path d="M3960.65 3091.51V2184.15C3960.65 2184.15 3998.21 2753.03 3960.65 3091.51Z" fill="#263238"/>
<path d="M3853.99 3214.15V2306.53C3853.99 2306.53 3891.41 2875.86 3853.99 3214.15Z" fill="#263238"/>
<path d="M3853.99 1982.01V1074.39C3853.99 1074.39 3891.41 1643.65 3853.99 1982.01Z" fill="#263238"/>
<path d="M3963.88 2257.14V1349.52C3963.88 1349.52 4001.05 1919.11 3963.88 2257.14Z" fill="#263238"/>
<path d="M2892.64 3267.99V2360.31C2892.64 2360.31 2930.14 2929.64 2892.64 3267.99Z" fill="#263238"/>
<path d="M2136.29 2912.06V2004.44C2136.29 2004.44 2173.85 2573.71 2136.29 2912.06Z" fill="#263238"/>
<path d="M2355.7 3232.06V2324.44C2355.7 2324.44 2393 2893.7 2355.7 3232.06Z" fill="#263238"/>
<path d="M2889.73 1158.1V2291.53C2889.73 2291.53 2930.14 1620.19 2889.73 1158.1Z" fill="#263238"/>
<path d="M1917.15 1070.31H1623.01V3297.93H1917.15V1070.31Z" fill="white" stroke="#263238" stroke-width="8.85159" stroke-miterlimit="10" stroke-linecap="round"/>
<path d="M4471.54 1070.31H4177.41V3297.93H4471.54V1070.31Z" fill="white" stroke="#263238" stroke-width="8.85159" stroke-miterlimit="10" stroke-linecap="round"/>
<path d="M4520.74 750.644H1568.39V1094.69H4520.74V750.644Z" fill="#263238" stroke="#263238" stroke-width="8.85159" stroke-miterlimit="10" stroke-linecap="round"/>
<path d="M3259.84 3352.58H3830.74C3819.66 3282.78 3775.35 3295.08 3769.03 3186.39C3766.04 3131.88 3816.45 3064.52 3812.02 2992.84C3808.47 2933.9 3750.31 2873.41 3745.54 2805.94C3741.55 2745.11 3791.08 2677.53 3786.31 2611.95C3781.77 2549.9 3722.83 2490.08 3717.62 2425.93C3712.42 2361.78 3761.16 2294.75 3755.4 2231.16C3749.64 2167.57 3689.71 2109.29 3683.28 2046.47C3676.74 1981.99 3723.83 1912.64 3716.52 1851.04C3708.87 1785.56 3647.05 1729.17 3638.96 1668.68C3629.55 1601.54 3673.31 1529.75 3663.12 1471.81C3650.6 1400.79 3584.45 1349.38 3570.5 1296.98C3544.57 1199.37 3548.34 1105.2 3517.21 1099.11C3484.52 1092.57 3477.1 1184.75 3452.39 1287.45C3439.87 1339.3 3374.84 1391.82 3364.65 1462.83C3356.01 1520.44 3401.76 1590.35 3394.23 1657.27C3387.58 1717.21 3327.75 1774.71 3321.44 1839.85C3316.01 1901.12 3364.87 1968.59 3359.99 2032.62C3355.34 2094.89 3296.95 2154.49 3292.86 2217.42C3288.76 2280.35 3339.28 2346.82 3335.84 2409.31C3332.41 2471.8 3274.91 2533.62 3272.03 2595.22C3268.92 2660.25 3320.22 2725.95 3317.78 2786.33C3315.01 2852.8 3258.4 2914.62 3256.29 2973.12C3253.75 3044.14 3305.93 3109.61 3304.38 3163.68C3300.83 3281.01 3247.1 3256.74 3245.22 3351.14L3259.84 3352.58Z" fill="#92E3A9"/>
<path d="M3504.91 1287.23V3326.21" stroke="#263238" stroke-width="8.85159" stroke-miterlimit="10"/>
<path d="M3594.09 1500.94L3501.14 1581.26L3425.03 1479.78" stroke="#263238" stroke-width="8.85159" stroke-miterlimit="10"/>
<path d="M3594.09 1855.91L3501.14 1936.12L3425.03 1834.75" stroke="#263238" stroke-width="8.85159" stroke-miterlimit="10"/>
<path d="M3594.09 2189.61L3501.14 2269.94L3425.03 2168.56" stroke="#263238" stroke-width="8.85159" stroke-miterlimit="10"/>
<path d="M3594.09 2586.79L3501.14 2667.11L3425.03 2565.74" stroke="#263238" stroke-width="8.85159" stroke-miterlimit="10"/>
<path d="M3594.09 2988.19L3501.14 3068.51L3425.03 2967.14" stroke="#263238" stroke-width="8.85159" stroke-miterlimit="10"/>
<path d="M2659.36 3352.58H3154.48C3144.95 3292.09 3106.07 3302.72 3100.86 3208.55C3098.31 3161.24 3142.07 3102.75 3138.31 3040.7C3135.09 2989.63 3084.68 2937.11 3080.81 2878.62C3077.26 2825.88 3120.36 2767.27 3116.15 2710.33C3112.16 2656.59 3060.75 2604.97 3056.54 2549.13C3052.33 2493.29 3094.32 2435.35 3089.78 2380.17C3085.24 2325 3032.72 2274.37 3027.3 2220.08C3021.53 2164.13 3062.3 2103.97 3056.1 2050.57C3049.45 1993.74 2995.94 1944.77 2988.63 1892.48C2980.54 1834.2 3018.54 1771.94 3009.68 1721.75C2998.6 1660.15 2941.43 1615.5 2929.36 1570.08C2907.2 1485.43 2909.75 1403.89 2883.16 1398.57C2854.8 1392.81 2848.37 1472.8 2826.88 1562.32C2815.8 1606.64 2760.4 1652.73 2750.87 1714.33C2743.34 1764.29 2783 1825.12 2776.47 1882.95C2770.71 1934.91 2718.52 1984.76 2713.43 2041.27C2708.66 2094.34 2750.99 2152.94 2746.66 2208.45C2742.34 2263.95 2692.04 2313.92 2688.5 2368.65C2684.95 2423.38 2728.72 2480.88 2725.72 2534.84C2722.73 2588.79 2672.88 2642.64 2670.33 2696.04C2667.67 2752.54 2712.21 2809.48 2709.99 2862.22C2707.67 2920.27 2658.59 2973.01 2656.81 3024.2C2654.6 3085.8 2699.8 3142.63 2698.47 3189.49C2695.37 3291.2 2648.84 3270.15 2647.17 3352.02L2659.36 3352.58Z" fill="#92E3A9"/>
<path d="M2871.63 1561.54V3329.75" stroke="#263238" stroke-width="8.85159" stroke-miterlimit="10"/>
<path d="M2948.97 1746.9L2868.42 1816.58L2802.39 1728.62" stroke="#263238" stroke-width="8.85159" stroke-miterlimit="10"/>
<path d="M2948.97 2054.67L2868.42 2124.35L2802.39 2036.39" stroke="#263238" stroke-width="8.85159" stroke-miterlimit="10"/>
<path d="M2948.97 2344.16L2868.42 2413.74L2802.39 2325.88" stroke="#263238" stroke-width="8.85159" stroke-miterlimit="10"/>
<path d="M2948.97 2688.61L2868.42 2758.18L2802.39 2670.22" stroke="#263238" stroke-width="8.85159" stroke-miterlimit="10"/>
<path d="M2948.97 3036.6L2868.42 3106.29L2802.39 3018.32" stroke="#263238" stroke-width="8.85159" stroke-miterlimit="10"/>
<path d="M916.411 3352.58H1605.08C1591.9 3268.37 1537.72 3283.22 1530.52 3153.15C1526.97 3087.34 1587.8 3006.02 1582.48 2919.72C1578.16 2848.59 1508.03 2775.69 1502.6 2694.26C1497.73 2620.81 1558 2539.16 1551.79 2460.16C1546.25 2385.38 1475.13 2313.59 1468.92 2235.81C1462.72 2160.03 1521.32 2077.71 1514.46 2000.94C1507.59 1924.16 1435.13 1853.81 1427.49 1778.25C1419.62 1700.7 1476.34 1616.83 1467.7 1542.38C1458.4 1463.5 1383.94 1395.25 1373.86 1322.46C1362.78 1241.47 1415.41 1154.95 1403 1085.04C1387.93 999.396 1308.16 937.354 1291.32 874.536C1260.08 756.766 1263.96 643.207 1227.07 635.784C1187.63 627.918 1178.65 739.262 1148.85 863.568C1133.78 926.053 1055.79 989.425 1043.04 1075.07C1032.63 1144.53 1087.36 1228.95 1078.72 1309.61C1070.63 1381.84 998.063 1451.31 990.973 1529.86C984.326 1603.64 1043.27 1684.96 1037.5 1762.52C1031.85 1837.52 961.392 1909.09 956.517 1985.32C951.642 2061.54 1011.91 2141.53 1008.26 2216.76C1003.94 2294.31 934.802 2366.77 931.257 2441C927.49 2519.55 989.422 2598.76 986.652 2671.55C983.328 2752.32 915.082 2826.66 912.534 2896.79C909.542 2982.43 972.471 3061.53 970.477 3126.67C966.267 3268.26 901.455 3238.9 899.128 3352.8L916.411 3352.58Z" fill="#92E3A9"/>
<path d="M1212 861.353V3320.78" stroke="#263238" stroke-width="8.85159" stroke-miterlimit="10"/>
<path d="M1319.58 1119.27L1207.46 1216.1L1115.72 1093.79" stroke="#263238" stroke-width="8.85159" stroke-miterlimit="10"/>
<path d="M1319.58 1547.25L1207.46 1644.08L1115.72 1521.88" stroke="#263238" stroke-width="8.85159" stroke-miterlimit="10"/>
<path d="M1319.58 1949.87L1207.46 2046.7L1115.72 1924.38" stroke="#263238" stroke-width="8.85159" stroke-miterlimit="10"/>
<path d="M1319.58 2428.92L1207.46 2525.75L1115.72 2403.44" stroke="#263238" stroke-width="8.85159" stroke-miterlimit="10"/>
<path d="M1319.58 2913.07L1207.46 3009.9L1115.72 2887.59" stroke="#263238" stroke-width="8.85159" stroke-miterlimit="10"/>
<path d="M3052.12 1308.34C3377.27 1308.34 3640.85 1143.13 3640.85 939.341C3640.85 735.551 3377.27 570.346 3052.12 570.346C2726.98 570.346 2463.4 735.551 2463.4 939.341C2463.4 1143.13 2726.98 1308.34 3052.12 1308.34Z" fill="#263238" stroke="#263238" stroke-width="8.85159" stroke-miterlimit="10" stroke-linecap="round"/>
<path d="M1005.97 3125.06C1005.97 3125.06 961.556 3157.39 971.511 3171.74C981.466 3186.09 1041.39 3221.64 1059.95 3242.85C1078.5 3264.05 1118.13 3285.58 1156.91 3292.69C1195.7 3299.8 1242.44 3305.62 1239.6 3278.47C1236.75 3251.32 1189.69 3242.85 1176.89 3227.14C1164.09 3211.43 1145.08 3170.12 1145.08 3170.12L1027.17 3100.24L1005.97 3125.06Z" fill="white" stroke="#263238" stroke-width="8.85159" stroke-miterlimit="10" stroke-linecap="round"/>
<path d="M1499.21 2339.3C1499.21 2339.3 1475.36 2725.42 1464.95 2777.59C1454.54 2829.76 1145.34 3170.31 1145.34 3170.31C1145.34 3170.31 1082.77 3173.74 1061.89 3163.33C1042.37 3152.03 1023.76 3139.23 1006.23 3125.06C1006.23 3125.06 1051.48 3062.48 1065.38 3052.08C1079.27 3041.67 1114.05 3024.28 1124.46 3017.3C1134.87 3010.32 1204.43 2871.26 1204.43 2871.26L1241.21 2362.57L1499.21 2339.3Z" fill="#263238" stroke="#263238" stroke-width="8.85159" stroke-miterlimit="10" stroke-linecap="round"/>
<path d="M1383.82 3178.07L1415.17 3230.82C1419.44 3237.94 1502.12 3277.82 1502.12 3286.42C1502.12 3295.02 1490.74 3307.82 1483.63 3310.66C1476.52 3313.51 1373.73 3314.93 1342.45 3310.66C1311.16 3306.39 1288.27 3294.95 1265.45 3289.26C1242.63 3283.57 1226.67 3290.69 1225.5 3265.02C1224.34 3239.36 1236.36 3189.39 1236.36 3189.39C1236.36 3189.39 1248.32 3190.87 1288.08 3178.07C1327.84 3165.27 1383.82 3178.07 1383.82 3178.07Z" fill="white" stroke="#263238" stroke-width="8.85159" stroke-miterlimit="10" stroke-linecap="round"/>
<path d="M1156.98 2366.97C1156.98 2366.97 1191.11 2782.57 1208.7 2813.93C1226.28 2845.28 1246.97 3137.15 1246.97 3137.15C1246.97 3137.15 1213.87 3169.47 1231.26 3186.73C1248.65 3204 1232.62 3208.91 1232.62 3208.91C1232.62 3208.91 1285.24 3196.3 1302.63 3189.51C1320.02 3182.73 1389.25 3184.34 1389.25 3184.34C1389.25 3184.34 1410.39 3144.33 1413.88 3116.53C1417.37 3088.73 1396.49 2998.29 1396.49 2987.89C1396.49 2977.48 1410.39 2497.49 1410.39 2497.49L1495.46 2394.05L1156.98 2366.97Z" fill="#263238" stroke="#263238" stroke-width="8.85159" stroke-miterlimit="10" stroke-linecap="round"/>
<path d="M1350.91 1610.04L1346.78 1647.14C1308.17 1655.08 1268.78 1658.53 1229.38 1657.42C1165.45 1655.35 1157.04 1683.28 1157.04 1683.28C1157.04 1683.28 971.576 1947.23 979.851 1967.72C988.125 1988.21 1056.13 2007.93 1056.13 2007.93L1169.58 1908.95L1157.17 2366.84C1157.17 2366.84 1192.28 2410.15 1295.38 2414.29C1398.49 2418.42 1482.86 2401.94 1495.46 2393.67C1508.07 2385.39 1528.5 1993.51 1528.5 1993.51L1601.29 1992.74C1601.29 1992.74 1588.36 1816.12 1580.02 1768.67C1571.68 1721.22 1542.91 1698.6 1495.46 1682.05C1448.01 1665.5 1431.53 1647.01 1431.53 1647.01L1392.35 1595.3C1377.2 1594.94 1362.44 1600.19 1350.91 1610.04V1610.04Z" fill="white" stroke="#263238" stroke-width="8.85159" stroke-miterlimit="10" stroke-linecap="round"/>
<path d="M1295.19 2414.42C1398.62 2418.56 1482.66 2402.07 1495.27 2393.8C1507.87 2385.52 1528.3 1993.64 1528.3 1993.64L1621.13 1998.56C1621.13 1998.56 1588.1 1816.26 1579.82 1768.81C1571.55 1721.36 1542.72 1698.73 1495.27 1682.18C1447.82 1665.63 1431.33 1647.15 1431.33 1647.15L1392.16 1595.43C1377.1 1595.05 1362.43 1600.2 1350.91 1609.91L1346.78 1647.02C1308.18 1655 1268.78 1658.49 1229.38 1657.42C1165.45 1655.36 1157.04 1683.28 1157.04 1683.28C1157.04 1683.28 1063.76 1775.6 1022.52 1853.69L1128.99 1944.58L1169.65 1909.09L1157.24 2366.97C1157.24 2366.97 1192.08 2410.41 1295.19 2414.42Z" fill="#A3A3A3" stroke="#263238" stroke-width="8.85159" stroke-miterlimit="10" stroke-linecap="round"/>
<path d="M1548.66 2265.61C1601.87 2212.47 1610.01 2129.27 1610.01 2129.27L1600.96 1998.17L1528.3 1993.64L1523.65 2111.56C1513.86 2134.62 1509.32 2159.57 1510.33 2184.61C1511.62 2201.91 1510.53 2219.31 1507.1 2236.32H1506.58C1506.58 2236.32 1486.6 2275.76 1484.73 2282.61C1482.85 2289.46 1519.7 2305.11 1529.98 2307.63C1540.26 2310.15 1554.42 2310.15 1555 2301.16C1555.58 2292.18 1565.28 2290.3 1556.87 2281.77C1554.49 2279.77 1552.53 2277.3 1551.12 2274.53C1549.71 2271.75 1548.87 2268.72 1548.66 2265.61V2265.61Z" fill="white" stroke="#263238" stroke-width="8.85159" stroke-miterlimit="10" stroke-linecap="round"/>
<path d="M1532.31 2105.8C1532.31 2105.8 1570.19 2089.38 1595.79 2110.91" stroke="#263238" stroke-width="8.85159" stroke-miterlimit="10" stroke-linecap="round"/>
<path d="M1548.67 2265.6C1545.58 2262.78 1541.81 2260.81 1537.73 2259.89C1533.64 2258.97 1529.39 2259.13 1525.39 2260.37" stroke="#263238" stroke-width="8.85159" stroke-miterlimit="10" stroke-linecap="round"/>
<path d="M1506.19 2223.78C1523.26 2214.08 1552.54 2218.93 1564.89 2231.08C1573.36 2240.36 1578.05 2252.47 1578.05 2265.02C1578.05 2277.58 1573.36 2289.68 1564.89 2298.96C1551.96 2312.67 1533.35 2317.58 1516.34 2307.04C1499.34 2296.5 1488.09 2294.11 1487.25 2277.11C1486.59 2262.44 1489.47 2247.83 1495.66 2234.51C1497.97 2229.93 1501.65 2226.18 1506.19 2223.78V2223.78Z" fill="#92E3A9" stroke="#263238" stroke-width="8.85159" stroke-miterlimit="10" stroke-linecap="round"/>
<path d="M1238.63 1833.26L1169.39 1909.08L1238.63 1875.86" stroke="#263238" stroke-width="8.85159" stroke-miterlimit="10" stroke-linecap="round"/>
<path d="M1525.84 1971.99L1528.3 1846.83" stroke="#263238" stroke-width="8.85159" stroke-miterlimit="10" stroke-linecap="round"/>
<path d="M1526.04 1865.78C1526.04 1880.58 1509.88 1892.54 1489.9 1892.54C1469.93 1892.54 1453.83 1880.58 1453.83 1865.78C1453.83 1850.97 1469.99 1839.01 1489.9 1839.01C1509.81 1839.01 1526.04 1851.04 1526.04 1865.78Z" fill="#92E3A9" stroke="#263238" stroke-width="8.85159" stroke-miterlimit="10" stroke-linecap="round"/>
<path d="M1508.46 1865.77C1508.46 1873.34 1500.12 1879.48 1489.9 1879.48C1479.69 1879.48 1471.42 1873.01 1471.42 1865.77C1471.42 1858.53 1479.69 1852.07 1489.9 1852.07C1500.12 1852.07 1508.46 1858.21 1508.46 1865.77Z" fill="white" stroke="#263238" stroke-width="8.85159" stroke-miterlimit="10" stroke-linecap="round"/>
<path d="M1798 2551.08L2184.71 2586.7L2178.12 3208.13L1785.91 2572.22L1798 2551.08Z" fill="white" stroke="#263238" stroke-width="8.85159" stroke-miterlimit="10" stroke-linecap="round"/>
<path d="M1973.45 2787.94L1987.6 2806.43" stroke="#263238" stroke-width="8.85159" stroke-miterlimit="10" stroke-linecap="round"/>
<path d="M1824.51 2594.13L1956.58 2766.02" stroke="#263238" stroke-width="8.85159" stroke-miterlimit="10" stroke-linecap="round"/>
<path d="M1857.99 2585.21L1942.94 2600.85" stroke="#263238" stroke-width="8.85159" stroke-miterlimit="10" stroke-linecap="round"/>
<path d="M2023.81 2709.65L2045.72 2723.75" stroke="#263238" stroke-width="8.85159" stroke-miterlimit="10" stroke-linecap="round"/>
<path d="M1889.28 2623.22L2012.37 2702.35" stroke="#263238" stroke-width="8.85159" stroke-miterlimit="10" stroke-linecap="round"/>
<path d="M1763.68 2528.39L1798.97 2562.84" stroke="#263238" stroke-width="8.85159" stroke-miterlimit="10" stroke-linecap="round"/>
<path d="M1382.92 2156.16L1763.68 2528.39" stroke="#263238" stroke-width="8.85159" stroke-miterlimit="10" stroke-linecap="round"/>
<path d="M1193.57 2137.54C1193.57 2137.54 1100.41 2134.44 1091.11 2246.21C1081.8 2357.98 1202.42 3125.39 968.668 3302.9C756.954 3463.55 549.313 3437.3 415.692 3375.37C306.764 3324.82 643.696 3291.78 798.327 3332.12C910.293 3361.34 685.004 3428.44 461.461 3429.09C204.56 3429.67 70.1625 3338.59 5 3332.12" stroke="#263238" stroke-width="8.85159" stroke-miterlimit="10" stroke-linecap="round"/>
<path d="M1251.88 2152.48L1311.55 2134.44L1364.1 2179.11C1366.7 2181.32 1370.03 2182.47 1373.44 2182.32C1376.84 2182.18 1380.06 2180.75 1382.46 2178.33L1410.78 2150.02C1412.08 2148.76 1413.11 2147.25 1413.81 2145.59C1414.52 2143.92 1414.88 2142.13 1414.88 2140.32C1414.88 2138.51 1414.52 2136.72 1413.81 2135.06C1413.11 2133.39 1412.08 2131.88 1410.78 2130.63C1392.22 2112.01 1349.17 2072.44 1311.48 2062.75C1261.77 2050.34 1215.23 2084.47 1215.23 2084.47L1251.88 2152.48Z" fill="#263238" stroke="#263238" stroke-width="8.85159" stroke-miterlimit="10" stroke-linecap="round"/>
<path d="M1043.59 1932.03L1208.57 2059.9C1208.57 2059.9 1239.53 2068.18 1249.81 2078.46C1260.09 2088.73 1301.53 2121.77 1288.99 2134.18C1276.45 2146.59 1291.05 2142.39 1276.64 2146.53C1262.22 2150.66 1251.88 2152.99 1251.88 2152.99C1251.88 2152.99 1216.84 2167.41 1196.22 2165.34C1175.6 2163.27 1142.56 2115.89 1142.56 2105.54C1142.56 2095.2 973.453 2000.36 967.247 1987.95C961.041 1975.54 1018.96 1895.19 1018.96 1895.19" fill="white"/>
<path d="M1043.59 1932.03L1208.57 2059.9C1208.57 2059.9 1239.53 2068.18 1249.81 2078.46C1260.09 2088.73 1301.53 2121.77 1288.99 2134.18C1276.45 2146.59 1291.05 2142.39 1276.64 2146.53C1262.22 2150.66 1251.88 2152.99 1251.88 2152.99C1251.88 2152.99 1216.84 2167.41 1196.22 2165.34C1175.6 2163.27 1142.56 2115.89 1142.56 2105.54C1142.56 2095.2 973.453 2000.36 967.247 1987.95C961.041 1975.54 1018.96 1895.19 1018.96 1895.19" stroke="#263238" stroke-width="8.85159" stroke-miterlimit="10" stroke-linecap="round"/>
<path d="M1151.8 1994.74L1080.18 2075.55L1142.56 2105.03C1142.56 2105.03 1155.49 2137.99 1170.23 2154.54C1184.97 2171.09 1184.9 2176.59 1199.58 2176.59C1214.25 2176.59 1264.22 2160.04 1264.22 2160.04C1264.22 2160.04 1267.97 2163.59 1290.08 2149.05C1312.19 2134.5 1301.14 2125.13 1291.96 2110.26C1282.78 2095.39 1236.81 2062.49 1224.01 2053.31C1211.21 2044.13 1205.59 2038.63 1200.09 2034.95C1194.6 2031.26 1151.8 1994.74 1151.8 1994.74Z" fill="#92E3A9" stroke="#263238" stroke-width="8.85159" stroke-miterlimit="10" stroke-linecap="round"/>
<path d="M1495.27 1682.18C1447.82 1665.7 1431.33 1647.15 1431.33 1647.15L1392.16 1595.43C1377.1 1595.05 1362.43 1600.2 1350.91 1609.91L1346.78 1647.02C1346.78 1647.02 1342.38 1647.99 1334.88 1649.34C1344.51 1669.97 1380.97 1752.78 1435.47 1754.26C1474.26 1755.49 1498.56 1718.06 1511.75 1688.39C1506.52 1686.39 1500.89 1684.19 1495.27 1682.18Z" fill="white" stroke="#263238" stroke-width="8.85159" stroke-miterlimit="10" stroke-linecap="round"/>
<path d="M1542.72 1597.62L1524.16 1653.35L1501.47 1646.88C1501.47 1646.88 1495.01 1696.4 1482.92 1702.54C1470.83 1708.68 1458.16 1710.82 1433.4 1692.26C1408.64 1673.71 1383.88 1651.02 1383.88 1630.4C1383.88 1609.78 1396.29 1533.43 1408.64 1516.94C1420.99 1500.46 1542.72 1597.62 1542.72 1597.62Z" fill="white" stroke="#263238" stroke-width="8.85159" stroke-miterlimit="10" stroke-linecap="round"/>
<path d="M1500.38 1604.93C1499.34 1611 1495.79 1615.53 1492.36 1614.95C1488.93 1614.36 1486.99 1608.93 1488.03 1602.86C1489.06 1596.78 1492.62 1592.19 1496.04 1592.77C1499.47 1593.36 1501.41 1598.79 1500.38 1604.93Z" fill="#263238"/>
<path d="M1456.09 1539.89C1456.09 1539.89 1447.82 1564.65 1425.13 1566.72C1402.44 1568.79 1388.02 1537.82 1388.02 1537.82L1383.88 1630.65L1350.92 1610.03C1350.92 1610.03 1357.06 1531.62 1365.33 1508.93C1373.61 1486.24 1406.57 1475.96 1406.57 1475.96C1406.57 1475.96 1441.68 1515.13 1456.09 1539.89Z" fill="#263238" stroke="#263238" stroke-width="8.85159" stroke-miterlimit="10" stroke-linecap="round"/>
<path d="M1392.16 1595.87C1357.06 1589.41 1365.33 1544.16 1388.02 1538.15C1410.71 1532.13 1402.44 1569.05 1402.44 1569.05" fill="white"/>
<path d="M1392.16 1595.87C1357.06 1589.41 1365.33 1544.16 1388.02 1538.15C1410.71 1532.13 1402.44 1569.05 1402.44 1569.05" stroke="#263238" stroke-width="8.85159" stroke-miterlimit="10" stroke-linecap="round"/>
<path d="M1365.14 1508.93L1470.31 1564.66C1487.94 1572.27 1506.85 1576.46 1526.04 1577C1541.37 1577.32 1556.66 1575.14 1571.29 1570.54L1585.64 1508.48C1586.93 1502.87 1587.01 1497.05 1585.9 1491.4C1584.79 1485.76 1582.49 1480.41 1579.18 1475.7C1564.52 1454.32 1546.59 1435.39 1526.04 1419.59C1486.86 1390.76 1427.32 1410.99 1394.36 1429.55C1361.39 1448.1 1365.14 1508.93 1365.14 1508.93Z" fill="#92E3A9" stroke="#263238" stroke-width="8.85159" stroke-miterlimit="10" stroke-linecap="round"/>
<path d="M1570.97 1517.14C1568.32 1531.69 1550.28 1540.54 1530.69 1536.99C1511.11 1533.43 1497.34 1518.69 1499.99 1504.15C1502.64 1489.6 1520.67 1480.75 1540.26 1484.3C1559.85 1487.86 1573.62 1502.6 1570.97 1517.14Z" fill="#92E3A9" stroke="#263238" stroke-width="8.85159" stroke-miterlimit="10" stroke-linecap="round"/>
<path d="M1553.64 1513.97C1552.28 1521.41 1543.04 1526 1533.02 1524.12C1523 1522.25 1515.89 1514.81 1517.25 1507.31C1518.6 1499.82 1527.85 1495.29 1537.93 1497.17C1548.02 1499.04 1555.06 1506.54 1553.64 1513.97Z" fill="white" stroke="#263238" stroke-width="8.85159" stroke-miterlimit="10" stroke-linecap="round"/>
<path d="M1454.03 1558.45C1478.44 1553.32 1503.37 1551.15 1528.3 1551.99C1565.41 1554.05 1598.31 1587.02 1598.31 1587.02C1598.31 1587.02 1630.64 1619.73 1628.44 1625.81C1626.24 1631.89 1579.83 1622.06 1548.92 1619.99C1518.02 1617.92 1454.03 1558.45 1454.03 1558.45Z" fill="#92E3A9" stroke="#263238" stroke-width="8.85159" stroke-miterlimit="10" stroke-linecap="round"/>
<path d="M1461.27 1637.83C1463.25 1644.31 1467.01 1650.1 1472.12 1654.54C1477.22 1658.99 1483.48 1661.91 1490.16 1662.98" stroke="#263238" stroke-width="8.85159" stroke-miterlimit="10" stroke-linecap="round"/>
<path d="M1451.95 1705.71L1447.43 1741.72L1482.92 1702.8L1451.95 1705.71Z" fill="#263238"/>
<path d="M1491.33 2271.81C1491.33 2271.81 1471.93 2301.48 1483.12 2311.76C1490.74 2318.74 1515.44 2331.15 1530.57 2338.01C1534.07 2339.66 1538.03 2340.1 1541.82 2339.27C1545.61 2338.44 1549.01 2336.38 1551.51 2333.42C1556.71 2327.96 1560.95 2321.66 1564.05 2314.8C1566.12 2306.59 1546.6 2288.16 1546.6 2288.16L1538.45 2291.27C1538.45 2291.27 1507.68 2259.46 1501.54 2260.5C1495.4 2261.53 1491.33 2271.81 1491.33 2271.81Z" fill="#92E3A9" stroke="#263238" stroke-width="8.85159" stroke-miterlimit="10" stroke-linecap="round"/>
<path d="M1548.21 2273.1C1548.21 2273.1 1534.51 2289.4 1540 2293.73C1545.5 2298.06 1563.08 2316.03 1566.38 2312.73C1569.67 2309.44 1581.25 2303.68 1574.65 2295.41C1568.06 2287.13 1557.33 2272.33 1548.21 2273.1Z" fill="#92E3A9" stroke="#263238" stroke-width="8.85159" stroke-miterlimit="10" stroke-linecap="round"/>
<path d="M3776.99 2694.86V3063.33H2338.38V2694.86H2067.9V3232.7C2067.88 3242.64 2069.83 3252.47 2073.62 3261.65C2077.41 3270.83 2082.97 3279.18 2089.99 3286.2C2097.01 3293.23 2105.35 3298.8 2114.53 3302.6C2123.7 3306.4 2133.54 3308.35 2143.47 3308.34H2262.81C2282.84 3308.34 2302.05 3300.39 2316.22 3286.23C2330.39 3272.07 2338.36 3252.86 2338.38 3232.83V3208.01H2469.41L2530.76 3169.22H3579.05L3657.14 3213.83H3776.99V3233.22C3777.01 3253.25 3784.98 3272.46 3799.15 3286.62C3813.32 3300.77 3832.53 3308.73 3852.56 3308.73H3971.9C3981.82 3308.74 3991.65 3306.79 4000.81 3303C4009.98 3299.21 4018.31 3293.65 4025.33 3286.63C4032.35 3279.62 4037.92 3271.3 4041.72 3262.13C4045.51 3252.97 4047.47 3243.14 4047.47 3233.22V2694.86H3776.99Z" fill="#263238" stroke="#263238" stroke-width="8.85159" stroke-miterlimit="10" stroke-linecap="round"/>
<path d="M3991.68 2430.13C3980.56 2407.76 3891.35 2315.77 3891.35 2315.77C3891.35 2315.77 3721.66 1992.16 3693.41 1939.41C3639.75 1839.34 3551.19 1855.76 3551.19 1855.76L3054.91 1830.67L3052.13 1831.45L3049.35 1830.67L2553.06 1855.76C2553.06 1855.76 2462.17 1846.45 2410.84 1939.41C2381.88 1991.77 2212.9 2315.77 2212.9 2315.77C2212.9 2315.77 2123.69 2407.76 2112.51 2430.13C2101.32 2452.5 2056.85 2536.02 2056.85 2552.63C2056.85 2567.57 2067.9 2821.1 2117.55 3010.39C2123.16 3031.26 2133.79 3050.45 2148.5 3066.29C2163.21 3082.13 2181.57 3094.14 2201.98 3101.28C2211.83 3105.24 2222.05 3108.25 2232.49 3110.26H2594.95L2686.94 2951.36C2722.19 2922.15 2766.64 2906.35 2812.42 2906.76H3291.96C3337.74 2906.35 3382.19 2922.15 3417.44 2951.36L3509.43 3110.26H3871.89C3882.31 3108.26 3892.51 3105.25 3902.34 3101.28C3922.76 3094.15 3941.13 3082.15 3955.86 3066.31C3970.58 3050.47 3981.22 3031.27 3986.83 3010.39C4036.48 2821.1 4047.53 2567.57 4047.53 2552.63C4047.47 2536.02 4002.67 2452.43 3991.68 2430.13Z" fill="#92E3A9" stroke="#263238" stroke-width="8.85159" stroke-miterlimit="10" stroke-linecap="round"/>
<path d="M2594.89 3110.4L2575.5 3155H3523.32L3509.36 3110.4L3417.37 2951.5C3417.37 2951.5 3381.1 2909.67 3291.89 2906.89C3202.68 2904.11 2812.36 2906.89 2812.36 2906.89C2766.45 2905.71 2721.74 2921.6 2686.88 2951.5L2594.89 3110.4Z" fill="#787878" stroke="#263238" stroke-width="8.85159" stroke-miterlimit="10" stroke-linecap="round"/>
<path d="M2675.7 2580.69C2675.7 2580.69 2751.01 2714.51 2773.31 2736.81C2795.61 2759.11 2820.7 2759.11 2851.4 2761.89C2882.11 2764.67 3303.01 2761.89 3303.01 2761.89C3303.01 2761.89 3336.5 2756.33 3353.24 2731.25C3369.99 2706.17 3425.71 2580.69 3425.71 2580.69H2675.7Z" fill="#263238" stroke="#263238" stroke-width="8.85159" stroke-miterlimit="10" stroke-linecap="round"/>
<path d="M2750.43 2598.86C2750.43 2598.86 2810.68 2705.97 2828.58 2723.88C2846.49 2741.79 2866.53 2741.72 2891.09 2743.98C2915.66 2746.25 3252.78 2743.98 3252.78 2743.98C3252.78 2743.98 3279.61 2739.52 3292.99 2719.42C3306.38 2699.31 3351.17 2598.86 3351.17 2598.86H2750.43Z" fill="#787878" stroke="#263238" stroke-width="8.85159" stroke-miterlimit="10" stroke-linecap="round"/>
<path d="M3365.27 3063.33L3348.59 3017.24C3343.42 3003.04 3333.94 2990.81 3321.49 2982.25C3309.03 2973.7 3294.21 2969.25 3279.1 2969.53L2826.26 2974.12C2810.7 2974.44 2795.66 2979.76 2783.36 2989.29C2771.07 2998.83 2762.17 3012.08 2757.99 3027.06L2746.74 3063.33H3365.27Z" fill="#263238" stroke="#263238" stroke-width="8.85159" stroke-miterlimit="10" stroke-linecap="round"/>
<path d="M2739.76 3085.31L2725.93 3129.92H3389.45L3373.35 3085.31H2739.76Z" fill="#263238" stroke="#263238" stroke-width="8.85159" stroke-miterlimit="10" stroke-linecap="round"/>
<path d="M3891.35 2315.77C3891.35 2315.77 3905.25 2207.04 3930.14 2207.04C3955.03 2207.04 4066.73 2237.75 4069.51 2260.05C4072.29 2282.35 4047.21 2307.43 4024.91 2312.99C4002.61 2318.55 3955.22 2324.18 3955.22 2324.18L3944.49 2366L3891.35 2315.77Z" fill="#92E3A9" stroke="#263238" stroke-width="8.85159" stroke-miterlimit="10" stroke-linecap="round"/>
<path d="M2212.9 2315.77C2212.9 2315.77 2198.94 2207.04 2174.11 2207.04C2149.29 2207.04 2037.52 2237.75 2034.74 2260.05C2031.96 2282.35 2057.04 2307.43 2079.34 2312.99C2101.65 2318.55 2149.03 2324.18 2149.03 2324.18L2160.15 2366L2212.9 2315.77Z" fill="#92E3A9" stroke="#263238" stroke-width="8.85159" stroke-miterlimit="10" stroke-linecap="round"/>
<path d="M2288.15 2251.65C2288.15 2251.65 3375.54 2209.82 3807.7 2251.65L3618.09 1906.18C3618.09 1906.18 3127.37 1844.83 2488.93 1908.96C2488.93 1908.7 2357.9 2115.05 2288.15 2251.65Z" fill="white" stroke="#263238" stroke-width="8.85159" stroke-miterlimit="10" stroke-linecap="round"/>
<path d="M2536.32 2566.72C2536.32 2566.72 2586.49 2619.67 2603.23 2717.28C2603.23 2717.28 2366.24 2706.1 2274.25 2669.9C2182.26 2633.7 2170.82 2631.11 2168.29 2614.11C2165.77 2597.11 2173.85 2477.51 2210.12 2457.99C2246.39 2438.47 2285.37 2444.03 2321.63 2471.89C2357.9 2499.75 2402.5 2541.64 2427.59 2549.98C2452.67 2558.32 2536.32 2566.72 2536.32 2566.72Z" fill="white" stroke="#263238" stroke-width="8.85159" stroke-miterlimit="10" stroke-linecap="round"/>
<path d="M2354.78 2621.03C2380.31 2595.51 2380.31 2554.13 2354.78 2528.6C2329.26 2503.08 2287.88 2503.08 2262.36 2528.6C2236.83 2554.13 2236.83 2595.51 2262.36 2621.03C2287.88 2646.56 2329.26 2646.56 2354.78 2621.03Z" fill="white" stroke="#263238" stroke-width="8.85159" stroke-miterlimit="10" stroke-linecap="round"/>
<path d="M2490.62 2656.52C2490.62 2662.53 2488.83 2668.41 2485.49 2673.41C2482.15 2678.4 2477.4 2682.3 2471.85 2684.6C2466.29 2686.89 2460.18 2687.49 2454.28 2686.31C2448.39 2685.14 2442.97 2682.24 2438.73 2677.98C2434.48 2673.73 2431.59 2668.31 2430.43 2662.41C2429.26 2656.51 2429.87 2650.4 2432.18 2644.85C2434.49 2639.3 2438.4 2634.56 2443.4 2631.23C2448.41 2627.9 2454.29 2626.12 2460.3 2626.14C2464.28 2626.14 2468.23 2626.92 2471.91 2628.45C2475.6 2629.98 2478.94 2632.22 2481.76 2635.04C2484.58 2637.86 2486.81 2641.21 2488.33 2644.9C2489.85 2648.58 2490.62 2652.53 2490.62 2656.52V2656.52Z" fill="white" stroke="#263238" stroke-width="8.85159" stroke-miterlimit="10" stroke-linecap="round"/>
<path d="M3576.01 2566.72C3576.01 2566.72 3525.78 2619.67 3509.04 2717.28C3509.04 2717.28 3746.03 2706.1 3838.08 2669.9C3930.14 2633.7 3941.52 2631.11 3944.04 2614.11C3946.56 2597.11 3938.41 2477.51 3902.21 2457.99C3866.01 2438.47 3826.9 2444.03 3790.63 2471.89C3754.37 2499.75 3709.83 2541.64 3684.74 2549.98C3659.66 2558.32 3576.01 2566.72 3576.01 2566.72Z" fill="white" stroke="#263238" stroke-width="8.85159" stroke-miterlimit="10" stroke-linecap="round"/>
<path d="M3833.58 2638.51C3868.7 2630.18 3890.42 2594.96 3882.09 2559.84C3873.77 2524.72 3838.54 2503 3803.42 2511.33C3768.3 2519.65 3746.58 2554.88 3754.91 2590C3763.24 2625.12 3798.46 2646.84 3833.58 2638.51Z" fill="white" stroke="#263238" stroke-width="8.85159" stroke-miterlimit="10" stroke-linecap="round"/>
<path d="M3636.52 2656.52C3636.52 2662.53 3638.3 2668.41 3641.64 2673.41C3644.98 2678.4 3649.73 2682.3 3655.29 2684.6C3660.85 2686.89 3666.96 2687.49 3672.85 2686.31C3678.75 2685.14 3684.16 2682.24 3688.41 2677.98C3692.66 2673.73 3695.54 2668.31 3696.71 2662.41C3697.87 2656.51 3697.26 2650.4 3694.95 2644.85C3692.64 2639.3 3688.74 2634.56 3683.73 2631.23C3678.73 2627.9 3672.85 2626.12 3666.84 2626.14C3662.85 2626.14 3658.9 2626.92 3655.22 2628.45C3651.54 2629.98 3648.19 2632.22 3645.38 2635.04C3642.56 2637.86 3640.33 2641.21 3638.81 2644.9C3637.29 2648.58 3636.51 2652.53 3636.52 2656.52Z" fill="white" stroke="#263238" stroke-width="8.85159" stroke-miterlimit="10" stroke-linecap="round"/>
<path d="M3874.61 2814.83C3874.61 2814.83 3615.31 2865.06 3604.13 2873.4C3592.95 2881.74 3570.71 2929.19 3570.71 2929.19L3623.65 2915.23C3623.65 2915.23 3746.48 2920.79 3788.18 2901.26C3829.87 2881.74 3874.61 2814.83 3874.61 2814.83Z" fill="#263238" stroke="#263238" stroke-width="8.85159" stroke-miterlimit="10" stroke-linecap="round"/>
<path d="M2249.17 2814.83C2249.17 2814.83 2508.46 2865.06 2519.58 2873.4C2530.7 2881.74 2553.06 2929.19 2553.06 2929.19L2500.05 2915.23C2500.05 2915.23 2377.23 2920.79 2335.6 2901.26C2293.97 2881.74 2249.17 2814.83 2249.17 2814.83Z" fill="#263238" stroke="#263238" stroke-width="8.85159" stroke-miterlimit="10" stroke-linecap="round"/>
<path d="M3549.64 2609.65L3480.4 2586.57H3425.71" stroke="#263238" stroke-width="8.85159" stroke-miterlimit="10" stroke-linecap="round"/>
<path d="M2567.03 2606.35L2613.18 2579.98L2675.7 2580.62" stroke="#263238" stroke-width="8.85159" stroke-miterlimit="10" stroke-linecap="round"/>
<path d="M3745.9 2297.81C3752.95 2293.8 3760.06 2289.98 3767.23 2286.49" stroke="#263238" stroke-width="8.85159" stroke-miterlimit="10" stroke-linecap="round"/>
<path d="M3438.96 2693.63C3482.6 2597.69 3582.35 2406.99 3721.72 2312.86" stroke="#263238" stroke-width="8.85159" stroke-miterlimit="10" stroke-linecap="round"/>
<path d="M3414.4 2751.42C3414.4 2751.42 3417.82 2742.3 3424.48 2726.47" stroke="#263238" stroke-width="8.85159" stroke-miterlimit="10" stroke-linecap="round"/>
<path d="M2382.08 2312.87C2370.48 2305.8 2358.5 2299.21 2346.13 2293.09" stroke="#263238" stroke-width="8.85159" stroke-miterlimit="10" stroke-linecap="round"/>
<path d="M2661.34 2695.69C2632.77 2610.36 2558.36 2433.81 2406.64 2328.77" stroke="#263238" stroke-width="8.85159" stroke-miterlimit="10" stroke-linecap="round"/>
<path d="M2675.82 2744.82C2675.82 2744.82 2673.82 2735.97 2669.36 2720.58" stroke="#263238" stroke-width="8.85159" stroke-miterlimit="10" stroke-linecap="round"/>
<path d="M2267.01 2448.04C2267.01 2448.04 2237.33 2375.5 2237.33 2332.64Z" fill="white"/>
<path d="M2267.01 2448.04C2267.01 2448.04 2237.33 2375.5 2237.33 2332.64" stroke="#263238" stroke-width="8.85159" stroke-miterlimit="10" stroke-linecap="round"/>
<path d="M3852.95 2444.74C3860.96 2414.4 3866.47 2383.47 3869.44 2352.23Z" fill="white"/>
<path d="M3852.95 2444.74C3860.96 2414.4 3866.47 2383.47 3869.44 2352.23" stroke="#263238" stroke-width="8.85159" stroke-miterlimit="10" stroke-linecap="round"/>
<path d="M3955.22 2754.71L3935.44 3011.61L3569.55 3028.35C3569.55 3028.35 3506.91 2952.53 3503.61 2919.56C3500.31 2886.59 3546.47 2837.13 3559.66 2833.84C3572.84 2830.54 3803.63 2784.38 3803.63 2784.38" stroke="#263238" stroke-width="8.85159" stroke-miterlimit="10" stroke-linecap="round"/>
<path d="M2164.61 2754.71L2184.39 3011.61L2550.41 3028.1C2550.41 3028.1 2613.05 2952.27 2616.35 2919.3C2619.65 2886.33 2573.49 2836.88 2560.3 2833.58C2547.12 2830.28 2316.27 2784.12 2316.27 2784.12" stroke="#263238" stroke-width="8.85159" stroke-miterlimit="10" stroke-linecap="round"/>
<path d="M2776.48 2643.14L3045.53 2664.66C3056.96 2665.57 3068.43 2665.57 3079.86 2664.66L3327.84 2645.27" stroke="#263238" stroke-width="8.85159" stroke-miterlimit="10" stroke-linecap="round"/>
<path d="M2794.19 2670.93L3045.53 2691.04C3056.96 2691.97 3068.44 2691.97 3079.86 2691.04L3319.05 2672.48" stroke="#263238" stroke-width="8.85159" stroke-miterlimit="10" stroke-linecap="round"/>
<path d="M2812.23 2699.12L3045.53 2717.8C3056.96 2718.67 3068.43 2718.67 3079.86 2717.8L3307.09 2700.15" stroke="#263238" stroke-width="8.85159" stroke-miterlimit="10" stroke-linecap="round"/>
<path d="M2966.41 2081.63C2841.7 2154.94 2500.96 2220.23 2324.8 2250.35C2517.83 2243.5 3422.74 2214.41 3807.7 2251.65L3637.94 1942.06C3391.12 1925.57 3094.34 2006.38 2966.41 2081.63Z" fill="#787878"/>
<path d="M2288.15 2251.65C2288.15 2251.65 3375.54 2209.82 3807.7 2251.65L3618.09 1906.18C3618.09 1906.18 3127.37 1844.83 2488.93 1908.96C2488.93 1908.7 2357.9 2115.05 2288.15 2251.65Z" stroke="#263238" stroke-width="8.85159" stroke-miterlimit="10" stroke-linecap="round"/>
<path d="M2627.41 2294.57C2627.41 2294.57 2633.87 2313.64 2684.68 2361.41C2735.49 2409.18 2777 2342.34 2831.17 2313.64C2885.34 2284.94 2821.6 2259.53 3015.8 2399.62C3209.99 2539.7 3295.9 2568.34 3372.31 2485.53C3448.72 2402.72 3556.94 2278.67 3607.88 2307.3C3658.82 2335.94 3690.69 2390.05 3735.23 2390.05C3779.77 2390.05 3837.11 2300.9 3837.11 2300.9" stroke="white" stroke-width="8.85159" stroke-miterlimit="10" stroke-linecap="round"/>
<path d="M2627.41 2310.47C2627.41 2310.47 2633.87 2329.87 2684.68 2377.32C2735.49 2424.77 2777 2358.25 2831.17 2329.61C2885.34 2300.97 2821.6 2275.44 3015.8 2415.52C3209.99 2555.61 3295.9 2584.25 3372.31 2501.5C3448.72 2418.76 3556.94 2294.64 3607.88 2323.21C3658.82 2351.78 3690.69 2405.96 3735.23 2405.96C3779.77 2405.96 3837.11 2316.87 3837.11 2316.87" stroke="#263238" stroke-width="8.85159" stroke-miterlimit="10" stroke-linecap="round"/>
<path d="M2203.85 2382.03C2203.85 2382.03 2103.07 2478.03 2105.46 2554.83C2107.85 2631.63 2177.47 2643.65 2189.5 2698.86C2201.52 2754.07 2321.5 2790.07 2439.09 2758.85C2556.68 2727.63 2607.17 2758.85 2643.11 2823.5C2679.06 2888.14 2739.05 2893.25 2787.34 2869.39" stroke="#263238" stroke-width="8.85159" stroke-miterlimit="10" stroke-linecap="round"/>
<path d="M2215.87 2370.01C2215.87 2370.01 2115.03 2466.07 2117.48 2542.87C2119.94 2619.67 2189.43 2631.63 2201.52 2686.84C2213.61 2742.04 2333.46 2778.05 2451.18 2746.57C2568.9 2715.09 2619.26 2746.57 2655.2 2811.21C2691.15 2875.86 2751.2 2880.77 2799.17 2856.79" stroke="white" stroke-width="8.85159" stroke-miterlimit="10" stroke-linecap="round"/>
<path d="M3972.68 2499.62C3972.68 2499.62 3951.08 2667.7 3886.31 2698.86C3821.53 2730.02 3555.07 2754.07 3492.68 2797.25C3430.3 2840.44 3428.04 2934.04 3428.04 2934.04" stroke="white" stroke-width="8.85159" stroke-miterlimit="10" stroke-linecap="round"/>
<path d="M3972.68 2513.85C3972.68 2513.85 3950.95 2681.92 3886.31 2713.28C3821.66 2744.63 3555.07 2768.42 3492.68 2811.67C3430.3 2854.91 3428.04 2948.46 3428.04 2948.46" stroke="#263238" stroke-width="8.85159" stroke-miterlimit="10" stroke-linecap="round"/>
<path d="M3108.75 1889.63C3108.75 1889.63 3146.9 1883.17 3169.33 1943.42C3191.76 2003.67 3232.1 2149.76 3299.39 2151.96C3366.69 2154.16 3377.87 2021.9 3415.76 1968.11C3453.64 1914.33 3525.65 1925.51 3568.19 1961.65" stroke="white" stroke-width="8.85159" stroke-miterlimit="10" stroke-linecap="round"/>
<path d="M3106.49 1903.08C3106.49 1903.08 3144.63 1896.61 3167.06 1956.86C3189.5 2017.11 3229.83 2163.21 3297.13 2165.41C3364.43 2167.61 3375.61 2035.47 3413.75 1981.56C3451.89 1927.64 3523.65 1938.96 3566.25 1975.09" stroke="#263238" stroke-width="8.85159" stroke-miterlimit="10" stroke-linecap="round"/>
<path d="M2281.23 2364.45C2281.23 2364.45 2310.58 2385.01 2348.78 2432.01C2386.99 2479 2401.6 2455.47 2419.25 2420.24C2436.89 2385.01 2477.94 2461.35 2513.18 2514.23C2548.41 2567.11 2557.26 2575.91 2563.15 2546.56" stroke="white" stroke-width="8.85159" stroke-miterlimit="10" stroke-linecap="round"/>
<path d="M2280.07 2376.02C2280.07 2376.02 2309.41 2396.58 2347.62 2443.51C2385.83 2490.44 2400.44 2467.04 2418.08 2431.81C2435.73 2396.58 2476.78 2472.93 2512.08 2525.74C2547.37 2578.56 2556.1 2587.41 2561.98 2558.06" stroke="#263238" stroke-width="8.85159" stroke-miterlimit="10" stroke-linecap="round"/>
</svg>
