<svg width="2855" height="1753" viewBox="0 0 2855 1753" fill="none" xmlns="http://www.w3.org/2000/svg">
<g clip-path="url(#clip0_1301_115)">
<path d="M1151 1140L44.5 1204L1241 1257L2372.5 1204L1151 1140Z" fill="#92E3A9"/>
<path d="M597.921 505.44H593.367C588.835 505.44 584.368 504.37 580.332 502.31C576.297 500.25 572.807 497.26 570.149 493.59C567.491 489.92 565.74 485.67 565.041 481.19C564.342 476.72 564.714 472.14 566.127 467.832C571.862 450.122 581.56 432.243 597.921 429.545C631.654 423.894 724.419 452.061 724.419 471.71C724.419 491.36 724.419 499.79 713.119 499.79H642.87L586.62 561.69L585.439 560.68C582.534 558.25 580.197 555.21 578.593 551.78C576.99 548.35 576.158 544.61 576.158 540.82C576.158 537.03 576.99 533.29 578.593 529.86C580.197 526.43 582.534 523.39 585.439 520.96C590.456 516.54 594.677 511.29 597.921 505.44Z" fill="#263238" stroke="#263238" stroke-width="7" stroke-linecap="round" stroke-linejoin="round"/>
<path d="M1233.2 1028.3H2166.5C2166.5 1028.3 2301.43 938.32 2273.27 702.19C2245.1 466.061 2093.39 623.51 2037.14 780.96H1621.12C1621.12 780.96 1531.14 600.99 1384.99 623.51C1238.85 646.03 1233.2 1028.3 1233.2 1028.3Z" fill="#263238" stroke="#263238" stroke-width="7" stroke-linecap="round" stroke-linejoin="round"/>
<path d="M1462.5 981.58C1462.5 912.18 1442.68 849.77 1410.88 805.67V739.89H1298.38C1207.64 739.89 1134.19 848.09 1134.19 981.58C1134.19 1115.08 1207.64 1222.86 1298.38 1222.86H1410.88V1157.08C1442.68 1113.23 1462.5 1050.91 1462.5 981.58Z" fill="#263238" stroke="#263238" stroke-width="7" stroke-linecap="round" stroke-linejoin="round"/>
<path d="M1410.88 1223.2C1501.57 1223.2 1575.08 1115.02 1575.08 981.58C1575.08 848.15 1501.57 739.97 1410.88 739.97C1320.2 739.97 1246.69 848.15 1246.69 981.58C1246.69 1115.02 1320.2 1223.2 1410.88 1223.2Z" fill="#263238"/>
<path opacity="0.2" d="M1410.88 1223.2C1501.57 1223.2 1575.08 1115.02 1575.08 981.58C1575.08 848.15 1501.57 739.97 1410.88 739.97C1320.2 739.97 1246.69 848.15 1246.69 981.58C1246.69 1115.02 1320.2 1223.2 1410.88 1223.2Z" fill="white"/>
<path d="M1410.88 1223.2C1501.57 1223.2 1575.08 1115.02 1575.08 981.58C1575.08 848.15 1501.57 739.97 1410.88 739.97C1320.2 739.97 1246.69 848.15 1246.69 981.58C1246.69 1115.02 1320.2 1223.2 1410.88 1223.2Z" stroke="#263238" stroke-width="7" stroke-linecap="round" stroke-linejoin="round"/>
<path d="M448.314 739.89H341.634C255.952 739.89 186.462 848.09 186.462 981.58C186.462 1115.08 256.289 1222.86 341.634 1222.86H447.977C533.658 1222.86 603.148 1114.66 603.148 981.25C603.148 847.83 533.996 739.89 448.314 739.89Z" fill="#263238" stroke="#263238" stroke-width="7" stroke-linecap="round" stroke-linejoin="round"/>
<path d="M1410.88 1174.37C1483.22 1174.37 1541.85 1088.06 1541.85 981.58C1541.85 875.11 1483.22 788.8 1410.88 788.8C1338.55 788.8 1279.92 875.11 1279.92 981.58C1279.92 1088.06 1338.55 1174.37 1410.88 1174.37Z" fill="white" stroke="#263238" stroke-width="7" stroke-linecap="round" stroke-linejoin="round"/>
<path d="M2231.36 981.58C2231.36 912.18 2218.71 849.77 2198.47 805.67V739.89H2099.12C2041.44 739.89 1994.63 848.09 1994.63 981.58C1994.63 1115.08 2041.44 1222.86 2099.12 1222.86H2198.47V1157.08C2218.71 1113.23 2231.36 1050.91 2231.36 981.58Z" fill="#263238" stroke="#263238" stroke-width="7" stroke-linecap="round" stroke-linejoin="round"/>
<path d="M2198.46 1223.2C2256.17 1223.2 2302.95 1115.02 2302.95 981.58C2302.95 848.15 2256.17 739.97 2198.46 739.97C2140.76 739.97 2093.98 848.15 2093.98 981.58C2093.98 1115.02 2140.76 1223.2 2198.46 1223.2Z" fill="#263238"/>
<path opacity="0.2" d="M2198.46 1223.2C2256.17 1223.2 2302.95 1115.02 2302.95 981.58C2302.95 848.15 2256.17 739.97 2198.46 739.97C2140.76 739.97 2093.98 848.15 2093.98 981.58C2093.98 1115.02 2140.76 1223.2 2198.46 1223.2Z" fill="white"/>
<path d="M2198.46 1223.2C2256.17 1223.2 2302.95 1115.02 2302.95 981.58C2302.95 848.15 2256.17 739.97 2198.46 739.97C2140.76 739.97 2093.98 848.15 2093.98 981.58C2093.98 1115.02 2140.76 1223.2 2198.46 1223.2Z" stroke="#263238" stroke-width="7" stroke-linecap="round" stroke-linejoin="round"/>
<path d="M2198.46 1174.37C2244.48 1174.37 2281.78 1088.06 2281.78 981.58C2281.78 875.11 2244.48 788.8 2198.46 788.8C2152.45 788.8 2115.14 875.11 2115.14 981.58C2115.14 1088.06 2152.45 1174.37 2198.46 1174.37Z" fill="white" stroke="#263238" stroke-width="7" stroke-linecap="round" stroke-linejoin="round"/>
<path d="M1272.49 1040.53C1272.49 848 1339.45 691.9 1421.93 691.9C1504.41 691.9 1571.37 848 1571.37 1040.53C1571.37 1051.16 1571.37 1061.62 1570.69 1071.9H2103.08C2102.75 1061.62 2102.58 1051.16 2102.58 1040.53C2102.58 848 2151.32 691.9 2211.45 691.9C2251.59 691.9 2286.68 761.65 2305.48 865.37V581.01C2305.48 568.04 2300.95 555.49 2292.66 545.52C2284.37 535.56 2272.86 528.81 2260.11 526.44L2257.58 525.94C2220.64 518.52 2154.27 448.435 2050.97 359.886C1947.66 271.337 1855.4 264 1855.4 264H923.527C905.885 264.069 888.767 270.003 874.867 280.866L557.018 526.19C557.018 526.19 272.902 581.51 210.159 644.26C147.416 707 154.837 1072.16 154.837 1072.16H1273.17C1272.75 1061.62 1272.49 1051.16 1272.49 1040.53Z" fill="#B9BAFA"/>
<path opacity="0.3" d="M1457.01 525.94L1506.35 264H923.526C905.884 264.069 888.766 270.003 874.866 280.866L557.017 526.19C557.017 526.19 272.902 581.51 210.158 644.26C147.415 707 154.836 1072.16 154.836 1072.16H1152.66C1159.91 874.99 1205.11 781.21 1205.11 781.21H929.598C1143.21 550.39 1457.01 525.94 1457.01 525.94Z" fill="black"/>
<path d="M1272.49 1040.53C1272.49 848 1339.45 691.9 1421.93 691.9C1504.41 691.9 1571.37 848 1571.37 1040.53C1571.37 1051.16 1571.37 1061.62 1570.69 1071.9H2103.08C2102.75 1061.62 2102.58 1051.16 2102.58 1040.53C2102.58 848 2151.32 691.9 2211.45 691.9C2251.59 691.9 2286.68 761.65 2305.48 865.37V581.01C2305.48 568.04 2300.95 555.49 2292.66 545.52C2284.37 535.56 2272.86 528.81 2260.11 526.44L2257.58 525.94C2220.64 518.52 2154.27 448.435 2050.97 359.886C1947.66 271.337 1855.4 264 1855.4 264H923.527C905.885 264.069 888.767 270.003 874.867 280.866L557.018 526.19C557.018 526.19 272.902 581.51 210.159 644.26C147.416 707 154.837 1072.16 154.837 1072.16H1273.17C1272.75 1061.62 1272.49 1051.16 1272.49 1040.53Z" stroke="#263238" stroke-width="7" stroke-linecap="round" stroke-linejoin="round"/>
<path d="M1626.69 264H923.527C905.885 264.069 888.767 270.003 874.867 280.866L557.018 526.19H1457.01L1626.69 264Z" fill="#B9BAFA" stroke="#263238" stroke-width="7" stroke-linecap="round" stroke-linejoin="round"/>
<path d="M1258.33 624.61C1207.73 625.28 1119.09 628.65 1080.72 644C1048.93 656.49 1018.09 671.28 988.463 688.28H1169.19L1258.33 624.61Z" fill="#263238" stroke="#263238" stroke-width="7" stroke-linecap="round" stroke-linejoin="round"/>
<path d="M1180.32 743.6V710.37H988.463L1023.21 742.42C1022.66 742.75 1022.15 743.14 1021.69 743.6H1180.32Z" fill="#263238" stroke="#263238" stroke-width="7" stroke-linecap="round" stroke-linejoin="round"/>
<path d="M1198.7 695.61V743.85C1206.17 743.2 1213.39 740.84 1219.79 736.95C1226.2 733.06 1231.62 727.75 1235.64 721.42C1254.11 691.9 1295.6 624.61 1295.6 624.61L1198.7 695.61Z" fill="#263238" stroke="#263238" stroke-width="7" stroke-linecap="round" stroke-linejoin="round"/>
<path d="M227.869 742.16L262.614 710.12H180.727C178.197 720.49 175.836 731.62 173.812 743.35H229.387C228.913 742.91 228.406 742.52 227.869 742.16Z" fill="#263238" stroke="#263238" stroke-width="7" stroke-linecap="round" stroke-linejoin="round"/>
<path d="M200.462 656.74C194.808 666.72 190.282 677.29 186.969 688.28H262.867C242.657 676.63 221.824 666.1 200.462 656.74Z" fill="#263238" stroke="#263238" stroke-width="7" stroke-linecap="round" stroke-linejoin="round"/>
<path d="M1457.01 525.94H2002.98C2002.98 525.94 2080.48 500.13 2058.3 404.161C2050.8 371.608 1895.96 297.227 1873.87 297.227H1608.22L1457.01 525.94Z" fill="#263238"/>
<path opacity="0.2" d="M1457.01 525.94H2002.98C2002.98 525.94 2080.48 500.13 2058.3 404.161C2050.8 371.608 1895.96 297.227 1873.87 297.227H1608.22L1457.01 525.94Z" fill="white" stroke="#263238" stroke-width="7" stroke-linecap="round" stroke-linejoin="round"/>
<path d="M1457.01 525.94H2002.98C2002.98 525.94 2080.48 500.13 2058.3 404.161C2050.8 371.608 1895.96 297.227 1873.87 297.227H1608.22L1457.01 525.94Z" stroke="#263238" stroke-width="7" stroke-linecap="round" stroke-linejoin="round"/>
<path d="M853.194 297.227L556.765 525.94H1457.01L1605.19 297.227H853.194Z" fill="#263238" stroke="#263238" stroke-width="7" stroke-linecap="round" stroke-linejoin="round"/>
<path d="M276.444 695.61V773.12L331.766 813.68H778.138L881.445 769.4V695.61H276.444Z" fill="#263238" stroke="#263238" stroke-width="7" stroke-linecap="round" stroke-linejoin="round"/>
<path opacity="0.3" d="M297.106 695.61H276.444V716.27H297.106V695.61Z" fill="white"/>
<path opacity="0.3" d="M319.877 718.47H299.215V739.13H319.877V718.47Z" fill="white"/>
<path opacity="0.3" d="M342.73 741.24H322.068V761.9H342.73V741.24Z" fill="white"/>
<path opacity="0.3" d="M365.5 764.09H344.838V784.75H365.5V764.09Z" fill="white"/>
<path opacity="0.3" d="M877.398 695.61H856.736V716.27H877.398V695.61Z" fill="white"/>
<path opacity="0.3" d="M854.543 718.47H833.881V739.13H854.543V718.47Z" fill="white"/>
<path opacity="0.3" d="M831.773 741.24H811.112V761.9H831.773V741.24Z" fill="white"/>
<path opacity="0.3" d="M809.003 764.09H788.341V784.75H809.003V764.09Z" fill="white"/>
<path opacity="0.3" d="M397.209 764.09H376.547V784.75H397.209V764.09Z" fill="white"/>
<path opacity="0.3" d="M428.832 764.09H408.171V784.75H428.832V764.09Z" fill="white"/>
<path opacity="0.3" d="M460.542 764.09H439.881V784.75H460.542V764.09Z" fill="white"/>
<path opacity="0.3" d="M492.251 764.09H471.59V784.75H492.251V764.09Z" fill="white"/>
<path opacity="0.3" d="M523.876 764.09H503.215V784.75H523.876V764.09Z" fill="white"/>
<path opacity="0.3" d="M555.585 764.09H534.924V784.75H555.585V764.09Z" fill="white"/>
<path opacity="0.3" d="M587.21 764.09H566.548V784.75H587.21V764.09Z" fill="white"/>
<path opacity="0.3" d="M618.919 764.09H598.258V784.75H618.919V764.09Z" fill="white"/>
<path opacity="0.3" d="M650.628 764.09H629.966V784.75H650.628V764.09Z" fill="white"/>
<path opacity="0.3" d="M682.252 764.09H661.591V784.75H682.252V764.09Z" fill="white"/>
<path opacity="0.3" d="M713.96 764.09H693.299V784.75H713.96V764.09Z" fill="white"/>
<path opacity="0.3" d="M745.585 764.09H724.924V784.75H745.585V764.09Z" fill="white"/>
<path opacity="0.3" d="M777.295 764.09H756.634V784.75H777.295V764.09Z" fill="white"/>
<path d="M1095.4 909.56H176.848L164.536 811.15C158.885 865.29 156.102 922.89 155.175 970.28L158.379 983.36L176.848 946.5H255.614L206.702 986.73H937.105L911.047 946.17H1095.73L1147.43 975.68H1184.28V787.87L1095.4 909.56Z" fill="#263238" stroke="#263238" stroke-width="7" stroke-linecap="round" stroke-linejoin="round"/>
<path d="M1649.21 505.44H1644.65C1640.13 505.43 1635.67 504.35 1631.65 502.28C1627.62 500.21 1624.14 497.22 1621.5 493.55C1618.85 489.89 1617.1 485.64 1616.41 481.17C1615.72 476.7 1616.09 472.13 1617.5 467.832C1623.15 450.122 1632.93 432.243 1649.21 429.545C1682.94 423.894 1775.71 452.061 1775.71 471.71C1775.71 491.36 1775.71 499.79 1764.49 499.79H1694.24L1637.99 561.69L1636.81 560.68C1633.91 558.25 1631.57 555.21 1629.97 551.78C1628.36 548.35 1627.53 544.61 1627.53 540.82C1627.53 537.03 1628.36 533.29 1629.97 529.86C1631.57 526.43 1633.91 523.39 1636.81 520.96C1641.8 516.54 1645.99 511.29 1649.21 505.44Z" fill="#B9BAFA"/>
<path d="M1816.86 525.94H1847.73C1844.44 480.65 1831.53 380.969 1780.85 297.227H1749.99C1767.78 335.767 1809.95 435.195 1816.86 525.94Z" fill="#263238" stroke="#263238" stroke-width="7" stroke-linecap="round" stroke-linejoin="round"/>
<path d="M1151.65 359.296L1162.95 390.161C1149.06 403.396 1140.97 421.584 1140.43 440.761V525.94H1071.19L1129.21 359.296H1151.65ZM828.4 401.462C780.921 430.388 709.238 494.23 674.409 525.94H905.564L1025.15 342.429L946.465 347.995C904.943 360.581 865.249 378.556 828.4 401.462ZM1306.31 378.945L1278.14 373.295H1238.85L1227.55 384.595C1227.55 384.595 1255.71 387.378 1258.5 404.245C1260.41 421.042 1261.34 437.938 1261.28 454.844H1281.01C1281.01 454.844 1281.01 423.894 1295.01 409.895C1302.96 401.861 1311.41 394.34 1320.31 387.378L1306.31 378.945Z" fill="white" stroke="#263238" stroke-width="7" stroke-linecap="round" stroke-linejoin="round"/>
<path d="M1636.81 560.68L1637.99 561.69L1694.24 499.79H1764.49C1773.77 499.79 1775.37 493.97 1775.62 480.82H1616.4C1617.36 487.64 1620.74 493.88 1625.93 498.41C1631.12 502.93 1637.77 505.43 1644.65 505.44H1649.21C1645.97 511.29 1641.75 516.54 1636.73 520.96C1633.83 523.4 1631.5 526.44 1629.9 529.87C1628.3 533.31 1627.48 537.05 1627.49 540.84C1627.5 544.63 1628.33 548.37 1629.95 551.8C1631.56 555.22 1633.9 558.26 1636.81 560.68Z" fill="#263238" stroke="#263238" stroke-width="7" stroke-linecap="round" stroke-linejoin="round"/>
<path d="M1810.28 593.82H1747.03V607.4H1810.28V593.82Z" fill="#263238"/>
<path d="M2095.07 593.82H2031.82V607.4H2095.07V593.82Z" fill="#263238"/>
<path d="M2099.54 539.77C2099.54 539.77 2145.34 570.89 2171.9 679.93C2171.9 679.93 2058.9 693.419 2058.9 1005.37" stroke="#263238" stroke-width="7" stroke-linecap="round" stroke-linejoin="round"/>
<path d="M2045.15 1018.69H1571.03C1571.03 1025.94 1571.03 1033.2 1571.03 1040.53C1571.03 1051.16 1571.03 1061.62 1570.36 1071.9H2102.75C2102.41 1061.62 2102.24 1051.16 2102.24 1040.53V1038.42L2045.15 1018.69Z" fill="#263238" stroke="#263238" stroke-width="7" stroke-linecap="round" stroke-linejoin="round"/>
<path d="M1272.5 1040.53C1272.5 1033.2 1272.5 1025.94 1272.5 1018.69H154.5C154.5 1051.16 154.5 1071.9 154.5 1071.9H1273.17C1272.75 1061.62 1272.5 1051.16 1272.5 1040.53Z" fill="#263238" stroke="#263238" stroke-width="7" stroke-linecap="round" stroke-linejoin="round"/>
<path d="M2285.66 566.75C2280.05 566.75 2274.52 568.22 2269.64 571C2264.76 573.78 2260.68 577.78 2257.82 582.61C2254.95 587.45 2253.39 592.94 2253.29 598.56C2253.19 604.18 2254.55 609.72 2257.24 614.65L2305.48 703.2V581.01C2305.42 576.19 2304.74 571.4 2303.46 566.75H2285.66Z" fill="#263238" stroke="#263238" stroke-width="7" stroke-linecap="round" stroke-linejoin="round"/>
<path d="M1851.61 572.91C1851.61 572.91 1952.8 719.06 1851.61 966.49" stroke="#263238" stroke-width="7" stroke-linecap="round" stroke-linejoin="round"/>
<path d="M2771.96 1089.01C2771.96 1089.01 2794.68 1105.55 2789.59 1112.89C2784.49 1120.23 2753.83 1138.42 2744.34 1149.27C2734.84 1160.12 2714.57 1171.14 2694.72 1174.78C2674.88 1178.41 2650.96 1181.39 2652.42 1167.5C2653.87 1153.61 2677.95 1149.27 2684.5 1141.24C2691.05 1133.2 2700.78 1112.06 2700.78 1112.06L2761.11 1076.31L2771.96 1089.01Z" fill="white" stroke="#263238" stroke-width="4.52902" stroke-miterlimit="10" stroke-linecap="round"/>
<path d="M2519.58 686.962C2519.58 686.962 2531.79 884.528 2537.11 911.221C2542.44 937.913 2700.64 1112.16 2700.64 1112.16C2700.64 1112.16 2732.66 1113.91 2743.34 1108.59C2753.33 1102.81 2762.85 1096.26 2771.82 1089.01C2771.82 1089.01 2748.67 1056.99 2741.56 1051.66C2734.45 1046.34 2716.65 1037.44 2711.33 1033.87C2706 1030.3 2670.41 959.148 2670.41 959.148L2651.59 698.869L2519.58 686.962Z" fill="#263238" stroke="#263238" stroke-width="4.52902" stroke-miterlimit="10" stroke-linecap="round"/>
<path d="M2578.62 1116.13L2562.58 1143.12C2560.4 1146.76 2518.09 1167.17 2518.09 1171.57C2518.09 1175.97 2523.92 1182.52 2527.55 1183.97C2531.19 1185.43 2583.78 1186.15 2599.79 1183.97C2615.8 1181.79 2627.51 1175.93 2639.19 1173.02C2650.86 1170.11 2659.03 1173.75 2659.63 1160.62C2660.22 1147.49 2654.07 1121.92 2654.07 1121.92C2654.07 1121.92 2647.95 1122.68 2627.61 1116.13C2607.27 1109.58 2578.62 1116.13 2578.62 1116.13Z" fill="white" stroke="#263238" stroke-width="4.52902" stroke-miterlimit="10" stroke-linecap="round"/>
<path d="M2694.69 701.12C2694.69 701.12 2677.22 913.769 2668.23 929.811C2659.23 945.853 2648.65 1095.19 2648.65 1095.19C2648.65 1095.19 2665.58 1111.73 2656.68 1120.56C2647.79 1129.39 2655.99 1131.91 2655.99 1131.91C2655.99 1131.91 2629.06 1125.46 2620.17 1121.99C2611.27 1118.51 2575.84 1119.34 2575.84 1119.34C2575.84 1119.34 2565.03 1098.86 2563.24 1084.64C2561.46 1070.42 2572.14 1024.15 2572.14 1018.82C2572.14 1013.49 2565.03 767.901 2565.03 767.901L2521.5 714.979L2694.69 701.12Z" fill="#263238" stroke="#263238" stroke-width="4.52902" stroke-miterlimit="10" stroke-linecap="round"/>
<path d="M2595.46 313.826L2597.58 332.812C2617.33 336.872 2637.49 338.637 2657.65 338.071C2690.36 337.012 2694.66 351.301 2694.66 351.301C2694.66 351.301 2789.55 486.353 2785.32 496.838C2781.09 507.323 2746.29 517.412 2746.29 517.412L2688.24 466.771L2694.59 701.053C2694.59 701.053 2676.63 723.214 2623.87 725.331C2571.12 727.448 2527.95 719.013 2521.5 714.779C2515.05 710.546 2504.6 510.036 2504.6 510.036L2467.36 509.639C2467.36 509.639 2473.97 419.274 2478.24 394.995C2482.5 370.717 2497.22 359.14 2521.5 350.673C2545.78 342.205 2554.21 332.745 2554.21 332.745L2574.26 306.284C2582.01 306.104 2589.56 308.789 2595.46 313.826V313.826Z" fill="white" stroke="#263238" stroke-width="4.52902" stroke-miterlimit="10" stroke-linecap="round"/>
<path d="M2623.97 725.399C2571.05 727.516 2528.05 719.081 2521.6 714.848C2515.15 710.614 2504.7 510.104 2504.7 510.104L2457.2 512.618C2457.2 512.618 2474.1 419.342 2478.34 395.064C2482.57 370.785 2497.32 359.209 2521.6 350.741C2545.88 342.274 2554.31 332.814 2554.31 332.814L2574.36 306.352C2582.06 306.16 2589.57 308.795 2595.46 313.762L2597.58 332.748C2617.33 336.83 2637.48 338.617 2657.64 338.073C2690.36 337.014 2694.66 351.303 2694.66 351.303C2694.66 351.303 2742.39 398.537 2763.49 438.493L2709.01 484.999L2688.21 466.84L2694.56 701.121C2694.56 701.121 2676.73 723.348 2623.97 725.399Z" fill="#A3A3A3" stroke="#263238" stroke-width="4.52902" stroke-miterlimit="10" stroke-linecap="round"/>
<path d="M2494.28 649.257C2467.06 622.068 2462.89 579.499 2462.89 579.499L2467.52 512.419L2504.7 510.104L2507.08 570.436C2512.09 582.238 2514.41 595.003 2513.89 607.812C2513.24 616.667 2513.79 625.57 2515.55 634.273H2515.81C2515.81 634.273 2526.03 654.45 2526.99 657.956C2527.95 661.462 2509.1 669.467 2503.84 670.757C2498.58 672.047 2491.34 672.047 2491.04 667.449C2490.74 662.851 2485.78 661.892 2490.08 657.526C2491.3 656.501 2492.3 655.241 2493.02 653.82C2493.75 652.399 2494.17 650.847 2494.28 649.257V649.257Z" fill="white" stroke="#263238" stroke-width="4.52902" stroke-miterlimit="10" stroke-linecap="round"/>
<path d="M2502.65 567.491C2502.65 567.491 2483.26 559.089 2470.17 570.104" stroke="#263238" stroke-width="4.52902" stroke-miterlimit="10" stroke-linecap="round"/>
<path d="M2494.28 649.256C2495.86 647.809 2497.79 646.801 2499.88 646.331C2501.96 645.861 2504.14 645.945 2506.19 646.576" stroke="#263238" stroke-width="4.52902" stroke-miterlimit="10" stroke-linecap="round"/>
<path d="M2516.01 627.855C2507.28 622.894 2492.29 625.374 2485.98 631.593C2481.65 636.34 2479.25 642.533 2479.25 648.958C2479.25 655.383 2481.65 661.576 2485.98 666.323C2492.59 673.335 2502.12 675.849 2510.82 670.458C2519.52 665.066 2525.27 663.842 2525.7 655.143C2526.04 647.637 2524.57 640.16 2521.4 633.346C2520.22 631.001 2518.33 629.082 2516.01 627.855V627.855Z" fill="#92E3A9" stroke="#263238" stroke-width="4.52902" stroke-miterlimit="10" stroke-linecap="round"/>
<path d="M2652.91 428.04L2688.34 466.838L2652.91 449.837" stroke="#263238" stroke-width="4.52902" stroke-miterlimit="10" stroke-linecap="round"/>
<path d="M2505.96 499.021L2504.7 434.985" stroke="#263238" stroke-width="4.52902" stroke-miterlimit="10" stroke-linecap="round"/>
<path d="M2505.86 444.678C2505.86 452.253 2514.12 458.372 2524.35 458.372C2534.57 458.372 2542.8 452.253 2542.8 444.678C2542.8 437.104 2534.53 430.984 2524.35 430.984C2514.16 430.984 2505.86 437.137 2505.86 444.678Z" fill="#92E3A9" stroke="#263238" stroke-width="4.52902" stroke-miterlimit="10" stroke-linecap="round"/>
<path d="M2514.85 444.677C2514.85 448.547 2519.12 451.689 2524.35 451.689C2529.57 451.689 2533.81 448.382 2533.81 444.677C2533.81 440.973 2529.57 437.665 2524.35 437.665C2519.12 437.665 2514.85 440.807 2514.85 444.677Z" fill="white" stroke="#263238" stroke-width="4.52902" stroke-miterlimit="10" stroke-linecap="round"/>
<path d="M1882.06 918.675L1568 936.344L1573.36 1244.6L1891.88 929.161L1882.06 918.675Z" fill="white" stroke="#263238" stroke-width="4.52902" stroke-miterlimit="10" stroke-linecap="round"/>
<path d="M1739.92 1035.85L1728.15 1045.06" stroke="#263238" stroke-width="4.52902" stroke-miterlimit="10" stroke-linecap="round"/>
<path d="M1860.67 939.653L1753.22 1025.1" stroke="#263238" stroke-width="4.52902" stroke-miterlimit="10" stroke-linecap="round"/>
<path d="M1833.55 935.56L1764.48 943.235" stroke="#263238" stroke-width="4.52902" stroke-miterlimit="10" stroke-linecap="round"/>
<path d="M1698.98 996.959L1681.08 1004.12" stroke="#263238" stroke-width="4.52902" stroke-miterlimit="10" stroke-linecap="round"/>
<path d="M1807.97 954.491L1708.19 993.378" stroke="#263238" stroke-width="4.52902" stroke-miterlimit="10" stroke-linecap="round"/>
<path d="M1910.3 907.419L1881.65 924.304" stroke="#263238" stroke-width="4.52902" stroke-miterlimit="10" stroke-linecap="round"/>
<path d="M2579.04 593.258L1910.3 906.907" stroke="#263238" stroke-width="4.52902" stroke-miterlimit="10" stroke-linecap="round"/>
<path d="M2675.97 583.731C2675.97 583.731 2723.63 582.144 2728.39 639.333C2733.16 696.522 2671.44 1089.17 2791.04 1180C2899.37 1262.2 3005.61 1248.77 3073.98 1217.08C3129.71 1191.21 2957.32 1174.31 2878.2 1194.95C2820.91 1209.9 2936.18 1244.24 3050.56 1244.57C3182.01 1244.86 3250.77 1198.26 3284.11 1194.95" stroke="#263238" stroke-width="4.52902" stroke-miterlimit="10" stroke-linecap="round"/>
<path d="M2646.13 591.372L2615.6 582.143L2588.71 604.999C2587.38 606.13 2585.68 606.717 2583.94 606.644C2582.19 606.57 2580.54 605.841 2579.32 604.602L2564.83 590.115C2564.17 589.47 2563.64 588.699 2563.28 587.847C2562.92 586.995 2562.73 586.079 2562.73 585.153C2562.73 584.228 2562.92 583.312 2563.28 582.46C2563.64 581.607 2564.17 580.836 2564.83 580.192C2574.32 570.666 2596.35 550.423 2615.64 545.461C2641.07 539.111 2664.89 556.575 2664.89 556.575L2646.13 591.372Z" fill="#263238" stroke="#263238" stroke-width="4.52902" stroke-miterlimit="10" stroke-linecap="round"/>
<path d="M2752.71 478.581L2668.3 544.006C2668.3 544.006 2652.45 548.24 2647.19 553.499C2641.93 558.758 2620.73 575.66 2627.15 582.011C2633.56 588.362 2626.09 586.212 2633.47 588.329C2640.84 590.445 2646.13 591.636 2646.13 591.636C2646.13 591.636 2664.06 599.012 2674.61 597.954C2685.16 596.895 2702.07 572.65 2702.07 567.358C2702.07 562.066 2788.59 513.543 2791.77 507.192C2794.95 500.841 2765.31 459.727 2765.31 459.727" fill="white"/>
<path d="M2752.71 478.581L2668.3 544.006C2668.3 544.006 2652.45 548.24 2647.19 553.499C2641.93 558.758 2620.73 575.66 2627.15 582.011C2633.56 588.362 2626.09 586.212 2633.47 588.329C2640.84 590.445 2646.13 591.636 2646.13 591.636C2646.13 591.636 2664.06 599.012 2674.61 597.954C2685.16 596.895 2702.07 572.65 2702.07 567.358C2702.07 562.066 2788.59 513.543 2791.77 507.192C2794.95 500.841 2765.31 459.727 2765.31 459.727" stroke="#263238" stroke-width="4.52902" stroke-miterlimit="10" stroke-linecap="round"/>
<path d="M2697.34 512.711L2733.99 554.057L2702.07 569.14C2702.07 569.14 2695.45 586.009 2687.91 594.477C2680.37 602.944 2680.4 605.756 2672.89 605.756C2665.38 605.756 2639.82 597.288 2639.82 597.288C2639.82 597.288 2637.9 599.107 2626.59 591.665C2615.27 584.223 2620.93 579.427 2625.63 571.819C2630.32 564.212 2653.84 547.376 2660.39 542.679C2666.94 537.982 2669.82 535.17 2672.63 533.285C2675.44 531.4 2697.34 512.711 2697.34 512.711Z" fill="#92E3A9" stroke="#263238" stroke-width="4.52902" stroke-miterlimit="10" stroke-linecap="round"/>
<path d="M2521.6 350.741C2545.88 342.307 2554.31 332.814 2554.31 332.814L2574.36 306.352C2582.06 306.16 2589.57 308.795 2595.46 313.762L2597.58 332.748C2597.58 332.748 2599.83 333.244 2603.66 333.938C2598.73 344.49 2580.08 386.861 2552.2 387.621C2532.35 388.25 2519.91 369.099 2513.17 353.916C2515.84 352.891 2518.72 351.767 2521.6 350.741Z" fill="white" stroke="#263238" stroke-width="4.52902" stroke-miterlimit="10" stroke-linecap="round"/>
<path d="M2497.32 307.475L2506.82 335.986L2518.43 332.679C2518.43 332.679 2521.73 358.015 2527.92 361.158C2534.1 364.3 2540.59 365.392 2553.26 355.899C2565.92 346.406 2578.59 334.796 2578.59 324.244C2578.59 313.693 2572.24 274.63 2565.92 266.195C2559.61 257.76 2497.32 307.475 2497.32 307.475Z" fill="white" stroke="#263238" stroke-width="4.52902" stroke-miterlimit="10" stroke-linecap="round"/>
<path d="M2518.99 311.212C2519.52 314.321 2521.33 316.636 2523.09 316.338C2524.84 316.041 2525.83 313.262 2525.3 310.153C2524.77 307.044 2522.96 304.696 2521.2 304.993C2519.45 305.291 2518.46 308.069 2518.99 311.212Z" fill="#263238"/>
<path d="M2541.64 277.936C2541.64 277.936 2545.88 290.604 2557.49 291.663C2569.1 292.721 2576.47 276.878 2576.47 276.878L2578.59 324.376L2595.46 313.824C2595.46 313.824 2592.32 273.702 2588.08 262.092C2583.85 250.483 2566.98 245.223 2566.98 245.223C2566.98 245.223 2549.02 265.268 2541.64 277.936Z" fill="#263238" stroke="#263238" stroke-width="4.52902" stroke-miterlimit="10" stroke-linecap="round"/>
<path d="M2574.36 306.58C2592.32 303.273 2588.08 280.119 2576.47 277.043C2564.86 273.967 2569.1 292.854 2569.1 292.854" fill="white"/>
<path d="M2574.36 306.58C2592.32 303.273 2588.08 280.119 2576.47 277.043C2564.86 273.967 2569.1 292.854 2569.1 292.854" stroke="#263238" stroke-width="4.52902" stroke-miterlimit="10" stroke-linecap="round"/>
<path d="M2588.18 262.095L2534.37 290.607C2525.35 294.501 2515.68 296.645 2505.86 296.924C2498.01 297.089 2490.19 295.971 2482.7 293.617L2475.36 261.863C2474.7 258.992 2474.66 256.015 2475.23 253.126C2475.8 250.237 2476.97 247.5 2478.67 245.093C2486.16 234.153 2495.34 224.464 2505.86 216.383C2525.9 201.631 2556.36 211.984 2573.23 221.477C2590.1 230.97 2588.18 262.095 2588.18 262.095Z" fill="#92E3A9" stroke="#263238" stroke-width="4.52902" stroke-miterlimit="10" stroke-linecap="round"/>
<path d="M2482.87 266.296C2484.22 273.738 2493.45 278.27 2503.47 276.45C2513.5 274.631 2520.54 267.09 2519.18 259.648C2517.83 252.205 2508.6 247.674 2498.58 249.493C2488.56 251.312 2481.51 258.854 2482.87 266.296Z" fill="#92E3A9" stroke="#263238" stroke-width="4.52902" stroke-miterlimit="10" stroke-linecap="round"/>
<path d="M2491.73 264.674C2492.43 268.478 2497.16 270.827 2502.28 269.867C2507.41 268.908 2511.05 265.104 2510.36 261.268C2509.66 257.431 2504.93 255.115 2499.77 256.075C2494.61 257.034 2491.01 260.871 2491.73 264.674Z" fill="white" stroke="#263238" stroke-width="4.52902" stroke-miterlimit="10" stroke-linecap="round"/>
<path d="M2542.7 287.431C2530.21 284.809 2517.45 283.698 2504.7 284.124C2485.71 285.182 2468.87 302.051 2468.87 302.051C2468.87 302.051 2452.34 318.788 2453.46 321.897C2454.59 325.006 2478.33 319.979 2494.14 318.92C2509.96 317.862 2542.7 287.431 2542.7 287.431Z" fill="#92E3A9" stroke="#263238" stroke-width="4.52902" stroke-miterlimit="10" stroke-linecap="round"/>
<path d="M2539 328.049C2537.98 331.362 2536.06 334.324 2533.45 336.598C2530.83 338.872 2527.63 340.368 2524.21 340.916" stroke="#263238" stroke-width="4.52902" stroke-miterlimit="10" stroke-linecap="round"/>
<path d="M2543.76 362.78L2546.08 381.203L2527.92 361.291L2543.76 362.78Z" fill="#263238"/>
<path d="M2523.62 652.429C2523.62 652.429 2533.54 667.612 2527.82 672.871C2523.91 676.443 2511.28 682.794 2503.54 686.3C2501.74 687.145 2499.72 687.373 2497.78 686.948C2495.84 686.523 2494.1 685.47 2492.82 683.951C2490.16 681.158 2487.99 677.938 2486.41 674.425C2485.35 670.225 2495.34 660.798 2495.34 660.798L2499.5 662.386C2499.5 662.386 2515.25 646.112 2518.39 646.641C2521.53 647.17 2523.62 652.429 2523.62 652.429Z" fill="#92E3A9" stroke="#263238" stroke-width="4.52902" stroke-miterlimit="10" stroke-linecap="round"/>
<path d="M2494.51 653.093C2494.51 653.093 2501.52 661.428 2498.71 663.644C2495.9 665.86 2486.9 675.056 2485.22 673.369C2483.53 671.682 2477.61 668.738 2480.98 664.504C2484.36 660.27 2489.85 652.696 2494.51 653.093Z" fill="#92E3A9" stroke="#263238" stroke-width="4.52902" stroke-miterlimit="10" stroke-linecap="round"/>
<path d="M2340.53 1435.4L2321.9 1716.81C2321.79 1718.24 2321.15 1719.58 2320.11 1720.56C2319.06 1721.54 2317.68 1722.09 2316.25 1722.1V1722.1C2315.49 1722.1 2314.74 1721.94 2314.05 1721.65C2313.36 1721.35 2312.73 1720.92 2312.2 1720.38C2311.68 1719.84 2311.27 1719.19 2311 1718.49C2310.73 1717.79 2310.61 1717.03 2310.64 1716.28L2318.29 1435.4H2340.53Z" fill="#263238" stroke="#263238" stroke-width="6.15927" stroke-linecap="round" stroke-linejoin="round"/>
<path d="M2388.2 1435.4L2406.83 1716.81C2406.92 1718.24 2407.55 1719.58 2408.59 1720.56C2409.63 1721.54 2411.01 1722.09 2412.44 1722.1V1722.1C2413.19 1722.1 2413.94 1721.94 2414.64 1721.65C2415.34 1721.36 2415.97 1720.92 2416.49 1720.38C2417.02 1719.84 2417.43 1719.2 2417.71 1718.49C2417.98 1717.79 2418.11 1717.04 2418.09 1716.28L2410.35 1435.57L2388.2 1435.4Z" fill="#263238" stroke="#263238" stroke-width="6.15927" stroke-linecap="round" stroke-linejoin="round"/>
<path d="M2201.38 1435.4L2220.01 1716.81C2220.11 1718.24 2220.74 1719.58 2221.78 1720.56C2222.82 1721.54 2224.19 1722.09 2225.62 1722.1V1722.1C2226.38 1722.1 2227.13 1721.94 2227.82 1721.65C2228.52 1721.36 2229.15 1720.92 2229.68 1720.38C2230.21 1719.84 2230.62 1719.2 2230.89 1718.49C2231.17 1717.79 2231.3 1717.04 2231.27 1716.28L2223.49 1435.57L2201.38 1435.4Z" fill="#263238" stroke="#263238" stroke-width="6.15927" stroke-linecap="round" stroke-linejoin="round"/>
<path d="M2125.25 1435.4L2106.62 1716.81C2106.52 1718.24 2105.88 1719.58 2104.83 1720.56C2103.78 1721.54 2102.41 1722.09 2100.97 1722.1V1722.1C2100.22 1722.09 2099.47 1721.93 2098.78 1721.64C2098.08 1721.34 2097.45 1720.91 2096.93 1720.37C2096.4 1719.83 2095.99 1719.19 2095.71 1718.49C2095.44 1717.78 2095.3 1717.03 2095.32 1716.28L2103.1 1435.57L2125.25 1435.4Z" fill="#263238" stroke="#263238" stroke-width="6.15927" stroke-linecap="round" stroke-linejoin="round"/>
<path d="M2449.87 1151.7C2449.87 1151.7 2263.95 1144.74 2248.23 1144.74C2232.5 1144.74 2228.86 1151.7 2228.86 1151.7L2202.32 1338.8C2202.32 1338.8 2119.81 1315.26 2103.63 1318.33C2087.46 1321.4 2111.62 1438.8 2111.62 1438.8H2204.98L2206.66 1431.76H2417.47L2473.45 1165.09C2470.05 1152.89 2449.87 1151.7 2449.87 1151.7Z" fill="white" stroke="#263238" stroke-width="6.15927" stroke-linecap="round" stroke-linejoin="round"/>
<path d="M2379.1 1268.74C2379.1 1268.74 2398.02 1391.59 2376.32 1405.92C2372.96 1408.13 2354.74 1418.61 2337.7 1416.89C2324.03 1415.5 2227.38 1416.89 2227.38 1416.89C2227.38 1416.89 2213.95 1391.34 2211.25 1372.5C2208.55 1353.67 2229.68 1272.83 2229.68 1272.83L2379.1 1268.74Z" fill="white" stroke="#263238" stroke-width="6.15927" stroke-linecap="round" stroke-linejoin="round"/>
<path d="M2220.83 1334.54C2220.83 1334.54 2080.95 1349.08 2074.35 1353.01C2067.76 1356.94 2037.5 1383.36 2042.7 1400.51C2047.9 1417.67 2034.8 1418.98 2046.79 1421.64C2058.79 1424.31 2228.86 1424.26 2228.86 1424.26" fill="#92E3A9"/>
<path d="M2220.83 1334.54C2220.83 1334.54 2080.95 1349.08 2074.35 1353.01C2067.76 1356.94 2037.5 1383.36 2042.7 1400.51C2047.9 1417.67 2034.8 1418.98 2046.79 1421.64C2058.79 1424.31 2228.86 1424.26 2228.86 1424.26" stroke="#263238" stroke-width="6.15927" stroke-linecap="round" stroke-linejoin="round"/>
<path d="M2093.6 1438.6H2425.99V1413.78H2093.6V1438.6Z" fill="white" stroke="#263238" stroke-width="6.15927" stroke-linecap="round" stroke-linejoin="round"/>
<path d="M2347.49 1339.83H2147.24C2147.24 1339.83 2136.72 1351.7 2135.37 1376.68C2134.02 1401.66 2136.72 1407.03 2155.19 1413.54C2173.66 1420.05 2337.7 1416.73 2337.7 1416.73" fill="#92E3A9"/>
<path d="M2347.49 1339.83H2147.24C2147.24 1339.83 2136.72 1351.7 2135.37 1376.68C2134.02 1401.66 2136.72 1407.03 2155.19 1413.54C2173.66 1420.05 2337.7 1416.73 2337.7 1416.73" stroke="#263238" stroke-width="6.15927" stroke-linecap="round" stroke-linejoin="round"/>
<path d="M2189.71 1657.6L2168.74 1607.93L2134.39 1614.44L2160.68 1658.75L2145.52 1689.09L2112.76 1710.51C2112.76 1710.51 2108.96 1714.27 2125.34 1713C2141.72 1711.74 2175.7 1713 2175.7 1713L2197.12 1687.82C2197.12 1687.82 2204.9 1675 2189.71 1657.6Z" fill="white" stroke="#263238" stroke-width="6.15927" stroke-linecap="round" stroke-linejoin="round"/>
<path d="M2198.88 1679.3L2199.74 1711.78H2194.62L2187.79 1695.56L2198.88 1679.3Z" fill="#263238" stroke="#263238" stroke-width="6.15927" stroke-linecap="round" stroke-linejoin="round"/>
<path d="M2175.75 1713.17L2197.16 1687.98C2197.16 1687.98 2202.69 1678.61 2195.07 1665.09C2179.84 1691.14 2159.57 1698.96 2159.57 1698.96L2138.44 1693.88L2112.81 1710.67C2112.81 1710.67 2109 1714.44 2125.38 1713.17C2141.76 1711.9 2175.75 1713.17 2175.75 1713.17Z" fill="#263238" stroke="#263238" stroke-width="6.15927" stroke-linecap="round" stroke-linejoin="round"/>
<path d="M2107.36 1404.49L2177.59 1616.81L2127.75 1625.66L2029.47 1404.53C2029.47 1404.53 2021.57 1371.52 2042.66 1361C2063.75 1350.47 2125.79 1345.15 2125.79 1345.15" fill="#92E3A9"/>
<path d="M2107.36 1404.49L2177.59 1616.81L2127.75 1625.66L2029.47 1404.53C2029.47 1404.53 2021.57 1371.52 2042.66 1361C2063.75 1350.47 2125.79 1345.15 2125.79 1345.15" stroke="#263238" stroke-width="6.15927" stroke-linecap="round" stroke-linejoin="round"/>
<path d="M2332.63 1438.56C2332.63 1438.56 2308.42 1320.99 2324.64 1318.08C2340.86 1315.17 2423.33 1338.56 2423.33 1338.56L2449.87 1151.7C2449.87 1151.7 2477.88 1147.28 2480.82 1172.18C2483.77 1197.07 2425.99 1438.56 2425.99 1438.56H2332.63Z" fill="#263238" stroke="#263238" stroke-width="6.15927" stroke-linecap="round" stroke-linejoin="round"/>
<path d="M2047.65 1092.41L2035.16 1071.93C2033.96 1069.97 2032.27 1068.36 2030.25 1067.25C2028.23 1066.14 2025.96 1065.58 2023.66 1065.62L2011.9 1065.83L1991.8 1059.81C1990.52 1059.44 1989.16 1059.45 1987.89 1059.85C1986.62 1060.25 1985.5 1061.02 1984.67 1062.06L1983.94 1063L2002.44 1071.19L1983.98 1077.99L1964.36 1068.04C1963.59 1067.64 1962.7 1067.53 1961.85 1067.73C1961.01 1067.92 1960.26 1068.41 1959.73 1069.1V1069.1C1959.14 1069.88 1958.87 1070.85 1959 1071.82C1959.12 1072.79 1959.62 1073.67 1960.39 1074.26L1987.83 1095.44C1988.69 1096.1 1989.68 1096.58 1990.74 1096.84C1991.8 1097.09 1992.9 1097.11 1993.97 1096.91L2024.31 1090.81L2032.79 1100.06L2047.65 1092.41Z" fill="white" stroke="#263238" stroke-width="6.15927" stroke-linecap="round" stroke-linejoin="round"/>
<path d="M2259.2 1050.39L2146.71 1168.04L2039.34 1081.27L2024.52 1092.04L2142.66 1225.9L2245.07 1170.74L2259.2 1050.39Z" fill="white" stroke="#263238" stroke-width="6.15927" stroke-linecap="round" stroke-linejoin="round"/>
<path d="M2427.51 1080.45L2486.48 1261.65L2435.62 1263.13L2385.04 1178.07C2385.04 1178.07 2413.46 1092.28 2427.51 1080.45Z" fill="white" stroke="#263238" stroke-width="6.15927" stroke-linecap="round" stroke-linejoin="round"/>
<path d="M2363.34 1049.33L2427.51 1080.65L2373.78 1230.9L2380.13 1272.79L2229.68 1273.04L2247.61 1205.55L2235.33 1162.31C2233.73 1156.7 2233.65 1150.76 2235.08 1145.11L2259.16 1050.6L2322.39 1040.44L2363.34 1049.33Z" fill="white" stroke="#263238" stroke-width="6.15927" stroke-linecap="round" stroke-linejoin="round"/>
<path d="M2360.27 1040.52C2360.27 1040.52 2372.88 1049.04 2373.29 1056.61C2373.49 1061.08 2373.29 1068.9 2372.88 1074.88C2372.66 1079.55 2371.59 1084.14 2369.73 1088.43L2347 1115.87L2320.71 1095.11L2298.88 1106.25C2298.88 1106.25 2294.79 1072.79 2304.33 1049.45C2313.87 1026.11 2355.39 1034.67 2360.27 1040.52Z" fill="white" stroke="#263238" stroke-width="6.15927" stroke-linecap="round" stroke-linejoin="round"/>
<path d="M2378.33 975.615C2378.33 975.615 2373.17 994.166 2370.75 1006.45C2368.33 1018.74 2363.46 1043.31 2363.91 1052.52C2364.36 1061.73 2325.58 1100.96 2320.71 1095.11C2315.84 1089.25 2310.72 1055.22 2310.72 1055.22L2315.55 1000.19C2315.55 1000.19 2366.08 944.207 2378.33 975.615Z" fill="white" stroke="#263238" stroke-width="6.15927" stroke-linecap="round" stroke-linejoin="round"/>
<path d="M2297.29 946.95C2297.29 946.95 2290.36 958.375 2290.36 963.33C2290.36 968.285 2292.78 977.991 2292.37 980.816C2291.96 983.642 2285.08 993.101 2284.18 996.295C2283.73 997.595 2283.77 999.015 2284.29 1000.29C2284.81 1001.56 2285.77 1002.6 2287.01 1003.22C2288.68 1004.07 2290.31 1005.02 2291.88 1006.04C2291.88 1006.04 2293.93 1031.27 2297.2 1037.78C2300.48 1044.29 2303.31 1047.16 2313.05 1047.97C2322.8 1048.79 2346.02 1038.6 2349.25 1030.45C2352.49 1022.3 2352.94 1012.55 2353.35 1000.76C2353.76 988.965 2345.61 972.094 2339.5 956C2333.4 939.907 2307.85 931.062 2297.29 946.95Z" fill="white" stroke="#263238" stroke-width="6.15927" stroke-linecap="round" stroke-linejoin="round"/>
<path d="M2402.32 1030.24C2419.58 1030.24 2433.57 1016.25 2433.57 998.998C2433.57 981.742 2419.58 967.753 2402.32 967.753C2385.07 967.753 2371.08 981.742 2371.08 998.998C2371.08 1016.25 2385.07 1030.24 2402.32 1030.24Z" fill="#263238" stroke="#263238" stroke-width="6.15927" stroke-linecap="round" stroke-linejoin="round"/>
<path d="M2297.12 945.189C2297.12 945.189 2309.69 934.338 2332.3 955.918C2354.9 977.499 2346.3 1008.7 2361.41 1015.17C2376.52 1021.64 2404.49 989.293 2407.73 973.158C2410.96 957.024 2401.26 923.568 2371.08 917.098C2340.9 910.627 2303.92 915.05 2297.12 945.189Z" fill="#263238" stroke="#263238" stroke-width="6.15927" stroke-linecap="round" stroke-linejoin="round"/>
<path d="M2297.12 945.189C2296.85 942.652 2297.17 940.086 2298.04 937.688C2298.91 935.29 2300.32 933.122 2302.16 931.35C2303.99 929.577 2306.21 928.246 2308.64 927.459C2311.06 926.671 2313.64 926.446 2316.16 926.803C2336.64 927.908 2338.77 960.218 2349.54 973.158C2360.31 986.099 2365.71 983.928 2365.71 983.928C2365.71 983.928 2347.41 989.293 2335.53 982.822C2323.66 976.352 2317.92 939.866 2297.12 945.189Z" fill="#263238" stroke="#263238" stroke-width="6.15927" stroke-linecap="round" stroke-linejoin="round"/>
<path d="M2330.58 923.035C2341.35 929.69 2349.9 939.397 2355.15 950.922C2364.44 970.619 2364.44 986.877 2386.52 985.73C2386.52 985.73 2376.07 988.064 2359.82 979.915C2343.56 971.766 2340.08 948.588 2329.64 939.293C2323.94 933.901 2316.57 930.621 2308.75 929.997" stroke="white" stroke-width="6.15927" stroke-linecap="round" stroke-linejoin="round"/>
<path d="M2407.73 973.158C2407.73 973.158 2406.79 1002.72 2384.1 1008.95" stroke="white" stroke-width="6.15927" stroke-linecap="round" stroke-linejoin="round"/>
<path d="M2344.42 1003.34C2344.42 1003.34 2366.04 975.042 2371.12 996.172C2376.2 1017.3 2358.83 1022.46 2350.64 1020.05C2342.45 1017.63 2343.6 1013.25 2343.6 1013.25" fill="white"/>
<path d="M2344.42 1003.34C2344.42 1003.34 2366.04 975.042 2371.12 996.172C2376.2 1017.3 2358.83 1022.46 2350.64 1020.05C2342.45 1017.63 2343.6 1013.25 2343.6 1013.25" stroke="#263238" stroke-width="6.15927" stroke-linecap="round" stroke-linejoin="round"/>
<path d="M2296.3 1245.48C2296.3 1245.48 2255.03 1251.21 2248.15 1251.21C2241.27 1251.21 2224.07 1273 2224.07 1273H2299.74L2296.3 1245.48Z" fill="white" stroke="#263238" stroke-width="6.15927" stroke-linecap="round" stroke-linejoin="round"/>
<path d="M2471.65 1217.71L2486.48 1251.13C2487.14 1253.09 2487.33 1255.19 2487.03 1257.25C2486.73 1259.3 2485.95 1261.26 2484.76 1262.95C2483.56 1264.65 2481.98 1266.04 2480.14 1267.01C2478.31 1267.98 2476.27 1268.5 2474.19 1268.53L2295.24 1269.56L2296.38 1245.48L2435.12 1223.53" fill="white"/>
<path d="M2471.65 1217.71L2486.48 1251.13C2487.14 1253.09 2487.33 1255.19 2487.03 1257.25C2486.73 1259.3 2485.95 1261.26 2484.76 1262.95C2483.56 1264.65 2481.98 1266.04 2480.14 1267.01C2478.31 1267.98 2476.27 1268.5 2474.19 1268.53L2295.24 1269.56L2296.38 1245.48L2435.12 1223.53" stroke="#263238" stroke-width="6.15927" stroke-linecap="round" stroke-linejoin="round"/>
<path d="M2232.13 1679.3L2232.99 1711.78H2227.88L2221.04 1695.56L2232.13 1679.3Z" fill="#263238" stroke="#263238" stroke-width="6.15927" stroke-linecap="round" stroke-linejoin="round"/>
<path d="M2222.96 1657.6L2216.37 1610.34L2182.05 1612.55L2193.93 1659.07L2178.78 1689.42L2146.02 1710.83C2146.02 1710.83 2142.25 1714.6 2158.63 1713.33C2175.01 1712.06 2209 1713.33 2209 1713.33L2230.41 1688.15C2230.41 1688.15 2238.15 1675 2222.96 1657.6Z" fill="white" stroke="#263238" stroke-width="6.15927" stroke-linecap="round" stroke-linejoin="round"/>
<path d="M2209 1713.17L2230.41 1687.98C2230.41 1687.98 2235.94 1678.61 2228.29 1665.09C2213.05 1691.14 2192.78 1698.96 2192.78 1698.96L2171.69 1693.88L2146.02 1710.67C2146.02 1710.67 2142.25 1714.44 2158.63 1713.17C2175.01 1711.9 2209 1713.17 2209 1713.17Z" fill="#263238" stroke="#263238" stroke-width="6.15927" stroke-linecap="round" stroke-linejoin="round"/>
<path d="M2207.24 1367.92L2221.94 1619.02L2175.38 1620.13L2129.92 1392C2129.92 1392 2130.78 1348.55 2144.66 1343.55C2158.55 1338.56 2195.4 1343.92 2195.4 1343.92" fill="#92E3A9"/>
<path d="M2207.24 1367.92L2221.94 1619.02L2175.38 1620.13L2129.92 1392C2129.92 1392 2130.78 1348.55 2144.66 1343.55C2158.55 1338.56 2195.4 1343.92 2195.4 1343.92" stroke="#263238" stroke-width="6.15927" stroke-linecap="round" stroke-linejoin="round"/>
<path d="M2003.71 827.417L2061.5 989.375C2061.5 989.375 2053.88 1026.03 2030.95 1024.51C2008.01 1022.99 2001.91 990.89 1995.81 986.304C1989.71 981.717 1980.54 946.582 1980.54 946.582L2003.71 827.417Z" fill="white" stroke="#263238" stroke-width="6.15927" stroke-linecap="round" stroke-linejoin="round"/>
<path d="M1854.25 794.943L1760.31 828.85L1796.34 1089.33H1965.84L2003.72 827.417L1902.32 795.68L1854.25 794.943Z" fill="white" stroke="#263238" stroke-width="6.15927" stroke-linecap="round" stroke-linejoin="round"/>
<path d="M1863.3 839.579L1876.85 860.013L1865.1 1033.31L1882.38 1078.44L1900.11 1034.54L1884.92 862.593L1897.12 833.068L1880.21 810.832L1863.3 839.579Z" fill="#92E3A9" stroke="#263238" stroke-width="6.15927" stroke-linecap="round" stroke-linejoin="round"/>
<path d="M1882.05 831.143L1857.85 849.284L1841.92 801.987L1853.02 778.031L1902.53 776.844L1914.61 787.695L1912.19 848.056L1882.05 831.143Z" fill="white" stroke="#263238" stroke-width="6.15927" stroke-linecap="round" stroke-linejoin="round"/>
<path d="M1907.65 765.746L1903.88 796.172L1876.77 831.143L1856.5 795.68V738.637C1856.5 738.637 1892 747.523 1907.65 765.746Z" fill="white" stroke="#263238" stroke-width="6.15927" stroke-linecap="round" stroke-linejoin="round"/>
<path d="M1842.58 702.519C1842.58 674.878 1862.72 652.478 1887.62 652.478C1912.52 652.478 1926.32 676.106 1926.32 703.748C1926.32 712.675 1924.48 727.99 1923.74 736.139C1922.47 750.062 1918.25 755.959 1910.02 768.449C1883.04 809.399 1860.88 749.325 1849.54 729.137C1844.95 721.019 1842.55 711.845 1842.58 702.519V702.519Z" fill="white" stroke="#263238" stroke-width="6.15927" stroke-linecap="round" stroke-linejoin="round"/>
<path d="M1907.2 711.2L1911 739.743L1897.61 739.374" fill="white"/>
<path d="M1907.2 711.2L1911 739.743L1897.61 739.374" stroke="#263238" stroke-width="6.15927" stroke-linecap="round" stroke-linejoin="round"/>
<path d="M1937.09 706.246L1872.72 706.532C1871.92 709.036 1871.8 711.703 1872.36 714.268C1872.92 716.833 1874.15 719.206 1875.91 721.151C1880 725.246 1896.67 723.813 1899.33 722.749C1902 721.684 1903.43 709.972 1903.43 709.972H1908.22C1908.22 709.972 1908.75 722.257 1915.63 723.281C1922.51 724.305 1931.48 723.977 1933.2 722.749C1940.82 717.63 1937.09 706.246 1937.09 706.246Z" fill="white" stroke="#263238" stroke-width="6.15927" stroke-linecap="round" stroke-linejoin="round"/>
<path d="M1850.52 733.764C1850.52 733.764 1865.02 763.453 1868.46 773.731C1871.9 784.01 1888.93 792.036 1906.17 786.303C1923.41 780.57 1918.74 755.058 1918.74 755.058C1918.74 755.058 1900.44 739.415 1897.04 742.773C1893.64 746.131 1875.3 761.078 1874.15 757.638C1873 754.198 1865.02 733.641 1865.02 733.641L1861.29 719.063L1868.95 714.149C1870.05 713.228 1870.77 711.925 1870.96 710.499C1871.15 709.073 1870.8 707.628 1869.97 706.45L1866.37 701.25C1865.92 700.613 1865.61 699.893 1865.45 699.134C1865.29 698.374 1865.28 697.59 1865.43 696.827C1866.37 692.363 1868.95 683.109 1874.93 680.447C1883.12 677.048 1893.07 682.003 1902.24 684.296C1911.41 686.59 1921.36 678.318 1921.36 678.318L1925.46 691.913C1934.54 683.392 1940.99 672.451 1944.05 660.381C1948.64 640.93 1901.75 632.945 1886.72 632.945C1871.69 632.945 1847.86 641.135 1840.98 662.675C1834.1 684.214 1846.47 729.915 1850.52 733.764Z" fill="#263238" stroke="#263238" stroke-width="6.15927" stroke-linecap="round" stroke-linejoin="round"/>
<path d="M1887.62 660.504C1887.62 660.504 1896.14 673.281 1884.96 675.942C1873.78 678.604 1851.99 669.022 1842.41 672.748" stroke="white" stroke-width="6.15927" stroke-linecap="round" stroke-linejoin="round"/>
<path d="M1868.46 688.678C1868.46 688.678 1850.93 686.548 1843.89 694.001" stroke="white" stroke-width="6.15927" stroke-linecap="round" stroke-linejoin="round"/>
<path d="M1910.64 753.256C1910.64 753.256 1897.74 759.972 1891.35 751.987" stroke="white" stroke-width="6.15927" stroke-linecap="round" stroke-linejoin="round"/>
<path d="M1852.69 724.714C1852.69 724.714 1840.04 710.791 1840.04 725.983C1840.04 741.176 1843.85 741.176 1851.42 746.458C1859 751.741 1861.58 745.189 1861.58 745.189" fill="white"/>
<path d="M1852.69 724.714C1852.69 724.714 1840.04 710.791 1840.04 725.983C1840.04 741.176 1843.85 741.176 1851.42 746.458C1859 751.741 1861.58 745.189 1861.58 745.189" stroke="#263238" stroke-width="6.15927" stroke-linecap="round" stroke-linejoin="round"/>
<path d="M2021.65 1668.66H2022.22L2021.12 1663.09L1965.84 1089.37H1796.34L1740.61 1668.61H1741.22L1777.18 1671.69C1777.18 1671.69 1817.06 1537.78 1817.06 1527.79C1817.06 1517.8 1828.45 1425.41 1828.45 1425.41L1885 1226.6L1935 1425.41C1935 1425.41 1946.38 1518 1946.38 1527.79C1946.38 1537.57 1986.31 1671.77 1986.31 1671.77L2020.14 1668.86H2021.65V1668.66Z" fill="#263238" stroke="#263238" stroke-width="6.15927" stroke-linecap="round" stroke-linejoin="round"/>
<path d="M1953.18 1123.12L1915.47 1176.97" stroke="white" stroke-width="6.15927" stroke-linecap="round" stroke-linejoin="round"/>
<path d="M1932.99 1135.24L1910.1 1172.95" stroke="white" stroke-width="6.15927" stroke-linecap="round" stroke-linejoin="round"/>
<path d="M1825.29 1132.58L1858.92 1168.9" stroke="white" stroke-width="6.15927" stroke-linecap="round" stroke-linejoin="round"/>
<path d="M1822.59 1146.01L1871.04 1194.49" stroke="white" stroke-width="6.15927" stroke-linecap="round" stroke-linejoin="round"/>
<path d="M1806.42 1094.86H1955.88" stroke="white" stroke-width="6.15927" stroke-linecap="round" stroke-linejoin="round"/>
<path d="M1741.22 1668.61C1741.22 1668.61 1719.64 1685.61 1707.19 1690.28C1694.75 1694.95 1671.49 1707.35 1671.49 1707.35C1671.49 1707.35 1671.49 1715.13 1691.67 1715.13H1770.91L1769.56 1668.61H1741.22Z" fill="#263238" stroke="#263238" stroke-width="6.15927" stroke-linecap="round" stroke-linejoin="round"/>
<path d="M1770.63 1706.66C1738.98 1708.1 1707.28 1707.6 1675.7 1705.14L1671.61 1707.35C1671.61 1707.35 1671.61 1715.13 1691.8 1715.13H1771.04L1770.63 1706.66Z" fill="white" stroke="#263238" stroke-width="6.15927" stroke-linecap="round" stroke-linejoin="round"/>
<path d="M2018.38 1668.61C2018.38 1668.61 2040 1685.61 2052.41 1690.28C2064.81 1694.95 2088.15 1707.35 2088.15 1707.35C2088.15 1707.35 2088.15 1715.13 2067.93 1715.13H1988.73L1990.16 1668.61H2018.38Z" fill="#263238" stroke="#263238" stroke-width="6.15927" stroke-linecap="round" stroke-linejoin="round"/>
<path d="M1988.97 1706.66C2020.62 1708.1 2052.32 1707.6 2083.9 1705.14L2087.99 1707.35C2087.99 1707.35 2087.99 1715.13 2067.76 1715.13H1988.73L1988.97 1706.66Z" fill="white" stroke="#263238" stroke-width="6.15927" stroke-linecap="round" stroke-linejoin="round"/>
<path d="M1760.31 828.85L1697.9 995.476H1757.77L1780.13 950.022L1760.31 828.85Z" fill="white" stroke="#263238" stroke-width="6.15927" stroke-linecap="round" stroke-linejoin="round"/>
<path d="M2033.32 969.678C2008.34 959.358 1928.2 954.239 1924.03 954.239C1919.85 954.239 1789.59 943.511 1778.9 941.954C1768.21 940.398 1755.97 964.887 1755.97 964.887L1812.48 963.33L1881.23 977.09C1881.23 977.09 2020.46 1027.5 2030.95 1024.47C2032.38 1023.99 2033.67 1023.18 2034.71 1022.09" fill="white"/>
<path d="M2033.32 969.678C2008.34 959.358 1928.2 954.239 1924.03 954.239C1919.85 954.239 1789.59 943.511 1778.9 941.954C1768.21 940.398 1755.97 964.887 1755.97 964.887L1812.48 963.33L1881.23 977.09C1881.23 977.09 2020.46 1027.5 2030.95 1024.47C2032.38 1023.99 2033.67 1023.18 2034.71 1022.09" stroke="#263238" stroke-width="6.15927" stroke-linecap="round" stroke-linejoin="round"/>
<path d="M1742.21 961.856L1957.61 940.48L1959.16 958.785L1772.76 1015.34C1772.76 1015.34 1739.18 1022.95 1713.17 1018.37C1687.17 1013.78 1699.46 987.819 1705.56 972.544" fill="white"/>
<path d="M1742.21 961.856L1957.61 940.48L1959.16 958.785L1772.76 1015.34C1772.76 1015.34 1739.18 1022.95 1713.17 1018.37C1687.17 1013.78 1699.46 987.819 1705.56 972.544" stroke="#263238" stroke-width="6.15927" stroke-linecap="round" stroke-linejoin="round"/>
<path d="M1957.65 940.48L1998.88 938.924L2011.09 963.371L1959.16 958.826L1957.65 940.48Z" fill="white" stroke="#263238" stroke-width="6.15927" stroke-linecap="round" stroke-linejoin="round"/>
<path d="M2232.3 1299.78L2267.47 1718.57C2267.57 1719.2 2267.79 1719.8 2268.12 1720.33C2268.45 1720.87 2268.89 1721.33 2269.41 1721.69C2269.93 1722.05 2270.51 1722.3 2271.13 1722.43C2271.75 1722.55 2272.39 1722.55 2273 1722.42C2274.06 1722.16 2274.98 1721.53 2275.61 1720.64C2276.23 1719.75 2276.51 1718.67 2276.4 1717.59L2252.45 1299.9L2232.3 1299.78Z" fill="#263238" stroke="#263238" stroke-width="6.15927" stroke-linecap="round" stroke-linejoin="round"/>
<path d="M2468.7 1299.78L2504 1719.97C2504.09 1720.59 2504.31 1721.19 2504.64 1721.73C2504.97 1722.27 2505.41 1722.74 2505.93 1723.1C2506.44 1723.46 2507.03 1723.71 2507.65 1723.83C2508.27 1723.96 2508.91 1723.95 2509.53 1723.82C2510.59 1723.55 2511.51 1722.92 2512.13 1722.03C2512.76 1721.15 2513.04 1720.06 2512.93 1718.98L2488.89 1299.78H2468.7Z" fill="#263238" stroke="#263238" stroke-width="6.15927" stroke-linecap="round" stroke-linejoin="round"/>
<path d="M1493.11 1299.78L1474.72 1714.93C1474.62 1716.02 1474.91 1717.11 1475.54 1718C1476.17 1718.89 1477.1 1719.53 1478.16 1719.8C1478.77 1719.96 1479.4 1719.98 1480.02 1719.87C1480.64 1719.76 1481.23 1719.52 1481.74 1719.16C1482.26 1718.8 1482.69 1718.34 1483.02 1717.8C1483.34 1717.26 1483.54 1716.66 1483.61 1716.03L1513.38 1299.78H1493.11Z" fill="#263238" stroke="#263238" stroke-width="6.15927" stroke-linecap="round" stroke-linejoin="round"/>
<path d="M1275.21 1299.78L1256.7 1713.37C1256.61 1714.47 1256.91 1715.56 1257.55 1716.45C1258.19 1717.34 1259.12 1717.98 1260.18 1718.25C1260.79 1718.4 1261.42 1718.41 1262.04 1718.3C1262.66 1718.19 1263.24 1717.94 1263.75 1717.59C1264.27 1717.23 1264.7 1716.77 1265.03 1716.23C1265.35 1715.7 1265.56 1715.1 1265.63 1714.48L1295.28 1299.61L1275.21 1299.78Z" fill="#263238" stroke="#263238" stroke-width="6.15927" stroke-linecap="round" stroke-linejoin="round"/>
<path d="M2514.73 1276.56H1262.11V1312.51H2514.73V1276.56Z" fill="#92E3A9" stroke="#263238" stroke-width="6.15927" stroke-linecap="round" stroke-linejoin="round"/>
<path d="M2514.73 1276.56H1262.11V1288.88H2514.73V1276.56Z" fill="#263238" stroke="#263238" stroke-width="6.15927" stroke-linecap="round" stroke-linejoin="round"/>
<path d="M2514.69 1276.56H2201.26V1312.51H2514.69V1276.56Z" fill="#263238" stroke="#263238" stroke-width="6.15927" stroke-linecap="round" stroke-linejoin="round"/>
<path d="M2525.87 1264.6H1250.93V1278.32H2525.87V1264.6Z" fill="#92E3A9" stroke="#263238" stroke-width="6.15927" stroke-linecap="round" stroke-linejoin="round"/>
<path d="M2525.83 1264.6H2214.32V1278.32H2525.83V1264.6Z" fill="#263238" stroke="#263238" stroke-width="6.15927" stroke-linecap="round" stroke-linejoin="round"/>
<path d="M1534.92 1263.37H1706.01C1706.66 1263.38 1707.3 1263.19 1707.85 1262.83C1708.39 1262.48 1708.82 1261.97 1709.08 1261.37L1756.46 1153.34C1756.68 1152.83 1756.76 1152.28 1756.71 1151.73C1756.66 1151.18 1756.48 1150.65 1756.17 1150.19C1755.87 1149.74 1755.46 1149.36 1754.97 1149.1C1754.48 1148.84 1753.94 1148.71 1753.39 1148.71H1582.3C1581.66 1148.71 1581.03 1148.9 1580.49 1149.25C1579.95 1149.59 1579.53 1150.09 1579.27 1150.68L1532.05 1258.7C1531.83 1259.2 1531.73 1259.74 1531.77 1260.27C1531.8 1260.81 1531.97 1261.33 1532.25 1261.79C1532.53 1262.25 1532.92 1262.64 1533.39 1262.91C1533.85 1263.19 1534.38 1263.35 1534.92 1263.37V1263.37Z" fill="white" stroke="#263238" stroke-width="6.15927" stroke-linecap="round" stroke-linejoin="round"/>
<path d="M1550.97 1254.94H1696.96C1697.5 1254.94 1698.04 1254.78 1698.5 1254.48C1698.95 1254.18 1699.32 1253.76 1699.54 1253.26L1739.95 1161.08C1740.17 1160.64 1740.28 1160.16 1740.25 1159.67C1740.23 1159.19 1740.08 1158.71 1739.82 1158.3C1739.56 1157.89 1739.2 1157.55 1738.77 1157.32C1738.34 1157.09 1737.86 1156.97 1737.37 1156.98H1591.39C1590.83 1156.98 1590.28 1157.14 1589.82 1157.45C1589.35 1157.75 1588.98 1158.19 1588.77 1158.7L1548.43 1250.96C1548.24 1251.39 1548.16 1251.86 1548.2 1252.32C1548.23 1252.79 1548.38 1253.24 1548.63 1253.63C1548.88 1254.03 1549.23 1254.35 1549.64 1254.58C1550.04 1254.81 1550.5 1254.93 1550.97 1254.94V1254.94Z" fill="#92E3A9" stroke="#263238" stroke-width="6.15927" stroke-linecap="round" stroke-linejoin="round"/>
<path d="M1708.38 1256.21H1451.34V1264.6H1708.38V1256.21Z" fill="white" stroke="#263238" stroke-width="6.15927" stroke-linecap="round" stroke-linejoin="round"/>
<path d="M1708.42 1256.21H1583.81V1264.6H1708.42V1256.21Z" fill="white" stroke="#263238" stroke-width="6.15927" stroke-linecap="round" stroke-linejoin="round"/>
<path d="M1790.98 1197.77H1745.65V1264.76H1790.98V1197.77Z" fill="white" stroke="#263238" stroke-width="6.15927" stroke-linecap="round" stroke-linejoin="round"/>
<path d="M1788.97 1255.63H1784.22C1783.23 1255.63 1782.29 1255.24 1781.59 1254.54C1780.89 1253.84 1780.5 1252.89 1780.5 1251.91C1780.5 1250.92 1780.89 1249.97 1781.59 1249.27C1782.29 1248.57 1783.23 1248.18 1784.22 1248.18H1788.97C1790.85 1248.17 1792.64 1247.42 1793.97 1246.09C1795.3 1244.77 1796.05 1242.97 1796.06 1241.1V1224.72C1796.05 1222.84 1795.3 1221.04 1793.97 1219.72C1792.64 1218.39 1790.85 1217.64 1788.97 1217.63H1782.87C1782.38 1217.63 1781.9 1217.53 1781.44 1217.35C1780.99 1217.16 1780.58 1216.89 1780.24 1216.54C1779.89 1216.19 1779.62 1215.78 1779.43 1215.33C1779.24 1214.88 1779.14 1214.39 1779.14 1213.9C1779.14 1213.41 1779.24 1212.93 1779.43 1212.48C1779.62 1212.03 1779.89 1211.62 1780.24 1211.27C1780.58 1210.92 1780.99 1210.65 1781.44 1210.46C1781.9 1210.27 1782.38 1210.18 1782.87 1210.18H1788.97C1790.88 1210.18 1792.77 1210.55 1794.54 1211.28C1796.3 1212.02 1797.9 1213.09 1799.25 1214.44C1800.6 1215.79 1801.67 1217.39 1802.4 1219.15C1803.13 1220.92 1803.51 1222.81 1803.51 1224.72V1241.1C1803.51 1243 1803.13 1244.89 1802.4 1246.66C1801.67 1248.42 1800.6 1250.02 1799.25 1251.37C1797.9 1252.72 1796.3 1253.8 1794.54 1254.53C1792.77 1255.26 1790.88 1255.63 1788.97 1255.63V1255.63Z" fill="white" stroke="#263238" stroke-width="6.15927" stroke-linecap="round" stroke-linejoin="round"/>
<path d="M2145.16 1263.37H1974.07C1973.42 1263.37 1972.79 1263.18 1972.25 1262.82C1971.71 1262.46 1971.29 1261.96 1971.04 1261.37L1923.66 1153.34C1923.44 1152.84 1923.35 1152.29 1923.4 1151.74C1923.45 1151.2 1923.63 1150.67 1923.93 1150.21C1924.23 1149.75 1924.64 1149.38 1925.12 1149.11C1925.6 1148.85 1926.14 1148.71 1926.69 1148.71H2097.78C2098.42 1148.71 2099.06 1148.89 2099.6 1149.24C2100.15 1149.59 2100.58 1150.09 2100.85 1150.68L2148.23 1258.7C2148.44 1259.21 2148.53 1259.77 2148.48 1260.32C2148.43 1260.87 2148.25 1261.4 2147.94 1261.86C2147.64 1262.32 2147.22 1262.7 2146.74 1262.97C2146.25 1263.23 2145.71 1263.37 2145.16 1263.37V1263.37Z" fill="white" stroke="#263238" stroke-width="6.15927" stroke-linecap="round" stroke-linejoin="round"/>
<path d="M1971.69 1264.6H2228.74V1256.21H1971.69V1264.6Z" fill="white" stroke="#263238" stroke-width="6.15927" stroke-linecap="round" stroke-linejoin="round"/>
<path d="M1971.69 1264.6H2148.92V1256.21H1971.69V1264.6Z" fill="white" stroke="#263238" stroke-width="6.15927" stroke-linecap="round" stroke-linejoin="round"/>
<path d="M2038.77 1193.55C2039.7 1195.31 2040.08 1197.29 2039.89 1199.27C2039.69 1201.24 2038.91 1203.11 2037.66 1204.65C2036.4 1206.18 2034.72 1207.31 2032.82 1207.89C2030.92 1208.47 2028.9 1208.48 2027 1207.92C2025.1 1207.35 2023.4 1206.24 2022.13 1204.72C2020.86 1203.2 2020.07 1201.33 2019.85 1199.36C2019.63 1197.39 2020 1195.4 2020.91 1193.64C2021.82 1191.87 2023.23 1190.42 2024.97 1189.46C2027.34 1188.17 2030.13 1187.89 2032.71 1188.65C2035.3 1189.42 2037.48 1191.18 2038.77 1193.55V1193.55Z" fill="white" stroke="#263238" stroke-width="6.15927" stroke-linecap="round" stroke-linejoin="round"/>
<path d="M1238.72 875.574L1251.34 1000.19L1308.67 1166.16L1289.05 1177.38L1221.73 1025.45L1188.11 895.025C1188.11 895.025 1185.28 855.795 1199.33 849.98C1213.38 844.165 1233.11 850.349 1238.72 875.574Z" fill="white" stroke="#263238" stroke-width="6.15927" stroke-linecap="round" stroke-linejoin="round"/>
<path d="M1308.83 1166.32C1308.83 1166.32 1321.44 1192.98 1322.88 1199.98C1324.31 1206.98 1325.74 1221.28 1320.22 1227.66C1313.54 1235.36 1307.44 1229.42 1307.44 1229.42C1307.44 1229.42 1290.61 1225.33 1290.61 1211.2C1290.61 1197.07 1289.22 1177.54 1289.22 1177.54L1308.83 1166.32Z" fill="white" stroke="#263238" stroke-width="6.15927" stroke-linecap="round" stroke-linejoin="round"/>
<path d="M1295.07 1208.13L1318.7 1214.27" stroke="#263238" stroke-width="6.15927" stroke-linecap="round" stroke-linejoin="round"/>
<path d="M1300.72 1192.2L1307.44 1202.77C1307.44 1202.77 1291.8 1229.51 1300.19 1222.5C1308.59 1215.5 1324.27 1206.98 1322.88 1199.98C1320.51 1192.63 1317.38 1185.55 1313.54 1178.85" fill="white"/>
<path d="M1300.72 1192.2L1307.44 1202.77C1307.44 1202.77 1291.8 1229.51 1300.19 1222.5C1308.59 1215.5 1324.27 1206.98 1322.88 1199.98C1320.51 1192.63 1317.38 1185.55 1313.54 1178.85" stroke="#263238" stroke-width="6.15927" stroke-linecap="round" stroke-linejoin="round"/>
<path d="M1171.69 725.819C1171.69 725.819 1157.27 710.258 1124.02 720.25C1090.77 730.242 1083.07 783.477 1084.1 810.054C1085.12 836.631 1110.71 866.606 1102.97 879.915C1095.24 893.224 1066.37 924.264 1068.58 957.72C1070.79 991.176 1098.51 1017.59 1138.44 1005.39C1178.36 993.183 1171.69 944.329 1163.74 926.475C1155.8 908.621 1172.63 900.963 1178.16 862.142C1183.69 823.322 1148.22 791.176 1148.22 763.453C1148.22 735.729 1176.89 740.193 1176.89 740.193L1171.69 725.819Z" fill="#263238" stroke="#263238" stroke-width="6.15927" stroke-linecap="round" stroke-linejoin="round"/>
<path d="M1121.73 831.061C1126.97 841.872 1133.07 853.42 1139.13 865.869C1159.36 907.147 1143.56 922.052 1112.8 944.903C1082.05 967.753 1089.09 995.845 1097 1000.19" stroke="white" stroke-width="6.15927" stroke-linecap="round" stroke-linejoin="round"/>
<path d="M1161.12 736.753C1161.12 736.753 1119.85 740.275 1109.28 766.606C1102.89 782.617 1107.81 800.554 1117.23 821.438" stroke="white" stroke-width="6.15927" stroke-linecap="round" stroke-linejoin="round"/>
<path d="M1130.94 989.907C1134.12 991.1 1137.51 991.63 1140.9 991.463" stroke="white" stroke-width="6.15927" stroke-linecap="round" stroke-linejoin="round"/>
<path d="M1171.69 734.01C1171.69 734.01 1133.03 741.012 1124.27 769.104C1115.51 797.196 1167.31 838.719 1169.93 869.268C1172.55 899.817 1135.65 917.671 1122.55 941.381C1113.34 958.007 1114.36 976.311 1124.06 985.525" stroke="white" stroke-width="6.15927" stroke-linecap="round" stroke-linejoin="round"/>
<path d="M1270.87 1299.41C1270.87 1299.41 1261.33 1381.8 1251.75 1408.09C1242.16 1434.38 1220.71 1640.97 1219.52 1652.93C1218.33 1664.89 1250.56 1692.32 1263.7 1700.72C1276.85 1709.11 1270.87 1711.45 1256.54 1712.64C1242.21 1713.82 1225.5 1711.45 1218.33 1698.3C1211.16 1685.16 1194.42 1681.6 1194.42 1681.6L1192.04 1710.26H1187.25L1183.69 1674.43C1182.47 1666.29 1183.71 1657.98 1187.25 1650.56C1193.23 1637.41 1195.44 1609.93 1195.44 1572.75C1195.44 1535.57 1188.27 1475.99 1191.84 1447.32C1195.4 1418.65 1209.77 1397.16 1209.77 1373.28C1209.77 1349.41 1210.96 1313.58 1210.96 1313.58L1270.87 1299.41Z" fill="white" stroke="#263238" stroke-width="6.15927" stroke-linecap="round" stroke-linejoin="round"/>
<path d="M1183.69 1674.43C1182.74 1668.27 1183.26 1661.97 1185.2 1656.04C1192.61 1668.57 1213.87 1685.57 1230.25 1692.32C1239.13 1696.17 1248.81 1697.8 1258.46 1697.07C1260.39 1698.51 1262.19 1699.74 1263.7 1700.72C1276.85 1708.91 1270.87 1711.45 1256.54 1712.64C1242.21 1713.82 1225.5 1711.45 1218.33 1698.3C1211.17 1685.16 1194.42 1681.6 1194.42 1681.6L1192.04 1710.26H1187.25L1183.69 1674.43Z" fill="#263238" stroke="#263238" stroke-width="6.15927" stroke-linecap="round" stroke-linejoin="round"/>
<path d="M1201.58 1312.55C1201.58 1312.55 1181.11 1373.45 1162.19 1425.98C1143.27 1478.52 1097.69 1599.16 1092.9 1620.66C1088.11 1642.16 1085.74 1681.6 1072.43 1701.91C1059.12 1722.22 1046.14 1731.76 1048.51 1695.93C1050.89 1660.1 1072.43 1633.81 1077.18 1606.33C1081.93 1578.85 1084.34 1479.75 1101.05 1435.57C1117.76 1391.38 1135.69 1355.55 1137.91 1342.41C1139.54 1329.32 1140.33 1316.15 1140.28 1302.97L1201.58 1312.55Z" fill="white" stroke="#263238" stroke-width="6.15927" stroke-linecap="round" stroke-linejoin="round"/>
<path d="M1050.97 1680.57C1051.15 1687.33 1053.25 1693.89 1057.03 1699.49C1063.91 1707.19 1075.01 1692.24 1080.78 1683.11C1078.89 1689.7 1076.14 1696 1072.59 1701.87C1059.45 1722.14 1046.3 1731.72 1048.68 1695.89C1049.07 1690.73 1049.84 1685.62 1050.97 1680.57V1680.57Z" fill="#263238" stroke="#263238" stroke-width="6.15927" stroke-linecap="round" stroke-linejoin="round"/>
<path d="M1192.16 831.88C1192.16 831.88 1185 837.859 1180.21 878.482C1175.42 919.104 1205.31 1045.68 1205.31 1045.68C1205.31 1045.68 1153.96 1129.79 1142 1171.6C1130.04 1213.41 1122.88 1370.05 1122.88 1370.05C1122.88 1370.05 1147.98 1379.63 1199.33 1383.19C1250.68 1386.75 1278.16 1373.65 1278.16 1373.65C1278.16 1373.65 1280.53 1150.1 1280.53 1115.66C1280.53 1081.23 1282.95 1002.89 1286.51 993.347C1290.08 983.805 1300.85 958.703 1300.85 949.162C1300.85 939.62 1229.02 837.859 1229.02 837.859L1192.16 831.88Z" fill="white" stroke="#263238" stroke-width="6.15927" stroke-linecap="round" stroke-linejoin="round"/>
<path d="M1141.88 1171.6C1151.3 1138.84 1190.28 1051.7 1204.2 1036.71C1225.37 1043.76 1263.99 1050.72 1281.23 1045.56C1280.7 1057.84 1280.41 1103.71 1280.41 1115.46C1280.41 1150.1 1278.04 1373.45 1278.04 1373.45C1278.04 1373.45 1250.56 1386.59 1199.21 1382.99C1147.86 1379.38 1122.75 1369.84 1122.75 1369.84C1122.75 1369.84 1129.92 1213.41 1141.88 1171.6Z" fill="#263238" stroke="#263238" stroke-width="6.15927" stroke-linecap="round" stroke-linejoin="round"/>
<path d="M1218.66 691.094C1218.66 691.094 1231.48 663.166 1256.82 663.166C1282.17 663.166 1293.43 685.688 1287.82 705.385C1282.21 725.082 1304.7 719.472 1307.52 732.167C1310.35 744.861 1289.22 753.256 1277.95 753.256C1266.69 753.256 1218.66 691.094 1218.66 691.094Z" fill="#263238" stroke="#263238" stroke-width="6.15927" stroke-linecap="round" stroke-linejoin="round"/>
<path d="M1255.68 688.227C1263.21 684.132 1272.06 681.184 1276.15 687.572C1284.06 699.857 1259.49 709.521 1267.39 722.707C1275.29 735.893 1294.62 732.372 1293.72 736.753C1292.82 741.135 1280.58 743.756 1280.58 743.756" stroke="white" stroke-width="6.15927" stroke-linecap="round" stroke-linejoin="round"/>
<path d="M1242.78 697.154C1242.78 697.154 1245.2 695.066 1248.8 692.527" stroke="white" stroke-width="6.15927" stroke-linecap="round" stroke-linejoin="round"/>
<path d="M1283.65 756.082C1281.85 754.749 1280.44 752.97 1279.55 750.922C1277.5 735.811 1273.08 720.946 1264.73 712.593C1252.09 700.696 1235.97 693.161 1218.74 691.094C1213.64 690.342 1208.43 690.819 1203.55 692.486C1181.8 700.103 1163.13 715.132 1167.14 751.372C1171.57 791.299 1202.65 801.291 1202.65 801.291L1204.86 825.861L1235.9 840.275L1237 813.658C1237 813.658 1258.05 822.503 1265.67 821.397C1273.29 820.291 1275.66 810.3 1278.98 795.885C1280.2 789.308 1280.8 782.632 1280.78 775.942L1290.08 766.688C1295.36 761.323 1290.16 760.013 1283.65 756.082Z" fill="white" stroke="#263238" stroke-width="6.15927" stroke-linecap="round" stroke-linejoin="round"/>
<path d="M1167.06 751.372C1162.97 715.132 1181.72 700.103 1203.47 692.486C1208.35 690.819 1213.56 690.342 1218.66 691.094C1230.41 692.664 1241.72 696.592 1251.91 702.642C1245.69 701.372 1256.29 719.677 1246.55 731.307C1238.01 742.103 1227.13 750.814 1214.73 756.778C1214.73 756.778 1203.67 747.892 1200.31 760.095C1196.96 772.298 1198.1 781.143 1206.99 783.395C1215.87 785.648 1219.27 783.395 1219.27 783.395C1219.27 783.395 1213.38 797.359 1202.89 803.133V801.127C1202.89 801.127 1171.69 791.34 1167.06 751.372Z" fill="#263238" stroke="#263238" stroke-width="6.15927" stroke-linecap="round" stroke-linejoin="round"/>
<path d="M1251.75 833.068L1245.81 865.337L1182.5 831.88L1188.48 802.028L1251.75 833.068Z" fill="white" stroke="#263238" stroke-width="6.15927" stroke-linecap="round" stroke-linejoin="round"/>
<path d="M1221.16 1105.14C1227.71 1106.54 1234.37 1107.45 1241.06 1107.84C1246.26 1107.52 1253.34 1101.66 1258.59 1104.16C1263.83 1106.66 1271.16 1122.42 1271.16 1122.42C1271.16 1122.42 1278.12 1125.94 1276.11 1129.67C1274.11 1133.4 1265.51 1136.84 1265.51 1136.84C1265.51 1136.84 1257.32 1144.58 1252.57 1145.35C1247.82 1146.13 1218.86 1124.88 1218.86 1124.88L1221.16 1105.14Z" fill="white" stroke="#263238" stroke-width="6.15927" stroke-linecap="round" stroke-linejoin="round"/>
<path d="M1224.23 1120.46C1225.19 1119.3 1225.88 1117.95 1226.24 1116.5C1226.61 1115.05 1226.65 1113.53 1226.35 1112.06C1226.06 1110.59 1225.44 1109.21 1224.54 1108.01C1223.64 1106.81 1222.49 1105.83 1221.16 1105.14L1141.59 1030.61L1228.24 895.885C1232.11 888.762 1233.05 880.412 1230.86 872.608C1228.67 864.804 1223.53 858.159 1216.52 854.084C1209.52 850.008 1201.2 848.822 1193.33 850.778C1185.47 852.733 1178.67 857.677 1174.39 864.558L1099.29 1013.82C1095.38 1017.61 1093.13 1022.78 1093 1028.22C1092.88 1033.66 1094.9 1038.93 1098.63 1042.9L1098.92 1043.18C1106.46 1054.81 1189.34 1115.62 1213.58 1123.57C1215.46 1124.16 1217.48 1124.19 1219.38 1123.63C1221.27 1123.08 1222.96 1121.97 1224.23 1120.46V1120.46Z" fill="white" stroke="#263238" stroke-width="6.15927" stroke-linecap="round" stroke-linejoin="round"/>
<path d="M1539.05 914.19C1539.05 914.19 1549.33 946.008 1549.33 952.192C1549.26 956.658 1548.91 961.116 1548.31 965.542L1557.36 979.588C1557.89 980.491 1558.05 981.563 1557.82 982.584C1557.58 983.605 1556.96 984.496 1556.09 985.075L1542.12 993.265C1542.12 993.265 1540.08 1026.03 1538.03 1030.12C1535.98 1034.22 1501.17 1033.23 1501.17 1033.23L1489.87 1054.77L1431.31 1032.21L1446.71 990.071L1443.52 926.475C1443.52 926.475 1479.47 894.698 1539.05 914.19Z" fill="white" stroke="#263238" stroke-width="6.15927" stroke-linecap="round" stroke-linejoin="round"/>
<path d="M1498.96 991.586C1498.96 991.586 1488.77 1001.17 1481.11 1001.82C1473.45 1002.48 1448.55 996.705 1446.63 994.166C1444.7 991.627 1427.51 955.877 1428.12 938.637C1428.73 921.397 1429.43 895.886 1447.9 887.614C1466.37 879.342 1495.77 881.84 1511.08 872.298C1526.4 862.757 1550.64 855.058 1563.42 871.643C1576.2 888.228 1566.61 911.201 1556.42 920.783C1546.22 930.366 1533.44 933.068 1534.71 937.163C1535.98 941.258 1543.64 946.09 1539.18 952.479C1534.71 958.867 1518.7 964.764 1518.7 967.139C1518.7 969.514 1522.55 978.646 1518.09 979.915C1513.62 981.185 1509.12 970.988 1504.66 970.988C1500.19 970.988 1490.69 983.314 1498.96 991.586Z" fill="#263238" stroke="#263238" stroke-width="6.15927" stroke-linecap="round" stroke-linejoin="round"/>
<path d="M1472.31 962.307C1470.47 964.364 1468.9 966.649 1467.64 969.104" stroke="white" stroke-width="6.15927" stroke-linecap="round" stroke-linejoin="round"/>
<path d="M1556.17 896.172C1555.36 903.2 1552.8 909.913 1548.72 915.694C1544.64 921.475 1539.18 926.139 1532.83 929.26C1516.45 937.736 1494.62 944.657 1480.13 955.304" stroke="white" stroke-width="6.15927" stroke-linecap="round" stroke-linejoin="round"/>
<path d="M1534.71 937.368C1534.71 937.368 1520.18 949.653 1504.61 962.307C1494 970.526 1482.19 977.085 1469.6 981.758" stroke="white" stroke-width="6.15927" stroke-linecap="round" stroke-linejoin="round"/>
<path d="M1497.94 993.306L1506.13 995.353C1505.63 999.182 1505.93 1003.07 1506.99 1006.78C1508.05 1010.49 1509.86 1013.95 1512.31 1016.93" fill="white"/>
<path d="M1497.94 993.306L1506.13 995.353C1505.63 999.182 1505.93 1003.07 1506.99 1006.78C1508.05 1010.49 1509.86 1013.95 1512.31 1016.93" stroke="#263238" stroke-width="6.15927" stroke-linecap="round" stroke-linejoin="round"/>
<path d="M1507.44 971.316L1565.26 956.983" stroke="#263238" stroke-width="6.15927" stroke-linecap="round" stroke-linejoin="round"/>
<path d="M1550.4 955.837L1563.58 956.41C1563.58 956.41 1568.13 971.316 1554.41 973.036" stroke="#263238" stroke-width="6.15927" stroke-linecap="round" stroke-linejoin="round"/>
<path d="M1492.08 1663.82C1492.08 1663.82 1545.32 1697.44 1554.7 1697.44C1564.07 1697.44 1568.74 1705.88 1564.07 1706.82C1559.41 1707.76 1530.41 1708.66 1510.84 1709.61C1491.26 1710.55 1478.08 1708.66 1466.9 1708.66C1455.72 1708.66 1442.57 1709.61 1436.96 1706.82C1431.35 1704.04 1440.73 1672.22 1440.73 1666.61C1440.73 1661 1485.53 1660.06 1492.08 1663.82Z" fill="#263238" stroke="#263238" stroke-width="6.15927" stroke-linecap="round" stroke-linejoin="round"/>
<path d="M1560.72 1698.84C1540.04 1705.63 1506.5 1701.17 1486.35 1699.33C1470.42 1697.89 1445.4 1697.57 1435.2 1697.48C1434.79 1702.28 1435.2 1705.92 1436.8 1706.82C1442.41 1709.61 1455.52 1708.66 1466.74 1708.66C1477.96 1708.66 1491.02 1710.55 1510.67 1709.61C1530.33 1708.66 1559.28 1707.72 1563.91 1706.82C1567.55 1706.08 1565.83 1701.25 1560.72 1698.84Z" fill="white" stroke="#263238" stroke-width="6.15927" stroke-linecap="round" stroke-linejoin="round"/>
<path d="M1534.14 1432.86L1492.12 1643.55L1500.89 1665.42C1494.6 1674.53 1485.11 1680.93 1474.31 1683.36C1462.3 1685.72 1450.1 1686.98 1437.87 1687.12C1437.87 1687.12 1433.2 1663.74 1436.02 1660.92C1438.85 1658.09 1439.75 1646.91 1439.75 1646.91L1464.03 1434.71L1534.14 1432.86Z" fill="#92E3A9" stroke="#263238" stroke-width="6.15927" stroke-linecap="round" stroke-linejoin="round"/>
<path d="M1662.19 1656.7C1662.19 1656.7 1694.95 1683.81 1709.9 1688.48C1724.84 1693.14 1740.73 1697.81 1740.73 1702.48C1740.73 1707.15 1705.23 1711.82 1678.12 1709.03C1651.01 1706.25 1609.86 1694.09 1600.52 1694.09C1591.18 1694.09 1593.03 1669.76 1593.03 1666.03C1593.03 1662.31 1638.85 1632.37 1662.19 1656.7Z" fill="#263238" stroke="#263238" stroke-width="6.15927" stroke-linecap="round" stroke-linejoin="round"/>
<path d="M1740.9 1702.48C1740.9 1700.8 1738.81 1699.12 1735.49 1697.44C1708.73 1701.02 1681.61 1700.83 1654.9 1696.87C1628 1693.02 1605.47 1687.86 1593.97 1684.99C1594.95 1690.03 1596.88 1694.09 1600.68 1694.09C1610.02 1694.09 1651.18 1706.37 1678.28 1709.03C1705.39 1711.69 1740.9 1707.15 1740.9 1702.48Z" fill="white" stroke="#263238" stroke-width="6.15927" stroke-linecap="round" stroke-linejoin="round"/>
<path d="M1499.58 1338.43C1527.61 1336.29 1555.78 1336.92 1583.69 1340.32C1631.35 1345.93 1737.87 1352.6 1739.71 1364.64C1741.55 1376.68 1657.07 1629.71 1657.07 1636.22C1657.07 1642.73 1664.52 1649.33 1666.41 1653.05C1667.6 1655.71 1668.24 1658.58 1668.29 1661.49C1668.29 1661.49 1645.4 1686.06 1627.63 1692.73C1609.86 1699.41 1594.87 1693.14 1591.18 1693.14C1587.5 1693.14 1587.46 1667.92 1590.28 1655.76C1593.11 1643.59 1597.73 1612.76 1598.68 1609.97C1599.62 1607.19 1650.81 1427.25 1650.81 1427.25C1650.81 1427.25 1511.58 1449.7 1428.41 1440.32C1345.24 1430.94 1336.8 1417.92 1332.13 1398.26C1327.46 1378.61 1336.8 1339.38 1336.8 1339.38L1499.58 1338.43Z" fill="#92E3A9" stroke="#263238" stroke-width="6.15927" stroke-linecap="round" stroke-linejoin="round"/>
<path d="M1489.05 1399C1487.16 1401.73 1485.05 1404.31 1482.75 1406.7" stroke="#263238" stroke-width="6.15927" stroke-linecap="round" stroke-linejoin="round"/>
<path d="M1514.53 1348.71C1509.15 1362.17 1502.96 1375.29 1495.97 1387.98" stroke="#263238" stroke-width="6.15927" stroke-linecap="round" stroke-linejoin="round"/>
<path d="M1503.39 1358.09C1492.11 1376.7 1475.03 1391.08 1454.78 1399.04" stroke="#263238" stroke-width="6.15927" stroke-linecap="round" stroke-linejoin="round"/>
<path d="M1715.59 1409.69C1718.78 1408.46 1721.86 1407.19 1724.76 1405.88Z" fill="white"/>
<path d="M1715.59 1409.69C1718.78 1408.46 1721.86 1407.19 1724.76 1405.88" stroke="#263238" stroke-width="6.15927" stroke-linecap="round" stroke-linejoin="round"/>
<path d="M1650.81 1427.25C1668.79 1423.78 1686.57 1419.28 1704.04 1413.78Z" fill="white"/>
<path d="M1650.81 1427.25C1668.79 1423.78 1686.57 1419.28 1704.04 1413.78" stroke="#263238" stroke-width="6.15927" stroke-linecap="round" stroke-linejoin="round"/>
<path d="M1758.87 1116.81C1760.84 1108.99 1764.12 1109.6 1761.49 1107.02C1757.89 1103.42 1754.98 1107.68 1744.54 1113.54C1734.1 1119.39 1723.7 1126.56 1723.7 1126.56C1723.93 1124.38 1724.83 1122.34 1726.28 1120.7C1728.92 1116.38 1730.33 1111.43 1730.37 1106.37C1730.37 1102.27 1727.1 1103.09 1725.79 1107.02C1724.48 1110.96 1712.76 1118.08 1712.11 1121.36C1711.45 1124.63 1709.12 1137.49 1709.12 1137.49C1705.39 1143.1 1705.39 1169.27 1705.39 1169.27L1629.51 1226.27L1591.18 1271.32C1591.18 1271.32 1608.01 1298.43 1617.35 1294.7C1626.69 1290.97 1631.35 1287.21 1653.8 1268.49C1672.8 1252.64 1720.42 1179.55 1720.42 1179.55C1728.72 1174.34 1736.57 1168.45 1743.89 1161.94C1752.33 1152.38 1757.32 1140.27 1758.05 1127.54C1757.88 1123.94 1758.15 1120.34 1758.87 1116.81V1116.81Z" fill="white" stroke="#263238" stroke-width="6.15927" stroke-linecap="round" stroke-linejoin="round"/>
<path d="M1407.77 1030.32C1407.77 1030.32 1414.97 1003.3 1445.61 1008.7C1476.24 1014.11 1499.66 1039.33 1505.07 1048.34C1510.47 1057.35 1405.97 1044.74 1405.97 1044.74L1407.77 1030.32Z" fill="white" stroke="#263238" stroke-width="6.15927" stroke-linecap="round" stroke-linejoin="round"/>
<path d="M1584.34 1266.36C1584.34 1266.36 1577.22 1274.06 1584.34 1286.18C1589.22 1294.58 1597.82 1301.01 1614.28 1298.18C1629.68 1295.48 1652.81 1257.23 1652.81 1230.33C1652.81 1203.42 1632.99 1201.66 1625.79 1206.9C1618.58 1212.14 1584.34 1266.36 1584.34 1266.36Z" fill="white" stroke="#263238" stroke-width="6.15927" stroke-linecap="round" stroke-linejoin="round"/>
<path d="M1421.04 1027.17C1421.04 1027.17 1348.14 1061.77 1337.87 1068.12C1327.59 1074.47 1321.04 1155.96 1321.04 1170.01C1321.04 1184.05 1331.31 1321.52 1334.1 1344.78C1336.88 1368.04 1426.65 1384.05 1456.58 1375.62C1486.51 1367.18 1515.67 1345.93 1515.67 1338.43C1515.67 1330.94 1512.85 1267.43 1514.73 1255.26C1516.61 1243.1 1533.4 1191.71 1533.4 1191.71L1584.43 1273.12C1584.43 1273.12 1589.79 1283.11 1608.75 1275.25C1635.86 1264.03 1638.11 1220.66 1638.11 1220.66C1638.11 1220.66 1608.22 1168.33 1599.78 1142.16C1591.35 1115.99 1587.5 1096.34 1583.89 1091.67C1580.29 1087 1496.02 1047.73 1481.07 1037.45C1472.61 1031.08 1462.74 1026.82 1452.3 1025.03C1441.86 1023.24 1431.14 1023.98 1421.04 1027.17V1027.17Z" fill="white" stroke="#263238" stroke-width="6.15927" stroke-linecap="round" stroke-linejoin="round"/>
<path d="M1533.2 1191.71L1508.91 1156.16" stroke="#263238" stroke-width="6.15927" stroke-linecap="round" stroke-linejoin="round"/>
<path d="M1529.27 1186.63L1486.47 1165.54" stroke="#263238" stroke-width="6.15927" stroke-linecap="round" stroke-linejoin="round"/>
<path d="M1402.44 1454.73L1439.79 1720.17C1439.88 1720.79 1440.09 1721.38 1440.42 1721.9C1440.74 1722.43 1441.18 1722.89 1441.69 1723.24C1442.2 1723.59 1442.78 1723.83 1443.39 1723.94C1444.01 1724.06 1444.63 1724.04 1445.24 1723.9C1446.29 1723.64 1447.21 1723.01 1447.84 1722.14C1448.47 1721.26 1448.77 1720.18 1448.68 1719.11L1422.35 1450.35L1402.44 1454.73Z" fill="#263238" stroke="#263238" stroke-width="6.15927" stroke-linecap="round" stroke-linejoin="round"/>
<path d="M1295.15 1456.82L1232.75 1717.51C1232.6 1718.11 1232.59 1718.74 1232.7 1719.35C1232.82 1719.96 1233.06 1720.54 1233.41 1721.06C1233.76 1721.57 1234.21 1722 1234.74 1722.33C1235.27 1722.66 1235.86 1722.87 1236.47 1722.96V1722.96C1237.54 1723.11 1238.63 1722.88 1239.53 1722.29C1240.44 1721.7 1241.1 1720.8 1241.39 1719.76L1313.87 1466.77L1295.15 1456.82Z" fill="#263238" stroke="#263238" stroke-width="6.15927" stroke-linecap="round" stroke-linejoin="round"/>
<path d="M1408.5 1453.59L1368.78 1718.66C1368.69 1719.27 1368.73 1719.89 1368.88 1720.49C1369.04 1721.08 1369.32 1721.64 1369.71 1722.13C1370.09 1722.61 1370.57 1723.01 1371.12 1723.3C1371.66 1723.59 1372.26 1723.77 1372.88 1723.82V1723.82C1373.95 1723.87 1375.02 1723.54 1375.87 1722.88C1376.72 1722.22 1377.3 1721.27 1377.5 1720.21L1427.91 1461.9L1408.5 1453.59Z" fill="#263238" stroke="#263238" stroke-width="6.15927" stroke-linecap="round" stroke-linejoin="round"/>
<path d="M1549.13 1454.73L1586.47 1720.17C1586.56 1720.79 1586.77 1721.38 1587.1 1721.9C1587.43 1722.43 1587.86 1722.89 1588.37 1723.24C1588.89 1723.59 1589.47 1723.83 1590.08 1723.94C1590.69 1724.06 1591.32 1724.04 1591.92 1723.9C1592.97 1723.64 1593.89 1723.01 1594.52 1722.14C1595.15 1721.26 1595.45 1720.18 1595.36 1719.11L1568.91 1450.27L1549.13 1454.73Z" fill="#263238" stroke="#263238" stroke-width="6.15927" stroke-linecap="round" stroke-linejoin="round"/>
<path d="M1236.06 1179.26L1281.52 1474.8H1604.78C1604.78 1474.8 1609.57 1389.62 1595.32 1359.52C1581.07 1329.42 1405.11 1393.96 1398.76 1392.28C1394.05 1391.1 1401.01 1238.52 1409.65 1178.89C1410.26 1174.69 1409.95 1170.42 1408.76 1166.35C1407.56 1162.28 1405.51 1158.51 1402.73 1155.31C1399.95 1152.11 1396.52 1149.54 1392.66 1147.78C1388.8 1146.02 1384.61 1145.11 1380.37 1145.11H1265.3C1261.03 1145.1 1256.81 1146.03 1252.92 1147.81C1249.04 1149.6 1245.59 1152.2 1242.81 1155.45C1240.03 1158.69 1237.99 1162.5 1236.83 1166.61C1235.66 1170.72 1235.4 1175.04 1236.06 1179.26V1179.26Z" fill="#92E3A9" stroke="#263238" stroke-width="6.15927" stroke-linecap="round" stroke-linejoin="round"/>
<path d="M1595.32 1359.52C1581.07 1329.42 1405.11 1393.96 1398.76 1392.28C1394.05 1391.1 1401.01 1238.52 1409.65 1178.89C1410.41 1174.75 1410.24 1170.49 1409.16 1166.42C1408.08 1162.35 1406.12 1158.56 1403.41 1155.33C1400.71 1152.11 1397.32 1149.52 1393.5 1147.74C1389.68 1145.97 1385.52 1145.07 1381.3 1145.09C1377.09 1145.11 1372.94 1146.06 1369.13 1147.87C1365.33 1149.68 1361.97 1152.3 1359.3 1155.56C1356.63 1158.81 1354.7 1162.62 1353.67 1166.7C1352.63 1170.78 1352.51 1175.04 1353.3 1179.18L1398.76 1474.72H1604.78C1604.78 1474.72 1609.57 1389.62 1595.32 1359.52Z" fill="#263238" stroke="#263238" stroke-width="6.15927" stroke-linecap="round" stroke-linejoin="round"/>
<path d="M1758.87 1116.81C1758.87 1116.81 1753.67 1122.01 1745.85 1131.14Z" fill="white"/>
<path d="M1758.87 1116.81C1758.87 1116.81 1753.67 1122.01 1745.85 1131.14" stroke="#263238" stroke-width="6.15927" stroke-linecap="round" stroke-linejoin="round"/>
<path d="M1758.05 1127.38C1758.05 1127.38 1751.71 1140.28 1747.82 1146.13Z" fill="white"/>
<path d="M1758.05 1127.38C1758.05 1127.38 1751.71 1140.28 1747.82 1146.13" stroke="#263238" stroke-width="6.15927" stroke-linecap="round" stroke-linejoin="round"/>
<path d="M882.418 1276.76C889.216 1279.71 905.801 1279.34 905.842 1279.34C905.883 1279.34 902.279 1268.49 901.952 1267.84C898.307 1260.18 886.759 1247.61 877.381 1248.88C875.829 1249.13 874.348 1249.71 873.034 1250.57C871.72 1251.44 870.603 1252.57 869.757 1253.89C868.91 1255.22 868.353 1256.71 868.122 1258.26C867.89 1259.82 867.99 1261.41 868.413 1262.92C869.97 1269.39 876.603 1274.22 882.418 1276.76Z" fill="#263238"/>
<path d="M1100.07 1220.21C1090.65 1219.19 1079.59 1232.09 1076.03 1239.83C1075.74 1240.48 1072.3 1251.46 1072.47 1251.46C1070.67 1253.46 1068.78 1255.55 1066.78 1258.09C1063.09 1262.59 1059 1267.75 1054.86 1273.65C1050.4 1279.97 1046.3 1286.53 1042.57 1293.31C1038.37 1300.9 1034.84 1308.85 1032.01 1317.06C1032.03 1317.15 1032.03 1317.25 1032.01 1317.34C1032.01 1314.6 1032.01 1306.82 1032.01 1306.25C1030.9 1297.85 1023.82 1282.29 1014.56 1280.57C1013.02 1280.32 1011.45 1280.4 1009.94 1280.8C1008.43 1281.19 1007.01 1281.9 1005.8 1282.88C1004.58 1283.86 1003.58 1285.08 1002.86 1286.46C1002.14 1287.85 1001.72 1289.37 1001.62 1290.93C1001.05 1297.61 1005.72 1304.28 1010.59 1308.46C1015.92 1313.21 1030.66 1317.79 1031.85 1318.16C1029.17 1326.68 1027.09 1335.36 1025.62 1344.17C1024.68 1349.24 1023.94 1354.36 1023.25 1359.52C1023.25 1357.11 1023.25 1354.98 1023.25 1354.69C1022.18 1346.3 1015.06 1330.73 1005.84 1329.02C1004.29 1328.77 1002.7 1328.86 1001.18 1329.27C999.664 1329.68 998.248 1330.4 997.028 1331.4C995.808 1332.39 994.81 1333.63 994.099 1335.03C993.388 1336.43 992.98 1337.97 992.901 1339.54C992.369 1346.21 996.997 1352.89 1001.91 1357.11C1006.82 1361.32 1019.15 1365.54 1022.39 1366.57C1022.14 1368.57 1021.85 1370.66 1021.61 1372.5C1020.5 1382 1019.4 1391.51 1018.04 1400.76C1017.55 1404.04 1016.98 1407.23 1016.41 1410.42C1016.41 1408.29 1016.41 1406.53 1016.41 1406.33C1015.3 1397.93 1008.22 1382.37 998.962 1380.65C997.408 1380.42 995.822 1380.51 994.305 1380.92C992.789 1381.34 991.377 1382.07 990.161 1383.07C988.945 1384.06 987.952 1385.3 987.246 1386.71C986.54 1388.11 986.137 1389.65 986.063 1391.22C985.53 1397.85 990.158 1404.53 995.072 1408.74C1001.19 1412.79 1007.88 1415.87 1014.93 1417.88C1014.24 1421.15 1013.54 1424.39 1012.72 1427.54C1012.11 1429.67 1011.7 1431.64 1010.96 1433.85C1010.22 1436.06 1009.61 1437.94 1008.95 1440.07C1007.52 1443.96 1006.09 1448.02 1004.61 1451.78C1003.59 1454.45 1002.57 1456.94 1001.58 1459.44C1002.07 1456.21 1002.93 1449.82 1002.98 1449.29C1002.86 1441.84 1000.84 1434.56 997.119 1428.11C997.221 1427.3 997.221 1426.47 997.119 1425.66C996.934 1424.08 996.415 1422.56 995.596 1421.2C994.778 1419.84 993.68 1418.67 992.374 1417.77C991.069 1416.87 989.586 1416.25 988.025 1415.97C986.464 1415.68 984.859 1415.73 983.319 1416.12C974.146 1418.53 968.372 1434.58 967.922 1443.02C967.922 1443.51 968.25 1448.96 968.495 1452.4C968.045 1450.39 967.594 1448.3 967.103 1446.42C966.161 1442.32 965.055 1438.23 963.95 1434.13C963.295 1432.05 962.68 1430.04 962.025 1427.87C961.37 1425.7 960.551 1423.77 959.814 1421.48C958.012 1416.53 955.964 1411.61 953.753 1406.7C957.275 1405.84 969.806 1402.6 974.842 1398.79C979.879 1394.99 985.162 1388.64 985.121 1381.96C985.17 1380.37 984.878 1378.79 984.267 1377.32C983.655 1375.86 982.738 1374.53 981.575 1373.45C980.412 1372.36 979.031 1371.54 977.524 1371.03C976.017 1370.52 974.419 1370.34 972.836 1370.5C963.417 1371.52 955.227 1386.51 953.548 1394.78C953.548 1395.31 952.852 1401.37 952.607 1404.73C951.296 1401.78 949.945 1398.84 948.512 1395.89C944.417 1387.45 939.748 1378.97 935.285 1370.54L931.19 1362.76C932.459 1362.47 947.57 1359.03 953.057 1354.57C958.544 1350.1 963.376 1344.45 963.336 1337.74C963.378 1336.15 963.082 1334.57 962.468 1333.11C961.854 1331.64 960.936 1330.32 959.775 1329.24C958.614 1328.15 957.235 1327.33 955.731 1326.82C954.227 1326.31 952.632 1326.12 951.05 1326.27C941.632 1327.3 933.483 1342.28 931.763 1350.55C931.763 1351.21 930.821 1359.93 930.739 1362.18C927.791 1356.49 924.883 1350.76 922.263 1345.03C918.665 1337.28 915.573 1329.3 913.008 1321.15C913.581 1321.15 929.388 1317.47 935.039 1312.96C940.035 1309.11 945.358 1302.81 945.277 1296.13C945.325 1294.54 945.034 1292.96 944.422 1291.49C943.811 1290.02 942.893 1288.7 941.73 1287.62C940.567 1286.53 939.186 1285.71 937.679 1285.2C936.172 1284.69 934.574 1284.51 932.991 1284.67C923.573 1285.69 915.424 1300.68 913.704 1308.95C913.704 1309.6 912.721 1319.02 912.68 1320.74C912.68 1320.25 912.353 1319.8 912.189 1319.31C909.861 1311.07 908.258 1302.64 907.398 1294.13C906.906 1289.42 906.661 1284.91 906.497 1280.49C909.486 1280.12 922.877 1278.32 928.733 1274.92C934.589 1271.52 940.117 1265.95 941.018 1259.32C941.231 1257.76 941.114 1256.17 940.675 1254.66C940.236 1253.15 939.484 1251.75 938.468 1250.55C937.453 1249.35 936.196 1248.38 934.78 1247.69C933.364 1247.01 931.82 1246.63 930.248 1246.58C920.747 1246.58 911.001 1260.59 908.38 1268.61C908.38 1269.06 907.316 1273.65 906.661 1277.01C906.661 1275.04 906.661 1272.91 906.661 1271.07C906.661 1263.9 907.111 1257.35 907.561 1251.58C907.848 1248.26 908.176 1245.27 908.503 1242.49C911.247 1240.6 922.181 1232.91 925.539 1227.38C928.896 1221.85 931.517 1214.19 929.06 1207.97C928.533 1206.49 927.7 1205.14 926.616 1204C925.532 1202.87 924.221 1201.97 922.768 1201.38C921.316 1200.78 919.755 1200.5 918.186 1200.55C916.617 1200.6 915.076 1200.98 913.663 1201.66C905.227 1206 903.016 1222.91 904.408 1231.27C904.408 1231.96 907.725 1243.02 907.848 1242.94C907.48 1245.6 907.111 1248.47 906.783 1251.62C906.21 1257.43 905.637 1263.9 905.432 1271.19C905.185 1278.92 905.377 1286.66 906.005 1294.37C906.609 1303.02 907.979 1311.6 910.1 1320.01C910.118 1320.1 910.118 1320.2 910.1 1320.29C908.626 1317.96 904.244 1311.57 903.835 1311.12C898.307 1304.73 883.851 1295.6 875.17 1299.33C873.738 1299.98 872.46 1300.92 871.418 1302.1C870.376 1303.27 869.594 1304.66 869.122 1306.15C868.651 1307.65 868.501 1309.24 868.682 1310.8C868.863 1312.36 869.372 1313.86 870.174 1315.21C873.409 1321.07 881.108 1323.98 887.373 1324.88C894.416 1325.9 909.24 1321.6 910.428 1321.28C912.864 1329.76 915.86 1338.08 919.396 1346.17C921.444 1350.88 923.491 1355.59 925.907 1360.26C924.556 1358.25 923.327 1356.49 923.163 1356.17C917.635 1349.78 903.18 1340.64 894.498 1344.37C893.091 1345.09 891.852 1346.1 890.862 1347.33C889.872 1348.56 889.154 1349.98 888.756 1351.51C888.357 1353.04 888.287 1354.64 888.55 1356.19C888.813 1357.75 889.403 1359.23 890.28 1360.55C893.475 1366.4 901.214 1369.31 907.439 1370.21C913.663 1371.11 926.48 1367.75 929.838 1366.77C930.739 1368.57 931.599 1370.37 932.5 1372.14C936.595 1380.69 941.141 1389.21 945.113 1397.69C946.505 1400.68 947.774 1403.67 949.208 1406.66L946.792 1403.22C941.263 1396.83 926.808 1387.74 918.127 1391.42C916.697 1392.08 915.422 1393.03 914.384 1394.21C913.346 1395.4 912.568 1396.78 912.101 1398.28C911.634 1399.79 911.488 1401.37 911.672 1402.93C911.857 1404.49 912.367 1406 913.172 1407.35C916.407 1413.21 924.105 1416.12 930.33 1417.02C937.73 1417.05 945.091 1415.94 952.156 1413.74C953.385 1416.85 954.613 1419.97 955.637 1423C956.333 1425.13 957.111 1427.09 957.643 1429.26C958.176 1431.43 958.831 1433.36 959.404 1435.57C960.387 1439.66 961.411 1443.76 962.271 1447.85C962.885 1450.6 963.417 1453.26 963.95 1456.04C962.557 1453.05 959.855 1447.24 959.486 1446.79C954.982 1439.62 942.082 1428.44 932.91 1430.78C931.4 1431.21 929.999 1431.96 928.797 1432.97C927.595 1433.98 926.619 1435.24 925.932 1436.65C925.244 1438.06 924.862 1439.6 924.808 1441.17C924.755 1442.74 925.031 1444.31 925.62 1445.76C927.914 1452.03 935.08 1456.08 941.1 1458.05C947.774 1460.06 962.476 1458.05 964.318 1458.05C965.219 1462.43 965.997 1466.73 966.734 1470.78C969.191 1484.83 970.829 1496.66 971.689 1504.9C971.689 1506.37 972.017 1507.68 972.14 1508.99H943.475L953.876 1711.98H1002.44L1012.84 1508.99H986.268L986.882 1507.8C990.526 1500.19 995.563 1489.29 1001.01 1475.94C1002.77 1471.85 1004.53 1467.22 1006.29 1462.55C1008.09 1462.92 1022.67 1465.87 1029.43 1464.31C1035.61 1462.92 1043.07 1459.44 1045.81 1453.38C1046.51 1451.97 1046.9 1450.43 1046.97 1448.86C1047.03 1447.29 1046.76 1445.72 1046.18 1444.26C1045.6 1442.8 1044.71 1441.48 1043.58 1440.38C1042.45 1439.28 1041.1 1438.44 1039.63 1437.9C1030.66 1434.87 1016.98 1445.07 1011.94 1451.87C1011.66 1452.27 1008.91 1456.98 1007.23 1460.06L1009.4 1454.32C1010.84 1450.43 1012.15 1446.46 1013.5 1442.24L1015.34 1435.98C1016.04 1433.89 1016.49 1431.64 1017.06 1429.42C1018.25 1424.31 1019.23 1419.06 1020.13 1413.74C1023.53 1414.97 1035.78 1419.23 1042.08 1418.78C1048.39 1418.33 1056.29 1416.03 1059.94 1410.59C1060.86 1409.29 1061.5 1407.82 1061.81 1406.26C1062.12 1404.7 1062.1 1403.1 1061.74 1401.55C1061.39 1400 1060.71 1398.55 1059.74 1397.28C1058.78 1396.01 1057.57 1394.97 1056.17 1394.21C1047.98 1390.11 1032.66 1397.89 1026.69 1403.83C1026.32 1404.24 1022.59 1408.99 1020.46 1411.65C1020.95 1408.46 1021.44 1405.26 1021.85 1401.99C1023.04 1392.61 1023.9 1383.07 1024.84 1373.57C1025.13 1370.66 1025.46 1367.75 1025.74 1364.85C1026.97 1365.3 1041.39 1370.66 1048.47 1370.17C1054.74 1369.72 1062.64 1367.43 1066.28 1361.98C1067.21 1360.69 1067.85 1359.21 1068.16 1357.65C1068.47 1356.1 1068.45 1354.49 1068.09 1352.94C1067.73 1351.39 1067.05 1349.94 1066.09 1348.67C1065.13 1347.41 1063.91 1346.36 1062.52 1345.6C1054.33 1341.3 1039.05 1349.29 1033.03 1355.22C1032.58 1355.67 1027.09 1362.55 1025.78 1364.36C1026.48 1357.97 1027.22 1351.62 1028.2 1345.35C1029.46 1336.92 1031.28 1328.57 1033.65 1320.37C1034.22 1320.37 1049.21 1326.23 1056.5 1325.74C1062.76 1325.29 1070.67 1322.95 1074.31 1317.55C1075.24 1316.26 1075.88 1314.78 1076.2 1313.22C1076.51 1311.67 1076.49 1310.06 1076.14 1308.51C1075.78 1306.96 1075.1 1305.5 1074.13 1304.23C1073.17 1302.97 1071.94 1301.92 1070.54 1301.17C1062.35 1296.83 1047.08 1304.81 1041.06 1310.79C1040.61 1311.24 1034.71 1318.65 1033.73 1320.05L1034.1 1318.61C1036.7 1310.45 1040.01 1302.53 1044.01 1294.94C1046.18 1290.85 1048.47 1286.75 1050.76 1283.07C1053.47 1284.42 1065.83 1290.44 1072.39 1290.69C1078.94 1290.93 1086.8 1289.5 1091.06 1284.34C1092.07 1283.16 1092.83 1281.79 1093.28 1280.3C1093.73 1278.82 1093.87 1277.26 1093.68 1275.72C1093.5 1274.17 1093 1272.69 1092.21 1271.35C1091.41 1270.02 1090.36 1268.86 1089.09 1267.96C1081.19 1262.72 1065.34 1268.98 1058.75 1274.26C1058.38 1274.55 1055.02 1277.87 1052.65 1280.33C1053.71 1278.65 1054.78 1276.89 1055.84 1275.33C1059.94 1269.35 1063.79 1264.15 1067.39 1259.52C1069.44 1256.94 1071.48 1254.65 1073.16 1252.52C1076.48 1252.52 1089.87 1252.03 1095.73 1249.29C1101.58 1246.54 1108.01 1241.59 1109.36 1235.08C1109.93 1233.49 1110.13 1231.79 1109.95 1230.11C1109.77 1228.44 1109.21 1226.82 1108.31 1225.39C1107.42 1223.96 1106.21 1222.76 1104.78 1221.86C1103.36 1220.96 1101.74 1220.4 1100.07 1220.21V1220.21ZM995.85 1473.08C990.158 1486.18 984.916 1496.87 981.19 1504.28L979.101 1508.38H978.487C978.487 1506.94 978.078 1505.35 977.832 1503.59C976.685 1495.4 974.883 1483.36 972.058 1469.23C971.198 1464.76 970.174 1460.01 969.069 1455.14C973.494 1453.36 977.815 1451.32 982.009 1449.04C987.706 1453.98 994.058 1458.12 1000.89 1461.32C999.208 1465.3 997.488 1469.31 995.85 1473.08Z" fill="#263238"/>
<path d="M1050.48 1280.41C1050.48 1280.41 1053.51 1269.39 1053.59 1268.65C1054.78 1260.26 1052.12 1243.43 1043.56 1239.29C1042.14 1238.66 1040.6 1238.32 1039.04 1238.32C1037.48 1238.31 1035.94 1238.62 1034.51 1239.24C1033.08 1239.86 1031.8 1240.77 1030.74 1241.92C1029.68 1243.06 1028.87 1244.41 1028.36 1245.89C1026.07 1252.15 1028.98 1259.85 1032.46 1265.17C1036.56 1271.56 1050.48 1280.41 1050.48 1280.41Z" fill="#263238"/>
<path d="M2592.37 1711H926.726V1731.39H2592.37V1711Z" fill="#263238"/>
</g>
<defs>
<clipPath id="clip0_1301_115">
<rect width="2855" height="1753" fill="white"/>
</clipPath>
</defs>
</svg>
