<svg width="1200" height="628" viewBox="0 0 1200 628" fill="none" xmlns="http://www.w3.org/2000/svg">
<g clip-path="url(#clip0_835_110)">
<rect width="1200" height="628" fill="#F3F6FA"/>
<path d="M441.147 379.784C432.94 379.784 425.305 377.665 418.241 373.427C411.245 369.121 405.56 363.1 401.188 355.364C396.882 347.56 394.73 338.411 394.73 327.917C394.73 316.817 396.882 307.433 401.188 299.764C405.56 292.027 411.245 286.175 418.241 282.206C425.305 278.236 432.94 276.252 441.147 276.252C447.538 276.252 453.155 277.295 457.999 279.38C462.91 281.398 467.081 284.156 470.512 287.655C473.943 291.085 476.633 294.92 478.584 299.158C480.535 303.396 481.78 307.668 482.318 311.973L458.302 312.579C457.225 308.273 455.207 304.708 452.247 301.883C449.355 299.057 445.587 297.645 440.946 297.645C437.111 297.645 433.512 298.721 430.148 300.874C426.785 302.959 424.027 306.222 421.874 310.662C419.788 315.102 418.746 320.853 418.746 327.917C418.746 334.644 419.721 340.261 421.672 344.769C423.69 349.209 426.381 352.572 429.745 354.859C433.108 357.079 436.842 358.189 440.946 358.189C447 358.189 451.406 356.743 454.165 353.85C456.923 350.89 458.302 346.955 458.302 342.044H482.318C482.318 348.973 480.737 355.297 477.575 361.015C474.413 366.733 469.772 371.307 463.65 374.738C457.528 378.102 450.027 379.784 441.147 379.784ZM555.032 376.958L552.004 353.144V313.79C552.004 306.928 550.592 301.849 547.766 298.553C545.008 295.256 540.299 293.608 533.639 293.608C529.805 293.608 526.475 294.18 523.649 295.324C520.824 296.467 518.637 298.115 517.09 300.268C515.61 302.354 514.87 304.91 514.87 307.937H488.836C488.836 300.537 490.619 294.516 494.184 289.875C497.749 285.166 502.862 281.735 509.522 279.582C516.249 277.362 524.288 276.252 533.639 276.252C542.115 276.252 549.515 277.631 555.839 280.389C562.163 283.08 567.073 287.251 570.572 292.902C574.07 298.553 575.819 305.784 575.819 314.597V376.958H555.032ZM522.943 379.784C514.534 379.784 507.504 378.337 501.853 375.445C496.269 372.485 492.065 368.617 489.24 363.84C486.414 359.064 485.001 353.884 485.001 348.3C485.001 342.111 486.616 336.931 489.845 332.761C493.141 328.522 497.783 325.361 503.77 323.275C509.758 321.122 516.821 320.046 524.961 320.046C530.276 320.046 535.287 320.45 539.996 321.257C544.773 322.064 549.515 323.141 554.224 324.486V338.411C550.524 337.201 546.488 336.259 542.115 335.586C537.743 334.913 533.639 334.577 529.805 334.577C524.154 334.577 519.512 335.62 515.879 337.705C512.247 339.79 510.43 343.322 510.43 348.3C510.43 351.933 511.91 355.061 514.87 357.685C517.83 360.308 522.539 361.62 528.997 361.62C533.908 361.62 538.079 360.544 541.51 358.391C544.941 356.239 547.531 353.548 549.28 350.319C551.096 347.09 552.004 343.86 552.004 340.631H557.655C557.655 347.695 556.343 354.22 553.72 360.208C551.096 366.128 547.194 370.87 542.015 374.436C536.902 378.001 530.545 379.784 522.943 379.784ZM592.562 376.958V278.674H616.376V376.958H592.562ZM610.523 333.971C610.523 321.122 611.97 310.493 614.862 302.084C617.755 293.675 621.623 287.453 626.467 283.416C631.378 279.313 636.827 277.261 642.814 277.261C644.428 277.261 645.942 277.362 647.355 277.564C648.835 277.766 650.281 278.068 651.694 278.472L651.29 302.286C649.541 301.883 647.658 301.546 645.639 301.277C643.621 301.008 641.805 300.874 640.19 300.874C634.943 300.874 630.537 302.152 626.971 304.708C623.473 307.197 620.816 310.897 619 315.808C617.251 320.719 616.376 326.773 616.376 333.971H610.523Z" fill="#262626"/>
<path d="M653.425 279.077H680.872L704.283 356.575H702.466L725.877 279.077H753.324L716.795 376.958H689.954L653.425 279.077ZM827.503 278.674H851.317V376.958H827.503V278.674ZM760.298 278.674H784.112V338.815C784.112 345.206 785.693 350.016 788.855 353.245C792.017 356.407 796.356 357.988 801.872 357.988C806.581 357.988 810.853 356.777 814.687 354.355C818.589 351.866 821.684 348.233 823.971 343.457C826.325 338.613 827.503 332.626 827.503 325.495H833.961C833.961 337.47 832.414 347.392 829.319 355.263C826.225 363.134 821.953 369.02 816.504 372.922C811.055 376.824 804.765 378.775 797.634 378.775C790.638 378.775 784.314 377.53 778.663 375.041C773.012 372.552 768.539 368.549 765.242 363.033C761.946 357.517 760.298 350.251 760.298 341.237V278.674ZM864.627 376.958V238.512H888.442V376.958H864.627ZM885.213 316.212L927.191 279.077H959.481L885.213 340.833V316.212ZM932.841 376.958L889.047 314.597L911.651 309.148L961.903 376.958H932.841Z" fill="#262626"/>
<g style="mix-blend-mode:multiply" opacity="0.9">
<circle cx="333.982" cy="369.686" r="25.5457" fill="url(#paint0_linear_835_110)"/>
</g>
<path fill-rule="evenodd" clip-rule="evenodd" d="M257.345 395.232H301.844V344.141H301.252H269.715C269.711 344.141 269.707 344.141 269.703 344.141C269.699 344.141 269.696 344.141 269.692 344.141H268.881V344.121C257.884 343.585 249.102 332.362 249.102 318.595C249.102 304.828 257.884 293.605 268.881 293.069V293.049H269.703L301.252 293.049L316.676 293.049L316.677 293.049L348.815 241.958H257.345V241.966C257.071 241.961 256.796 241.958 256.52 241.958C226.483 241.958 194.716 276.269 194.716 318.595C194.716 360.92 226.483 395.232 256.52 395.232C256.796 395.232 257.071 395.229 257.345 395.223V395.232Z" fill="url(#paint1_linear_835_110)"/>
</g>
<defs>
<linearGradient id="paint0_linear_835_110" x1="291.479" y1="432.146" x2="296.661" y2="311.186" gradientUnits="userSpaceOnUse">
<stop offset="0.0880824" stop-color="#75F1C9"/>
<stop offset="0.314618" stop-color="#1DCF96"/>
<stop offset="0.640668" stop-color="#53A9DA"/>
<stop offset="0.838542" stop-color="#5D5FEF"/>
<stop offset="0.958333" stop-color="#7879F1"/>
</linearGradient>
<linearGradient id="paint1_linear_835_110" x1="201.308" y1="395.232" x2="351.987" y2="229.943" gradientUnits="userSpaceOnUse">
<stop stop-color="#2CD59F"/>
<stop offset="0.15625" stop-color="#1DCF96"/>
<stop offset="0.432292" stop-color="#53A9DA"/>
<stop offset="0.838542" stop-color="#5D5FEF"/>
<stop offset="0.958333" stop-color="#7879F1"/>
</linearGradient>
<clipPath id="clip0_835_110">
<rect width="1200" height="628" fill="white"/>
</clipPath>
</defs>
</svg>
